<svg version="1.2" xmlns="http://www.w3.org/2000/svg" viewBox="0 0 531 690" width="531" height="690">
	<title>vecteezy_happy-halloween-vector-monster-colorful-illustration-flat_-ai</title>
	<style>
		.s0 { fill: #fc3d4e } 
		.s1 { fill: #904a9a } 
		.s2 { fill: #6c2c77 } 
		.s3 { fill: #ffffff } 
		.s4 { fill: #b4d710 } 
		.s5 { fill: #6d6e30 } 
		.s6 { fill: #ac69b7 } 
		.s7 { fill: #fefefe } 
		.s8 { fill: #223437 } 
		.s9 { fill: #ab67b7 } 
		.s10 { fill: #c085cc } 
	</style>
	<g id="Object">
		<g id="&lt;Group&gt;">
			<g id="&lt;Group&gt;">
				<g id="&lt;Group&gt;">
					<path id="&lt;Path&gt;" class="s0" d="m444.6 171.6l-55.7-26.6l18.9-37q27.8-18.3 56-45.8c4.7-4.6 12.7-1.8 13.4 4.7c2.6 21.9 1.6 63.8-32.6 104.7z" />
					<path id="&lt;Path&gt;" class="s0" d="m90.7 66.9c0.8-6.5 8.7-9.3 13.4-4.7q28.3 27.5 56 45.8l18.9 37l-55.7 26.6c-34.2-40.9-35.2-82.8-32.6-104.7z" />
				</g>
				<path id="&lt;Path&gt;" class="s1" d="m313.7 667.7c-7.5 0.4-13.5-6.1-12.5-13.6c3.8-30 11.5-100 3.3-128q-10.6-36.1 22.7-23.1l3.8 15.9q3.9 57.2-9.6 120.3q47.2-24.1 57.3 1.5c8.2 20.7-39.9 25.8-65 27z" />
				<path id="&lt;Path&gt;" class="s1" d="m188 640.7q10.2-25.6 57.3-1.5q-13.4-63.1-9.6-120.3l3.9-15.9q33.2-13 22.6 23.1c-8.2 28-0.5 98 3.4 128c0.9 7.5-5.1 14-12.6 13.6c-25.1-1.2-73.2-6.3-65-27z" />
				<path id="&lt;Path&gt;" class="s1" d="m427.3 386c-21.8 19.7-33.3 48.2-33.1 77.7q0 0.2 0 0.5c0 52.2-49.8 94.6-111.3 94.6c-61.4 0-111.2-42.4-111.2-94.6q0-0.3 0-0.5c0.2-29.5-11.3-58-33.1-77.7c-37.5-34.1-60.7-81.2-60.7-133.4c0-103.7 91.8-187.8 205-187.8c113.3 0 205.1 84.1 205.1 187.8c0 52.2-23.2 99.3-60.7 133.4z" />
				<g id="&lt;Group&gt;">
					<path id="&lt;Path&gt;" class="s2" d="m457.7 284.5q0 3-0.3 6c-3 33.5-31.2 59.8-65.5 59.8c-34.3 0-62.5-26.3-65.5-59.8q-0.3-3-0.3-6c0-36.4 29.5-65.8 65.8-65.8c36.3 0 65.8 29.4 65.8 65.8z" />
					<path id="&lt;Path&gt;" class="s1" d="m457.7 274.5q0 3.1-0.3 6.1c-3 33.5-31.2 59.7-65.5 59.7c-34.3 0-62.5-26.2-65.5-59.7q-0.3-3-0.3-6.1c0-36.3 29.5-65.8 65.8-65.8c36.3 0 65.8 29.5 65.8 65.8z" />
					<path id="&lt;Path&gt;" class="s3" d="m450.5 274.5c0 32.4-26.2 58.6-58.6 58.6c-32.4 0-58.6-26.2-58.6-58.6c0-32.4 26.2-58.6 58.6-58.6c32.4 0 58.6 26.2 58.6 58.6z" />
					<path id="&lt;Path&gt;" class="s4" d="m429.2 280.6c0 20.6-16.7 37.3-37.3 37.3c-20.6 0-37.3-16.7-37.3-37.3c0-20.7 16.7-37.4 37.3-37.4c20.6 0 37.3 16.7 37.3 37.4z" />
					<path id="&lt;Path&gt;" class="s5" d="m409 280.6c0 9.4-7.6 17.1-17.1 17.1c-9.5 0-17.2-7.7-17.2-17.1c0-9.5 7.7-17.2 17.2-17.2c9.5 0 17.1 7.7 17.1 17.2z" />
					<path id="&lt;Path&gt;" class="s3" d="m402.9 257.3c1.3 4.1-4.2 9.3-12.1 11.6c-7.9 2.4-15.2 1-16.5-3.1c-1.2-4.1 4.3-9.3 12.1-11.6c7.9-2.4 15.3-1 16.5 3.1z" />
					<path id="&lt;Path&gt;" class="s3" d="m410.9 298.8c0 4.1-3.3 7.4-7.3 7.4c-4.1 0-7.4-3.3-7.4-7.4c0-4.1 3.3-7.4 7.4-7.4c4 0 7.3 3.3 7.3 7.4z" />
				</g>
				<g id="&lt;Group&gt;">
					<path id="&lt;Path&gt;" class="s2" d="m241.6 284.5q0 3-0.3 6c-3 33.5-31.2 59.8-65.5 59.8c-34.3 0-62.4-26.3-65.5-59.8q-0.3-3-0.3-6c0-36.4 29.5-65.8 65.8-65.8c36.4 0 65.8 29.4 65.8 65.8z" />
					<path id="&lt;Path&gt;" class="s1" d="m241.6 274.5q0 3.1-0.3 6.1c-3 33.5-31.2 59.7-65.5 59.7c-34.3 0-62.4-26.2-65.5-59.7q-0.3-3-0.3-6.1c0-36.3 29.5-65.8 65.8-65.8c36.4 0 65.8 29.5 65.8 65.8z" />
					<path id="&lt;Path&gt;" class="s3" d="m234.5 274.5c0 32.4-26.3 58.6-58.7 58.6c-32.3 0-58.6-26.2-58.6-58.6c0-32.4 26.3-58.6 58.6-58.6c32.4 0 58.7 26.2 58.7 58.6z" />
					<path id="&lt;Path&gt;" class="s4" d="m213.2 280.6c0 20.6-16.7 37.3-37.4 37.3c-20.6 0-37.3-16.7-37.3-37.3c0-20.7 16.7-37.4 37.3-37.4c20.7 0 37.4 16.7 37.4 37.4z" />
					<path id="&lt;Path&gt;" class="s5" d="m193 280.6c0 9.4-7.7 17.1-17.2 17.1c-9.4 0-17.1-7.7-17.1-17.1c0-9.5 7.7-17.2 17.1-17.2c9.5 0 17.2 7.7 17.2 17.2z" />
					<path id="&lt;Path&gt;" class="s3" d="m186.9 257.3c1.2 4.1-4.2 9.3-12.1 11.6c-7.9 2.4-15.3 1-16.5-3.1c-1.2-4.1 4.2-9.3 12.1-11.6c7.9-2.4 15.3-1 16.5 3.1z" />
					<path id="&lt;Path&gt;" class="s3" d="m194.9 298.8c0 4.1-3.3 7.4-7.4 7.4c-4.1 0-7.4-3.3-7.4-7.4c0-4.1 3.3-7.4 7.4-7.4c4.1 0 7.4 3.3 7.4 7.4z" />
				</g>
				<path id="&lt;Path&gt;" class="s6" d="m241.6 274.5q0 3.1-0.3 6.1h-131q-0.3-3-0.3-6.1c0-36.3 29.5-65.8 65.8-65.8c36.4 0 65.8 29.5 65.8 65.8z" />
				<path id="&lt;Path&gt;" class="s6" d="m457.7 274.5q0 3.1-0.3 6.1h-131q-0.3-3-0.3-6.1c0-36.3 29.5-65.8 65.8-65.8c36.3 0 65.8 29.5 65.8 65.8z" />
				<g id="&lt;Group&gt;">
					<path id="&lt;Path&gt;" class="s0" d="m316.7 423.8c-12.9 2.6-26.3-9.7-29.9-27.5q-0.8-3.6-0.9-7q-0.2-2.9 0.1-5.6c2-1.4 4.1-2.8 6.3-4.1q1.5-0.9 3.2-1.7l1.8-0.7l0.8-0.4l1-0.2l1.8-0.5l2-0.3c0.6-0.1 1.3-0.1 1.9-0.1c0.7 0 1.3-0.1 2 0c2.6 0.2 5 0.8 7.4 1.6c2.3 0.8 4.5 1.8 6.7 2.8c4.2 2.2 8.1 4.5 12.1 6.4q0.2 0.1 0.4 0.2q0.8 3.9 0.9 7.6c0.5 14.7-6.6 27.2-17.6 29.5z" />
					<path id="&lt;Path&gt;" class="s7" d="m371.2 394.7c0 7.9-3 14.3-6.7 14.3c-3.7 0-6.7-6.2-6.7-14q0-0.1 0-0.3c0-3.4 0.5-6.5 1.5-9c2.2-1.4 4.2-3.2 6.1-5c2 0.6 3.7 3 4.8 6.4c0.6 2.2 1 4.8 1 7.6z" />
					<path id="&lt;Path&gt;" class="s7" d="m216.3 388.6c0 7.9-3 14.3-6.7 14.3c-3.7 0-6.7-6.4-6.7-14.3c0-2 0.2-3.9 0.5-5.6q0.1-0.5 0.2-0.9c2.4-0.4 4.7-1.1 6.9-2q2-0.7 3.9-1.5q0.2 0.6 0.4 1.2c1 2.4 1.5 5.5 1.5 8.8z" />
					<path id="&lt;Path&gt;" class="s8" d="m195.1 370.8c-0.9 2.5-2.2 4.8-3.9 6.9c-0.4 0.5-0.8 1.1-1.3 1.6l-0.2 0.2l-0.1 0.1l-1.1 1.1q-0.8 0.6-1.6 1.2q-0.4 0.3-0.8 0.6l-0.9 0.5c-2.3 1.4-5 2.1-7.6 2.3c2.1-1.7 4.2-3 5.9-4.7q0.7-0.5 1.3-1.2c0.4-0.4 0.9-0.8 1.3-1.3q0.7-0.7 1.4-1.5q0 0 0-0.1q0.5-0.5 0.9-1q2.2-2.8 4.1-5.9c1.3-2.1 2.4-4.3 3.7-6.6c0.2 2.6-0.3 5.3-1.1 7.8z" />
					<path id="&lt;Path&gt;" class="s8" d="m388.9 385.3c-2.6-0.2-5.2-0.9-7.5-2.3l-0.9-0.5q-0.4-0.3-0.8-0.6q-0.9-0.6-1.6-1.2l-0.8-0.7l-0.7-0.7c-0.5-0.5-0.8-1.1-1.3-1.6q-1.8-2.2-3-4.8q-0.5-1-0.8-2.1c-0.9-2.5-1.4-5.2-1.2-7.8c1.3 2.3 2.5 4.5 3.8 6.6q0.2 0.3 0.4 0.6q1.7 2.8 3.7 5.3q0.7 0.9 1.5 1.7q0.4 0.5 0.8 0.9c0.4 0.5 0.8 0.9 1.2 1.3q0.7 0.7 1.3 1.2c1.8 1.7 3.8 3 5.9 4.7z" />
					<path id="&lt;Path&gt;" class="s8" d="m379.7 377.2q-1.2 1.4-2.4 2.8c-1.7 2-3.6 3.9-5.6 5.7q-0.8 0.7-1.5 1.4c-3.2 2.8-6.7 5.3-10.7 7.2q-0.8 0.4-1.7 0.7c-4.2 1.7-9 2.6-13.5 2c-2.7-0.2-5.1-0.9-7.5-1.7q-1.3-0.5-2.5-1q-2.2-1-4.2-2.1c-4.2-2.2-8.1-4.7-12-6.9c-1.9-1-3.8-2-5.8-2.8c-2-0.7-4-1.3-6-1.5c-0.5-0.1-1 0-1.5 0c-0.5-0.1-1-0.1-1.5 0l-1.4 0.1l-1.5 0.4l-0.7 0.1l-0.8 0.3l-1.4 0.5q-1.5 0.6-2.9 1.4c-3 1.6-5.9 3.5-8.7 5.5q-1.3 0.9-2.6 1.8c-3.7 2.7-7.5 5.5-12.1 7.5c-2.2 0.9-4.7 1.6-7.3 1.6c-2.6 0-5.2-0.7-7.4-1.8c-4.5-2.3-7.8-5.8-10.7-9.5c-2.8-3.5-5.8-6.9-9.5-9.3l-1.4-0.9c-0.5-0.3-1-0.5-1.5-0.7c-0.5-0.2-0.9-0.5-1.5-0.6l-1.5-0.4c-2.1-0.4-4.4-0.5-6.5 0c-2.2 0.4-4.4 1.1-6.5 1.9q-1.3 0.4-2.6 0.9q-1.9 0.7-3.9 1.4c-2.4 0.7-4.9 1.4-7.5 1.8c-2 0.3-4.1 0.3-6.2 0.1c-2.3-0.2-4.6-1-6.5-2.4q-0.6-0.5-1.1-1.1c-0.9-0.9-1.6-1.9-2.1-3q0 0 0-0.1c0.5 1.1 1.3 2.1 2.2 3q0.6 0.5 1.2 0.9c1.8 1.4 4.1 2 6.3 2.2c2.2 0.1 4.3-0.1 6.4-0.5c2.4-0.4 4.7-1.1 6.9-2q2-0.7 3.9-1.5q1.2-0.5 2.5-1c2.1-0.8 4.3-1.6 6.6-2.2c2.3-0.6 4.8-0.6 7.2-0.3l1.8 0.4c0.6 0.1 1.1 0.5 1.7 0.7c0.6 0.2 1.1 0.4 1.7 0.7l1.5 0.9c4.1 2.4 7.4 5.9 10.5 9.4c2.9 3.4 6.2 6.6 10 8.3c1.9 0.9 3.9 1.3 5.9 1.2c2-0.1 4-0.6 5.9-1.6c3.9-1.8 7.5-4.6 11.1-7.4c1.7-1.3 3.4-2.7 5.2-4c2-1.4 4.1-2.8 6.3-4.1q1.5-0.9 3.2-1.7l1.8-0.7l0.8-0.4l1-0.2l1.8-0.5l2-0.3c0.6-0.1 1.3-0.1 1.9-0.1c0.7 0 1.3-0.1 2 0c2.6 0.2 5 0.8 7.4 1.6c2.3 0.8 4.5 1.8 6.7 2.8c4.2 2.2 8.1 4.5 12.1 6.4q0.2 0.1 0.4 0.2c1.9 0.9 3.7 1.6 5.5 2.3c2 0.5 4 1 6 1.1c3.9 0.4 7.8-0.7 11.3-2.5q1.6-0.8 3.1-1.9c2.2-1.4 4.2-3.2 6.1-5q0.4-0.4 0.8-0.8c2.2-2.1 4.2-4.5 6.1-7q1.1-1.3 2.2-2.7q1.7 2.8 3.7 5.3q0.7 0.9 1.5 1.7z" />
				</g>
				<path id="&lt;Path&gt;" class="s1" d="m188.9 455.4q-32.8 30.8-15.4 47.4c17.4 16.7 25.6 37 13.4 32.6c-8.4-2.9-10.8-7.3-19.9-3.7c-9 3.5-7.1 20.1-15.6 19.7c-8.3-0.3-3.4-16.8-8.8-19.1c-5.4-2.4-10.2 1.6-15.4-7c-5.3-8.5 13.2-10.2 12.8-29c-0.4-18.7 14.6-40.1 31.3-53c16.7-12.8 24.2 1.7 17.6 12.1z" />
				<path id="&lt;Path&gt;" class="s1" d="m404 443.3c16.7 12.9 31.7 34.3 31.3 53c-0.4 18.8 18.1 20.5 12.9 29c-5.3 8.6-10 4.6-15.4 7c-5.4 2.3-0.5 18.8-8.9 19.1c-8.4 0.4-6.6-16.2-15.6-19.7c-9-3.6-11.5 0.8-19.9 3.7c-12.2 4.4-4-15.9 13.4-32.6q17.4-16.6-15.4-47.4c-6.6-10.4 0.9-24.9 17.6-12.1z" />
				<path id="&lt;Path&gt;" class="s1" d="m243.3 72.1q-3.6-30.9-32.5-35.6q47.3-7.6 60.7 27.8q15.5-39.7 61.7-34.3q-24.2 13.7-23.8 37.5l-27.1 41.2z" />
				<path id="&lt;Path&gt;" class="s9" d="m354.6 503.2c0 26.8-32.1 48.5-71.7 48.5c-39.5 0-71.6-21.7-71.6-48.5c0-26.7 32.1-48.4 71.6-48.4c39.6 0 71.7 21.7 71.7 48.4z" />
				<g id="&lt;Group&gt;">
					<path id="&lt;Path&gt;" class="s10" d="m234.5 101.6c0 7.8-6.4 14.2-14.2 14.2c-7.9 0-14.2-6.4-14.2-14.2c0-7.9 6.3-14.2 14.2-14.2c7.8 0 14.2 6.3 14.2 14.2z" />
					<path id="&lt;Path&gt;" class="s10" d="m259.4 92.5c0 4.2-3.4 7.5-7.5 7.5c-4.1 0-7.5-3.3-7.5-7.5c0-4.1 3.4-7.4 7.5-7.4c4.1 0 7.5 3.3 7.5 7.4z" />
					<path id="&lt;Path&gt;" class="s10" d="m267.8 124.8c0 10.2-8.3 18.5-18.5 18.5c-10.2 0-18.5-8.3-18.5-18.5c0-10.2 8.3-18.5 18.5-18.5c10.2 0 18.5 8.3 18.5 18.5z" />
					<path id="&lt;Path&gt;" class="s10" d="m296.9 83.6c0 7.7-6.2 14-14 14c-7.7 0-13.9-6.3-13.9-14c0-7.7 6.2-14 13.9-14c7.8 0 14 6.3 14 14z" />
					<path id="&lt;Path&gt;" class="s10" d="m181.5 106.3c0 3.1-2.6 5.6-5.7 5.6c-3.1 0-5.6-2.5-5.6-5.6c0-3.1 2.5-5.6 5.6-5.6c3.1 0 5.7 2.5 5.7 5.6z" />
					<path id="&lt;Path&gt;" class="s10" d="m213.2 131.8c0 8.5-6.9 15.4-15.5 15.4c-8.5 0-15.4-6.9-15.4-15.4c0-8.6 6.9-15.5 15.4-15.5c8.6 0 15.5 6.9 15.5 15.5z" />
					<path id="&lt;Path&gt;" class="s10" d="m238.2 83.6c0 2.1-1.7 3.8-3.7 3.8c-2.1 0-3.8-1.7-3.8-3.8c0-2.1 1.7-3.8 3.8-3.8c2 0 3.7 1.7 3.7 3.8z" />
				</g>
				<g id="&lt;Group&gt;">
					<path id="&lt;Path&gt;" class="s2" d="m374.6 466.6c0-2.7 2.3-4.9 5-4.9c2.8 0 5 2.2 5 4.9c0 2.8-2.2 5-5 5c-2.7 0-5-2.2-5-5z" />
					<path id="&lt;Path&gt;" class="s2" d="m389.3 481.2c0 2.4-2 4.4-4.4 4.4c-2.5 0-4.5-2-4.5-4.4c0-2.5 2-4.5 4.5-4.5c2.4 0 4.4 2 4.4 4.5z" />
					<path id="&lt;Path&gt;" class="s2" d="m380.4 494.9c0 3-2.4 5.4-5.4 5.4c-3 0-5.4-2.4-5.4-5.4c0-3 2.4-5.4 5.4-5.4c3 0 5.4 2.4 5.4 5.4z" />
					<path id="&lt;Path&gt;" class="s2" d="m373.3 509.3c0 1.7-1.4 3-3 3c-1.7 0-3-1.3-3-3c0-1.6 1.3-3 3-3c1.6 0 3 1.4 3 3z" />
					<path id="&lt;Path&gt;" class="s2" d="m373.8 483.5c0.5 0 0.8 0.4 0.8 0.8c0 0.4-0.3 0.8-0.8 0.8c-0.4 0-0.8-0.4-0.8-0.8c0-0.4 0.4-0.8 0.8-0.8z" />
					<path id="&lt;Path&gt;" class="s2" d="m390.2 472.1c0 1-0.8 1.7-1.7 1.7c-0.9 0-1.7-0.7-1.7-1.7c0-0.9 0.8-1.7 1.7-1.7c0.9 0 1.7 0.8 1.7 1.7z" />
					<path id="&lt;Path&gt;" class="s2" d="m386.8 491.9c0 1.4-1.1 2.5-2.5 2.5c-1.4 0-2.5-1.1-2.5-2.5c0-1.4 1.1-2.6 2.5-2.6c1.4 0 2.5 1.2 2.5 2.6z" />
					<path id="&lt;Path&gt;" class="s2" d="m366.7 481.5c-3.9 0-7.1-3.2-7.1-7.1c0-3.9 3.2-7.1 7.1-7.1c3.9 0 7.1 3.2 7.1 7.1c0 3.9-3.2 7.1-7.1 7.1z" />
				</g>
			</g>
		</g>
	</g>
</svg>