<svg version="1.2" xmlns="http://www.w3.org/2000/svg" viewBox="0 0 826 736" width="826" height="736">
	<title>vecteezy_happy-halloween-vector-monster-colorful-illustration-flat_-ai</title>
	<style>
		.s0 { fill: #0f064b } 
		.s1 { fill: #292984 } 
		.s2 { fill: #fbb03c } 
		.s3 { fill: #ffffff } 
		.s4 { fill: #fdffff } 
		.s5 { fill: #dd6613 } 
		.s6 { fill: #f7941f } 
	</style>
	<g id="Object">
		<g id="&lt;Group&gt;">
			<g id="&lt;Group&gt;">
				<path id="&lt;Path&gt;" class="s0" d="m594.7 116.2q28.4 34 56.8 8.9c28.3-25 28.9-65.6 77.3-57.8q-33.4 8.9-18.4 73.4c15.1 64.5-120.1 68.4-131.8 25.6q-11.7-42.8 16.1-50.1z" />
				<path id="&lt;Path&gt;" class="s0" d="m352.9 166.3c-11.7 42.8-146.8 38.9-131.8-25.6q15-64.5-18.4-73.4c48.4-7.8 49 32.8 77.3 57.8q28.4 25.1 56.8-8.9q27.8 7.3 16.1 50.1z" />
				<path id="&lt;Path&gt;" class="s0" d="m526 556.9q15.5 34.5 8.9 69.5c-6.7 35.1 51.4-44.2 70.6-25.5c18.9 18.3-80.1 62.8-90.1 50c-10-12.8 18.4-42.8-24.5-82.9q-42.8-40 35.1-11.1z" />
				<path id="&lt;Path&gt;" class="s0" d="m417.6 559c-16.1 56.3 23.7 67.5 21.7 83.7c-2.1 16.1-109.9 28.8-103.1 3.4c6.9-25.9 97.5 12.2 73.8-14.4q-23.8-26.7-28.1-64.3q51.9-64.8 35.7-8.4z" />
				<g id="&lt;Group&gt;">
					<path id="&lt;Path&gt;" class="s0" d="m279.9 371.8q-64.1 25.1-123.1-1.5c-78.1-35.2-34.1-144.4 9.7-74.4q34.6 55.4 108.4 45.3" />
					<path id="&lt;Path&gt;" class="s0" d="m153 287.3q2.2-40.4 13-32q10.8 8.4-10.5 34.1z" />
					<path id="&lt;Path&gt;" class="s0" d="m131.1 281.9q-18.8-35.9-5.2-34.1q13.6 1.7 8.3 34.6z" />
					<path id="&lt;Path&gt;" class="s0" d="m118.2 297.7q-36.5-17.4-24.6-24.1q11.9-6.8 27.5 22.7z" />
					<path id="&lt;Path&gt;" class="s0" d="m119.3 314.2q-39 10.7-34.4-2.2q4.6-12.9 35.6-0.7z" />
					<path id="&lt;Path&gt;" class="s1" d="m124.3 319.9c-4.8-7.3-0.8-18.3 8.9-24.6c9.7-6.3 21.4-5.4 26.1 1.9c4.8 7.3-30.3 30.1-35 22.7z" />
				</g>
				<g id="&lt;Group&gt;">
					<path id="&lt;Path&gt;" class="s0" d="m643.1 320.5q63.1 27.6 86 88.1c30.3 80.1-78 126.2-59.4 45.7q14.6-63.6-44.7-108.6" />
					<path id="&lt;Path&gt;" class="s0" d="m673 470q-30.1 27-31.7 13.4q-1.7-13.6 31.5-16.6z" />
					<path id="&lt;Path&gt;" class="s0" d="m684.8 489.3q-12.2 38.6-20.5 27.8q-8.4-10.9 18.6-30.4z" />
					<path id="&lt;Path&gt;" class="s0" d="m705.1 487.2q13.5 38.1 0.3 34.5q-13.2-3.7-3.4-35.5z" />
					<path id="&lt;Path&gt;" class="s0" d="m716 474.7q35.1 20.1 22.7 26q-12.3 5.8-25.7-24.7z" />
				</g>
				<path id="&lt;Path&gt;" class="s2" d="m461.9 95.6c6.7 3.2 66.9-11.4 81 9.3c14.2 20.6 46.4-1.8 65.4 27.1c18.9 28.9 12.3 89.4 30.6 159.2q18.2 69.8 11.8 103.8q-19.2 2-21.4-10.5q-6.5 10.2 9 60.8c15.5 50.6-30.8 68.7 9.6 115.9q-25.4 33.8-53.1 22.8c-27.7-11.1-41.4-7.5-54.9 10.3c-13.6 17.7-35.8-16.7-47.4-15.9c-11.6 0.8-12.7 25.3-31.9 19.1c-19.1-6.2-9.7-32.9-37.9-29.2c-28.3 3.8-33.9 32.4-45.9 25.3c-12-7-0.9-43.6-20.3-42.4c-19.5 1.2-58.2 17-67.1 9.1c-9-7.8 11.1-19.8 5.9-24.4c-5.2-4.5-52.4 3.1-51.5-15.1c0.9-18.1 37-18.2 25.5-55.7c-8.8-28.9-20.8-62.3-5.7-104.8c15-42.6-15.2-78.9 7.9-112.5q-19 5-29.5 5.5q32.4-28.3 37.8-47.2c5.4-18.9 67.7-163.7 182.1-110.5z" />
				<path id="&lt;Path&gt;" class="s3" d="m556.9 253.3c-2.2 23.7-23.2 41.2-46.9 39c-23.7-2.1-41.2-23.1-39-46.8c2.1-23.7 23.1-41.2 46.8-39c23.7 2.1 41.2 23.1 39.1 46.8z" />
				<path id="&lt;Path&gt;" class="s0" d="m528 251.2c-1.2 13.1-12.8 22.8-26 21.6c-13.2-1.2-22.9-12.8-21.7-26c1.2-13.1 12.9-22.8 26-21.6c13.2 1.2 22.9 12.8 21.7 26z" />
				<path id="&lt;Path&gt;" class="s3" d="m386 194.5c23.8 2.2 41.2 23.1 39.1 46.8c-2.2 23.8-23.1 41.2-46.8 39.1c-23.8-2.2-41.2-23.1-39.1-46.9c2.2-23.7 23.1-41.1 46.8-39z" />
				<path id="&lt;Path&gt;" class="s0" d="m394 215c13.1 1.2 22.8 12.8 21.7 26c-1.2 13.1-12.9 22.8-26 21.6c-13.2-1.2-22.9-12.8-21.7-26c1.2-13.1 12.8-22.8 26-21.6z" />
				<g id="&lt;Group&gt;">
					<g id="&lt;Group&gt;">
						<path id="&lt;Path&gt;" class="s4" d="m360.6 351.3l7.6 16.3l-19 8.7l-7.5-16.3c-2.4-5.2-0.1-11.4 5.1-13.8c5.2-2.4 11.4-0.2 13.8 5.1z" />
						<path id="&lt;Path&gt;" class="s4" d="m420.5 329.3l2.8 17.8l-20.6 3.2l-2.8-17.7c-0.9-5.7 3-11.1 8.6-12c5.7-0.9 11.1 3 12 8.7z" />
						<path id="&lt;Path&gt;" class="s4" d="m484.3 329.8l-1.6 17.8l-20.8-1.8l1.7-17.9c0.5-5.8 5.6-10 11.3-9.5c5.7 0.5 10 5.6 9.4 11.4z" />
						<path id="&lt;Path&gt;" class="s4" d="m538.4 345.2l-6.3 16.9l-19.5-7.3l6.2-16.8c2-5.4 8-8.2 13.4-6.2c5.4 2 8.2 8 6.2 13.4z" />
					</g>
					<path id="&lt;Path&gt;" class="s5" d="m333.6 390.6c5.9-7.9 13.3-14.7 21-21c7.8-6.1 16.1-11.7 25-16.4c17.7-9.5 37.4-15.5 57.6-17.4c2.5-0.2 5.1-0.5 7.6-0.6l7.6-0.1c2.5 0 5.1 0.2 7.6 0.3l3.8 0.2l3.8 0.4c10 1 19.9 3.3 29.5 6.3c19.1 6.3 36.9 15.9 52.1 28.3c-18-7.9-36.1-14.5-54.7-18.6c-9.3-1.9-18.6-3.5-28-4c-9.4-0.6-18.8-0.6-28.1 0.4c-18.6 1.8-37 6.5-54.6 13.8c-8.8 3.6-17.4 7.8-25.8 12.6c-8.4 4.7-16.5 9.9-24.4 15.8z" />
				</g>
				<g id="&lt;Group&gt;">
					<path id="&lt;Path&gt;" class="s6" d="m476.4 109.5q0.1-42.4-23.4-55.9c-23.6-13.5 9.5 43.3 23.4 55.9z" />
					<path id="&lt;Path&gt;" class="s6" d="m473.6 105.4q11-61.1 48.5-74.4c37.5-13.2-25.2 59.9-48.5 74.4z" />
				</g>
			</g>
		</g>
	</g>
</svg>