<svg version="1.2" xmlns="http://www.w3.org/2000/svg" viewBox="0 0 599 673" width="599" height="673">
	<title>New Project</title>
	<style>
		.s0 { fill: #fce6bb } 
		.s1 { fill: #d92018 } 
		.s2 { fill: #b70401 } 
		.s3 { fill: #ff7878 } 
		.s4 { fill: #b20000 } 
		.s5 { fill: #990000 } 
		.s6 { fill: #ffffff } 
		.s7 { fill: #992f1d } 
		.s8 { fill: #530700 } 
		.s9 { fill: #433352 } 
		.s10 { fill: #645374 } 
	</style>
	<g id="&lt;Group&gt;">
		<g id="&lt;Group&gt;">
			<g id="&lt;Group&gt;">
				<path id="&lt;Path&gt;" class="s0" d="m518.4 211.1q7.1-19.9 22.5-24.3q-5.1 20.9-3.9 35.2z" />
				<path id="&lt;Path&gt;" class="s0" d="m547.4 218.1q13.8-16 29.8-14.6q-12.4 17.7-16.4 31.5z" />
				<path id="&lt;Path&gt;" class="s0" d="m564.9 241.5q19.6-7.9 33.1 0.7q-19.1 10.1-29 20.5z" />
				<g id="&lt;Group&gt;">
					<g id="&lt;Group&gt;">
						<path id="&lt;Path&gt;" class="s1" d="m564.8 266.1q0 0.1 0 0.1c-0.2 1.6-2.7 27-27.9 28.7q-10.5 75.9-76.3 92.2c-7 1.8-14.7 2.8-23.1 3l-52.8-42.8l28.5-31.4q44.6-0.6 74.9-51q-14.6-24.8-8.9-43c0.6-2 1.4-3.3 2.3-4.3q7.5-7.9 23.7 15.7q9.9-35 22.2-34q12.4 1 10.2 21.6q17.5-15 24.6-6q7.2 8.9-1.8 26.9q23.9-7.9 25.3 1.5q1.4 9.4-20.9 22.8z" />
						<path id="&lt;Path&gt;" class="s2" d="m518.5 232.4c2.7-0.1 5.3 0.1 7.9 0.5c5.2 0.8 10.3 2.5 14.9 5.1c4.7 2.6 8.9 6 12.3 9.9c3.4 4.1 6.1 8.6 7.8 13.5c-3.6-3.7-7.1-7.2-10.8-10.4c-3.8-3.1-7.7-5.9-11.9-8.2q-6.3-3.5-13.3-5.7c-4.7-1.5-9.5-2.7-14.6-3.6c2.5-0.8 5.1-1 7.7-1.1z" />
					</g>
					<path id="&lt;Path&gt;" class="s2" d="m564.8 266.2c-0.2 1.6-2.7 27-27.9 28.7q-10.5 75.9-76.3 92.2c-21.5-12.9-49.4-33-5.4-32.2q63.5 1.2 77.2-70.3c24.5 6.7 31.9-16.9 32.4-18.4z" />
				</g>
				<path id="&lt;Path&gt;" class="s3" d="m495.3 266q-30.1 53.3-82.1 49.9q44.6-0.6 74.9-51q-14.6-24.8-8.9-43c0.6-2 1.4-3.3 2.3-4.3q-2.4 24.4 13.8 48.4z" />
			</g>
			<g id="&lt;Group&gt;">
				<path id="&lt;Path&gt;" class="s0" d="m61.1 222q1.3-14.3-3.8-35.2q15.4 4.4 22.4 24.3z" />
				<path id="&lt;Path&gt;" class="s0" d="m37.3 235q-4-13.8-16.3-31.5q16-1.4 29.7 14.6z" />
				<path id="&lt;Path&gt;" class="s0" d="m29.1 262.7q-9.9-10.4-29-20.5q13.5-8.6 33.1-0.7z" />
				<g id="&lt;Group&gt;">
					<g id="&lt;Group&gt;">
						<path id="&lt;Path&gt;" class="s1" d="m12.4 243.3q1.4-9.4 25.4-1.5q-9.1-18-1.9-26.9q7.2-9 24.7 6q-2.2-20.6 10.1-21.6q12.4-1 22.2 34q16.3-23.6 23.8-15.7c0.9 1 1.7 2.3 2.3 4.3q5.6 18.2-8.9 43q30.3 50.4 74.9 51l28.5 31.4l-52.9 42.8c-8.3-0.2-16-1.2-23-3q-65.9-16.3-76.3-92.2c-25.3-1.7-27.8-27.1-27.9-28.7q0 0 0-0.1q-22.3-13.4-21-22.8z" />
						<path id="&lt;Path&gt;" class="s2" d="m87.3 233.5c-5.1 0.9-9.9 2.1-14.5 3.6q-7 2.2-13.3 5.7c-4.2 2.3-8.2 5.1-11.9 8.2c-3.8 3.2-7.2 6.7-10.8 10.4c1.6-4.9 4.3-9.4 7.7-13.5c3.5-3.9 7.7-7.3 12.3-9.9c4.7-2.6 9.8-4.3 15-5.1c2.6-0.4 5.2-0.6 7.8-0.5c2.6 0.1 5.2 0.3 7.7 1.1z" />
					</g>
					<path id="&lt;Path&gt;" class="s2" d="m65.7 284.6q13.8 71.5 77.3 70.3c43.9-0.8 16 19.3-5.4 32.2q-65.9-16.3-76.3-92.2c-25.3-1.7-27.8-27.1-27.9-28.7c0.4 1.5 7.9 25.1 32.3 18.4z" />
				</g>
				<path id="&lt;Path&gt;" class="s3" d="m116.7 217.6c0.9 1 1.7 2.3 2.3 4.3q5.6 18.2-8.9 43q30.3 50.4 74.9 51q-52.1 3.4-82.2-49.9q16.2-24 13.9-48.4z" />
			</g>
			<g id="&lt;Group&gt;">
				<g id="&lt;Group&gt;">
					<g id="&lt;Group&gt;">
						<path id="&lt;Path&gt;" class="s1" d="m228.3 577.7c-29.5 13.4-37.3 46.3-46.2 58.5c-3.4 4.7-12.5 7.1-22.4 8.3q-16.3 1.9-35 0.7c-3.6 1.7-6.9 2.7-10 3.1q-15.6 2.3-23.4-9.8c-0.3 0-4.8-0.1-10-1.7c-8.3-2.6-18-9.5-12.9-27.3q9.9-34.5 57.4-36.8l11.5-53.4q0-0.1 0-0.1l6.9-31.7l34-11.7l52.9 7.2q8.8 26.8 10.7 52.2c1.5 18.8-0.9 36.8-13.5 42.5z" />
						<path id="&lt;Path&gt;" class="s4" d="m91.3 638.5c-0.3 0-4.8-0.1-10-1.7q-0.7-36.5 20.2-39.6q-16.4 8.8-10.2 41.3z" />
						<path id="&lt;Path&gt;" class="s4" d="m124.7 645.2c-3.6 1.7-6.9 2.7-10 3.1q-4.4-27 11.5-39.4q-8.7 14.7-1.5 36.3z" />
					</g>
					<path id="&lt;Path&gt;" class="s0" d="m77.2 633.9q-10.4-4.2-23.9 7q-4.4-31.3 19.6-34.5q10.5 13.7 4.3 27.5z" />
					<path id="&lt;Path&gt;" class="s0" d="m106.8 647.4q-10.4-4.2-24 7q-4.4-31.3 19.6-34.5q10.5 13.7 4.4 27.5z" />
					<path id="&lt;Path&gt;" class="s0" d="m142.3 645.1q-12.4-3.4-26.2 11.3q-9.5-34.8 17.3-41.9q13.9 14 8.9 30.6z" />
				</g>
				<path id="&lt;Path&gt;" class="s5" d="m228.3 577.7c-29.5 13.4-37.3 46.3-46.2 58.5c-3.4 4.7-12.5 7.1-22.4 8.3c10.4-14 22.3-37.6 1.9-56.1c-30.4-27.5-24.5-67.6-24.3-69.1q0-0.1 0-0.1l57.7-7.7q26.1 12.3 46.8 23.7c1.5 18.8-0.9 36.8-13.5 42.5z" />
			</g>
			<g id="&lt;Group&gt;">
				<g id="&lt;Group&gt;">
					<g id="&lt;Group&gt;">
						<path id="&lt;Path&gt;" class="s1" d="m489.5 655.8c-5.3 1-9.8 0.4-10.1 0.4q-9.3 11-24.5 6.7c-3-0.9-6.1-2.3-9.5-4.5q-12.1-0.7-25.1-3.1c-13.1-2.5-27-6.5-30.6-13.2c-7.3-13.3-10.7-46.9-38.2-64c-16.7-10.4-9.6-42.9-1.4-66.8q5.3-15.5 11-27.5l40.4-0.2l13-0.1l27.7 13.9l4.5 2.2l7.1 86.9q46.7 8.4 52.1 44c2.7 18.3-7.8 23.8-16.4 25.3z" />
						<path id="&lt;Path&gt;" class="s4" d="m474.7 614q20.3 5.7 14.8 41.8c-5.3 1-9.8 0.4-10.1 0.4q10.4-31.4-4.7-42.2z" />
						<path id="&lt;Path&gt;" class="s4" d="m448.7 622.3q14.2 14.4 6.2 40.6c-3-0.9-6.1-2.3-9.5-4.5q10-20.4 3.3-36.1z" />
					</g>
					<path id="&lt;Path&gt;" class="s0" d="m501.8 626.8q23.4 6.3 15 36.8q-12-13-22.9-10.1q-4.3-14.5 7.9-26.7z" />
					<path id="&lt;Path&gt;" class="s0" d="m472 635.4q23.4 6.3 15 36.8q-12-12.9-22.9-10.1q-4.3-14.5 7.9-26.7z" />
					<path id="&lt;Path&gt;" class="s0" d="m440.8 626.9q25.6 10.5 11.7 43.9q-11.8-16.4-24.5-14.7q-2.8-17.1 12.8-29.2z" />
				</g>
				<path id="&lt;Path&gt;" class="s3" d="m505.9 630.5q-16.2-33.8-60.5-38.2l-3.2-81.3v-13.6l4.5 2.2l7.1 86.9q46.7 8.4 52.1 44z" />
				<path id="&lt;Path&gt;" class="s5" d="m420.3 655.3c-13.1-2.5-27-6.5-30.6-13.2c-7.3-13.3-10.7-46.9-38.2-64c-16.7-10.4-9.6-42.9-1.4-66.8l51.4-27.7l30.4 27.2q-6 44.6-24.6 78c-12 21.5 1.7 49.4 13 66.5z" />
			</g>
			<g id="&lt;Group&gt;">
				<path id="&lt;Path&gt;" class="s1" d="m392.5 49.5c1.1 29.1-22.2 53.1-51.1 53.1c-18.2 0-34.2-9.6-43.3-24c-2.1-3.3-6.6-4.3-9.8-1.9q0 0 0 0c-27.7 20.7-43.3 60.9-46.5 119.4l-21.9-1.2c3.5-65.5 22.2-111.3 55.5-136c3.9-2.9 7.8-5.3 11.7-7.4c2-1.1 3.2-3.1 3.5-5.4c2.7-25.9 24.7-46.1 51.4-45.7c27.1 0.3 49.5 22.1 50.5 49.1z" />
				<path id="&lt;Path&gt;" class="s2" d="m341.4 102.6c-18.2 0-34.2-9.6-43.3-24c-2.1-3.3-6.6-4.3-9.8-1.9q0 0 0 0c-27.7 20.7-43.3 60.9-46.5 119.4l-21.9-1.2q0.1-2.7 0.3-5.4l20.5 1.1c3.2-58.5 18.8-98.7 46.5-119.4q0 0 0 0c3.2-2.4 7.7-1.4 9.8 2c9.1 14.3 25.1 23.9 43.3 23.9c28.9 0 52.2-24 51.1-53.1q-0.1-2.6-0.4-5.2q1.3 5.2 1.5 10.7c1.1 29.1-22.2 53.1-51.1 53.1z" />
				<path id="&lt;Path&gt;" class="s3" d="m385.1 24.9c-9.2-12.7-24.2-21.1-40.9-21.3c-26.7-0.3-48.7 19.9-51.4 45.8c-0.3 2.3-1.5 4.3-3.5 5.4q-5.9 3.1-11.7 7.4c-32.8 24.3-51.4 69-55.4 132.8l-2.3-0.1c3.5-65.5 22.2-111.3 55.5-136q5.8-4.3 11.7-7.4c2-1.1 3.3-3.1 3.5-5.4c2.7-25.9 24.7-46.1 51.4-45.8c18.1 0.3 34.2 10.1 43.1 24.6z" />
				<path id="&lt;Path&gt;" class="s6" d="m383.8 51.5c0 23.4-19 42.4-42.4 42.4c-23.4 0-42.4-19-42.4-42.4c0-23.4 19-42.4 42.4-42.4c23.4 0 42.4 19 42.4 42.4z" />
				<path id="&lt;Path&gt;" class="s7" d="m365.6 54.9c0 12.5-10.1 22.7-22.7 22.7c-12.5 0-22.6-10.2-22.6-22.7c0-12.5 10.1-22.7 22.6-22.7c12.6 0 22.7 10.2 22.7 22.7z" />
				<path id="&lt;Path&gt;" class="s8" d="m354.4 54.9c0 6.3-5.1 11.5-11.5 11.5c-6.3 0-11.4-5.2-11.4-11.5c0-6.3 5.1-11.4 11.4-11.4c6.4 0 11.5 5.1 11.5 11.4z" />
				<path id="&lt;Path&gt;" class="s6" d="m340.8 46.6c0 3.1-2.5 5.7-5.7 5.7c-3.1 0-5.7-2.6-5.7-5.7c0-3.2 2.6-5.7 5.7-5.7c3.2 0 5.7 2.5 5.7 5.7z" />
			</g>
			<g id="&lt;Group&gt;">
				<path id="&lt;Path&gt;" class="s1" d="m456.8 484.7c-9.9 35.6-26.7 61.4-47.6 79.6c-61.3 53.3-157.4 40.2-216.5 11.3c-25.7-12.6-44.4-28.1-50.1-42.4c-23.4-58.5-11.7-63 3.8-175.5c8.6-61.9-32.2-200.6 116.5-227.3c153.1-27.5 245.7 168.8 193.9 354.3z" />
				<path id="&lt;Path&gt;" class="s3" d="m456.8 484.7c-14.4 51.7-43.4 82.9-78.2 99.7c29.8-18.6 54.2-49 67.1-95.5c40.2-143.9-3.6-294.1-94.8-348.3c97.8 44.6 146.8 197.7 105.9 344.1z" />
				<path id="&lt;Path&gt;" class="s2" d="m357.8 592.6c-88 27.6-199.6-20.4-215.2-59.4c-23.4-58.5-11.7-63 3.8-175.5c8.6-61.9-32.2-200.6 116.5-227.3q4.3-0.8 8.6-1.3c-121.8 36.2-85.8 163.5-93.9 222c-15.6 112.4-27.2 116.9-3.8 175.4c13.8 34.6 102.7 76.1 184 66.1z" />
			</g>
			<path id="&lt;Path&gt;" class="s9" d="m215.4 143.1c5.8-30.8 35.2-22.4 47-40.1q11.8-17.7 22.6-17.8q-7 8.8-6.7 16.9q20.3-13.9 28.7-4.6q-10.9 5.3-13.9 15.7q28.2-6.5 36.3 18.3q-10-5.9-18.4-0.9q16.4 14.1 3.3 34.1q-7.7-15.8-21.3-20q1.6 22.2-11.9 29.2q-0.8-16.3-11.6-21.3c-10.7-5.1-15.2 10.3-34.7 5q-19.8-5.5-19.4-14.5z" />
			<path id="&lt;Path&gt;" class="s10" d="m271.1 117.6q-2.2-4.2 2.3-7.3q-0.2 2.7 5.1 7.5q2.1-6 7.3-2.5q-1.7 4.4 0.7 8.9q8.6 0.2 12 10.5q-7.6-5.1-13.8-0.7q2.1 4.5-0.4 10.9c-19.4-16.9-46.5 14.6-57.7 1.8q-11.1-12.8 20.3-27.6q18.2-6 24.2-1.5z" />
			<g id="&lt;Group&gt;">
				<g id="&lt;Group&gt;">
					<path id="&lt;Path&gt;" class="s6" d="m248.5 356.5q0 4.1-0.2 7l-2.6-0.1q-6.6-3-12.7-6.8l-2.7-1.7q-1.4-0.9-2.7-1.9l-2.6-1.9c-0.9-0.7-1.7-1.4-2.5-2.1q-0.7-0.6-1.4-1.3l-0.8-2.3q0.2-0.3 0.6-0.9c2.5-3.3 12.1-15.4 20.1-15.3c6.6 0.1 7.5 17.3 7.5 27.3z" />
					<path id="&lt;Path&gt;" class="s6" d="m395.7 345.4l-0.4 1.3q-1.3 1.2-2.6 2.3c-0.8 0.7-1.6 1.4-2.5 2.1l-2.6 1.9q-1.2 1-2.6 1.9l-2.7 1.7c-4.2 2.6-8.5 4.8-12.9 6.8l-1.7 0.1q-0.2-3-0.2-7.2c0-10 1-27 7.5-27.1c7.8-0.1 17.1 11.3 19.9 15q0.5 0.7 0.8 1.2z" />
					<g id="&lt;Group&gt;">
						<path id="&lt;Path&gt;" class="s4" d="m366.2 259.2c0 38.4-31.1 69.5-69.5 69.5c-38.4 0-69.5-31.1-69.5-69.5c0-38.4 31.1-69.5 69.5-69.5c38.4 0 69.5 31.1 69.5 69.5z" />
						<path id="&lt;Path&gt;" class="s6" d="m373.4 251.9c0 38.4-31.1 69.5-69.4 69.5c-38.4 0-69.5-31.1-69.5-69.5c0-38.3 31.1-69.5 69.5-69.5c38.3 0 69.4 31.2 69.4 69.5z" />
						<path id="&lt;Path&gt;" class="s7" d="m343.6 257.5c0 20.6-16.6 37.2-37.2 37.2c-20.5 0-37.1-16.6-37.1-37.2c0-20.5 16.6-37.1 37.1-37.1c20.6 0 37.2 16.6 37.2 37.1z" />
						<path id="&lt;Path&gt;" class="s8" d="m325.2 257.5c0 10.4-8.4 18.8-18.8 18.8c-10.3 0-18.7-8.4-18.7-18.8c0-10.3 8.4-18.7 18.7-18.7c10.4 0 18.8 8.4 18.8 18.7z" />
						<path id="&lt;Path&gt;" class="s6" d="m303 243.9c0 5.1-4.2 9.3-9.4 9.3c-5.1 0-9.3-4.2-9.3-9.3c0-5.2 4.2-9.4 9.3-9.4c5.2 0 9.4 4.2 9.4 9.4z" />
					</g>
					<path id="&lt;Path&gt;" class="s4" d="m401.5 339.7q-0.1 0.1-0.2 0.3c-1.9 2.3-3.9 4.6-6 6.7q-1.3 1.2-2.6 2.3c-0.8 0.7-1.6 1.4-2.5 2.1l-2.6 1.9q-1.2 1-2.6 1.9l-2.7 1.7c-4.2 2.6-8.5 4.8-12.9 6.8q-5.3 2.3-10.7 4.2c-16.4 5.5-33.8 7.9-51.1 8c-17.3 0-34.6-2.5-51.1-8q-5.5-1.9-10.8-4.2q-6.6-3-12.7-6.8l-2.8-1.7q-1.3-0.9-2.6-1.9l-2.6-1.9c-0.9-0.7-1.7-1.4-2.5-2.1q-0.7-0.6-1.4-1.3c-2.6-2.3-5-5-7.1-7.7q0 0 0 0q-0.2-0.2-0.3-0.3q1.3 0.9 2.6 1.8l1.3 0.9q0.6 0.5 1.3 0.9l2 1.2l0.6 0.5c0.9 0.5 1.9 1 2.8 1.5c0.9 0.5 1.8 1 2.7 1.5l2.8 1.3c1.8 1 3.8 1.7 5.6 2.5q6.4 2.7 13.1 4.7q5.1 1.6 10.4 2.8c16 3.7 32.3 5.2 48.7 5.3c16.4 0 32.8-1.6 48.7-5.3q5.7-1.3 11.2-3q6.3-1.9 12.3-4.4c1.9-0.9 3.8-1.6 5.6-2.6l2.8-1.3c1-0.5 1.9-1 2.8-1.5c0.9-0.5 1.8-1 2.7-1.5l1.2-0.8l1.4-0.9q0.7-0.4 1.4-0.9l1.2-0.9q1.3-0.9 2.6-1.8z" />
					<path id="&lt;Path&gt;" class="s3" d="m401.5 339.7q-0.1 0.1-0.2 0.3q-0.8 0.7-1.6 1.3c-0.9 0.7-1.8 1.4-2.7 2.1l-2.8 1.9q-1.4 1-2.9 1.9l-2.9 1.7c-4.5 2.6-9.2 4.9-14 6.8q-5.6 2.3-11.5 4.2c-17.8 5.5-36.6 7.9-55.3 8c-18.7 0-37.5-2.5-55.3-8q-5.9-1.9-11.6-4.2q-7.2-2.9-13.8-6.7l-3-1.8q-1.5-0.9-2.9-1.9l-2.8-1.9c-0.9-0.7-1.8-1.4-2.6-2.1q-0.8-0.6-1.6-1.3q0 0 0 0q-0.2-0.2-0.3-0.3q1.3 0.9 2.6 1.8l1.3 0.9q0.6 0.5 1.3 0.9l2 1.2l0.6 0.5c0.9 0.5 1.9 1 2.8 1.5c0.9 0.5 1.8 1 2.7 1.5l2.8 1.3c1.8 1 3.8 1.7 5.6 2.5q6.4 2.7 13.1 4.7q5.1 1.6 10.4 2.8c16 3.7 32.3 5.2 48.7 5.3c16.4 0 32.8-1.6 48.7-5.3q5.7-1.3 11.2-3q6.3-1.9 12.3-4.4c1.9-0.9 3.8-1.6 5.6-2.6l2.8-1.3c1-0.5 1.9-1 2.8-1.5c0.9-0.5 1.8-1 2.7-1.5l1.2-0.8l1.4-0.9q0.7-0.4 1.4-0.9l1.2-0.9q1.3-0.9 2.6-1.8z" />
				</g>
				<path id="&lt;Path&gt;" class="s4" d="m382.1 380.2c-10.2 8.4-22.2 14.6-34.9 18.8c-12.7 4.2-26.1 6.3-39.6 6.4c-13.5-0.1-26.9-2.2-39.6-6.4c-12.7-4.2-24.7-10.3-34.9-18.7c12.4 4.3 24.7 8 37.1 10.4c12.4 2.4 24.9 3.6 37.4 3.7c12.5-0.1 25.1-1.3 37.4-3.7c12.5-2.4 24.7-6.1 37.1-10.5z" />
				<g id="&lt;Group&gt;">
					<path id="&lt;Path&gt;" class="s4" d="m327.9 465.8q-0.1-0.1 0 0z" />
					<path id="&lt;Path&gt;" class="s4" d="m360.8 486.6l-10.3 0.3c-3 0.1-6-0.1-9.1-0.7c-3-0.6-6-1.6-8.9-3.1c-2.2-1.1-4.3-2.5-6.2-4.2q-0.9 5.3-1.7 10.6l-1 6.1l-5.9-2c-2.6-0.9-5.1-2.1-7.4-3.5c-2.3-1.4-4.4-3.1-6.4-5q-2.8-2.8-4.9-6.1q-0.2 0.1-0.3 0.2c-2.3 1.8-4.7 3.3-7.2 4.6c-2.5 1.2-5.2 2.1-7.8 2.8q-2 0.6-4 0.9q-1.1 0.2-2.1 0.3l-1.1 0.1c-0.3 0.1-0.6 0.1-1.2 0.1l-6.9 0.4l1.5-6.8c0.4-1.6 0.8-3.3 1.1-5q0.4-2.5 0.6-5.1q0.2-1.1 0.2-2.2q-3 1.1-6.1 1.6c-2.6 0.4-5.2 0.4-7.7 0.1q-1.9-0.2-3.8-0.6q-0.9-0.2-1.9-0.5l-0.9-0.3c-0.4-0.1-0.6-0.2-1.1-0.4l-4.3-1.7l2.4-3.6l2.1-3.3l2.1-3.4q2-3.3 3.9-6.7c1.2-2.3 2.4-4.7 3.5-7.1c0.9-2.4 2-4.8 2.2-7.5c0.4 1.3 0.5 2.7 0.5 4.1c0 1.3-0.1 2.7-0.3 4.1c-0.4 2.7-1 5.4-1.7 8.1q-0.6 1.9-1.2 3.9c-0.4 1.3-0.9 2.6-1.4 3.9q-0.5 1.4-1.1 2.8q0.8 0.1 1.5 0.1q3 0 5.7-0.6q2.7-0.6 5.2-1.9q2.4-1.3 4.4-3.1l7.2-6.7l0.7 10c0.2 2.1 0.2 3.9 0.2 5.9q0 2.9-0.2 5.8q-0.1 1.9-0.3 3.8q2.8-0.8 5.3-2.1q2.8-1.4 5.1-3.3c1.6-1.2 3-2.7 4.2-4.2l6-7.9l3.5 9.4l0.2 0.5l0.3 0.6q0.3 0.7 0.6 1.3q0.7 1.3 1.4 2.5q1.6 2.5 3.7 4.5q1.8 1.9 3.9 3.4l0.7-3.7q0.7-3.5 5.9-21.4l5.7 10.1c0 0 0 0.1 0 0.2l0.2 0.3q0.1 0.3 0.3 0.7q0.4 0.7 0.9 1.4q0.9 1.4 2.1 2.7c1.5 1.7 3.3 3.2 5.3 4.5c2 1.1 4.1 2.1 6.4 2.7q-0.7-1.3-1.2-2.6c-1.5-3.5-2.5-7.2-3.1-11c-0.5-3.7-0.6-7.5-0.2-11.2c0.3-3.6 1.1-7.2 2.3-10.7q-0.4 5.5 0.1 10.8q0.2 2.6 0.8 5.2q0.5 2.5 1.3 5c1 3.3 2.4 6.4 4.1 9.3q1.3 2.2 2.8 4.1q0.7 1 1.5 1.9q0.4 0.5 0.9 0.9c0.2 0.2 0.6 0.6 0.7 0.7z" />
				</g>
			</g>
		</g>
	</g>
</svg>