<svg version="1.2" xmlns="http://www.w3.org/2000/svg" viewBox="0 0 775 872" width="775" height="872">
	<title>vecteezy_happy-halloween-vector-monster-colorful-illustration-flat_-ai</title>
	<style>
		.s0 { fill: #d51a60 } 
		.s1 { fill: #a7013b } 
		.s2 { fill: #04fffc } 
		.s3 { fill: #313f3c } 
		.s4 { fill: #e9ffff } 
		.s5 { fill: #fbb03c } 
		.s6 { fill: #162b3c } 
		.s7 { fill: #92083b } 
	</style>
	<g id="Object">
		<g id="&lt;Group&gt;">
			<g id="&lt;Group&gt;">
				<g id="&lt;Group&gt;">
					<g id="&lt;Group&gt;">
						<path id="&lt;Path&gt;" class="s0" d="m488.6 743l-6.5 91q40.1-0.7 40.1 25.5h-72.2v-116.5z" />
						<path id="&lt;Path&gt;" class="s0" d="m338.8 743v116.5h-72.1q0-26.2 40.1-25.5l-6.6-91z" />
						<path id="&lt;Path&gt;" class="s0" d="m543.8 507.4c-4 18.9-4.3 72.8 0.2 83.9q10.5 26.4 76.6 23.3q7.4-29.4 16.3-30q9-0.5 5.5 16.5q27.2-16.8 28.4 16.6q1.3 33.4-38.5 21.3q-87.6 10.2-111.7-17.4c-12.7-14.5-13.6-84.1-9.7-113.9c14.9 2.7 25.9 1.4 32.9-0.3z" />
						<path id="&lt;Path&gt;" class="s1" d="m245.5 620.3q-137.9 153.4-99.5 30.6c38.4-122.7-22.7-67.5-3.5-169.7c19.2-102.1-101.2-67.2-54.1-149.2c47.2-82.1-5.2-108.2 47.2-228.7q52.3-120.5 257.8-44.1z" />
						<path id="&lt;Path&gt;" class="s0" d="m569.8 654.8c-0.4 77.1-23.6 130.8-169.4 140c-165.9 10.6-211.6-56.4-221.8-142.4c-8.8-74.3 9-162.7-1.1-227.6c-21.9-139.9 9.7-448.6 260.5-352.6c224.7 86.1 137.9 281.9 128.3 433.3c-3.5 54.7 3.7 105.7 3.5 149.3z" />
						<path id="&lt;Path&gt;" class="s2" d="m533.1 296.2c0 31.1-25.2 56.3-56.3 56.3c-31 0-56.2-25.2-56.2-56.3c0-31.1 25.2-56.3 56.2-56.3c31.1 0 56.3 25.2 56.3 56.3z" />
						<path id="&lt;Path&gt;" class="s3" d="m520.5 315.4c0 11.8-9.6 21.3-21.4 21.3c-11.7 0-21.3-9.5-21.3-21.3c0-11.8 9.6-21.3 21.3-21.3c11.8 0 21.4 9.5 21.4 21.3z" />
						<path id="&lt;Path&gt;" class="s2" d="m398.9 296.2c0 31.1-25.2 56.3-56.3 56.3c-31.1 0-56.3-25.2-56.3-56.3c0-31.1 25.2-56.3 56.3-56.3c31.1 0 56.3 25.2 56.3 56.3z" />
						<path id="&lt;Path&gt;" class="s3" d="m386.2 315.4c0 11.8-9.5 21.3-21.3 21.3c-11.8 0-21.4-9.5-21.4-21.3c0-11.8 9.6-21.3 21.4-21.3c11.8 0 21.3 9.5 21.3 21.3z" />
						<path id="&lt;Path&gt;" class="s1" d="m373.4 167.2q-55 0-93.6 64.8q2.6-97.5 93.6-64.8z" />
						<path id="&lt;Path&gt;" class="s1" d="m434.7 167.2q55 0 93.6 64.8q-2.6-97.5-93.6-64.8z" />
						<path id="&lt;Path&gt;" class="s4" d="m406.6 415l-3.7 16.3c-7-1-13.4-2.7-19.2-5l3.6-15.7z" />
						<path id="&lt;Path&gt;" class="s4" d="m435.2 430.8c-5.6 1-11.6 1.6-17.8 1.6q-1 0-2-0.1l-1.5-17.1l19.8-1.8z" />
						<path id="&lt;Path&gt;" class="s5" d="m571.2 653.6c0 20.9-1.6 40.1-7 57.2c-14.3 45.9-55.3 76.5-161.5 83.9c-126.5 8.8-183.4-27.9-208-83.9c-7.6-17.5-12.2-36.8-14.7-57.2z" />
						<path id="&lt;Path&gt;" class="s5" d="m460 663c6.9-37.8 30.5-122 106.9-170.4c2.1-1.3 4.8 0 5.2 2.4c1.1 7.3 2.5 21-0.6 33.2c-0.2 0.7-0.6 1.3-1.2 1.7c-7.6 6.4-65.2 56.7-78 138.7c-1.3 8-8.1 13.8-16.2 13.8c-10.3 0-18-9.3-16.1-19.4z" />
						<path id="&lt;Path&gt;" class="s5" d="m270.5 682.4c-8.1 0-15-5.8-16.2-13.8c-12.8-82-70.5-132.3-78.1-138.7c-0.5-0.4-0.9-1-1.1-1.7c-3.1-12.2-1.8-25.9-0.6-33.2c0.3-2.4 3.1-3.7 5.2-2.4c76.3 48.4 100 132.6 106.9 170.4c1.9 10.1-5.9 19.4-16.1 19.4z" />
						<path id="&lt;Path&gt;" class="s6" d="m654.1 550.7v91.7c0 3.3-2.7 5.9-5.9 5.9c-3.2 0-5.9-2.6-5.9-5.9v-91.7c0-3.3 2.7-5.9 5.9-5.9c3.2 0 5.9 2.6 5.9 5.9z" />
						<path id="&lt;Path&gt;" class="s2" d="m706.7 504.7c0 32.3-26.2 58.5-58.5 58.5c-32.3 0-58.5-26.2-58.5-58.5c0-32.3 26.2-58.5 58.5-58.5c32.3 0 58.5 26.2 58.5 58.5z" />
						<path id="&lt;Path&gt;" class="s0" d="m207.2 582.8q-13.5 31.2-23.1 74.8q-5.5 25-13.2 65.9q25.8 8.3 25.7 16.4q-0.1 8-15 3.8q14.6 39.3-15.3 38.3q-29.9-0.9-20-54.6q7.9-58.4 12.2-90.9q4.3-32.2 17.4-75.1z" />
						<path id="&lt;Path&gt;" class="s7" d="m485.4 666.1c0 5.6-4.5 10.1-10.2 10.1c-5.6 0-10.1-4.5-10.1-10.1c0-5.6 4.5-10.2 10.1-10.2c5.7 0 10.2 4.6 10.2 10.2z" />
						<path id="&lt;Path&gt;" class="s7" d="m279.8 666.1c0 5.6-4.5 10.1-10.1 10.1c-5.6 0-10.2-4.5-10.2-10.1c0-5.6 4.6-10.2 10.2-10.2c5.6 0 10.1 4.6 10.1 10.2z" />
						<path id="&lt;Path&gt;" class="s7" d="m359.5 414c7.8 5.8 16.5 9.1 25.4 11.4c4.5 1 9 1.8 13.6 2.3c4.6 0.6 9.1 0.8 13.8 0.8q6.9 0 13.7-0.8q1.7-0.1 3.4-0.4l3.4-0.7c2.2-0.4 4.5-0.7 6.8-1.3c4.4-1.1 8.8-2.4 13.1-4.3c4.3-1.8 8.4-4.1 12.3-7c-2.7 4.1-6.4 7.5-10.4 10.3c-4.1 2.8-8.6 5.1-13.2 6.8c-2.3 0.9-4.7 1.5-7.1 2.2l-3.6 1q-1.8 0.4-3.7 0.7c-4.8 0.8-9.8 1.2-14.7 1.2c-5 0-10-0.3-14.8-1.2c-4.9-0.9-9.7-2.1-14.4-3.9c-9.1-3.5-18.1-9-23.6-17.1z" />
					</g>
					<path id="&lt;Path&gt;" class="s0" d="m671.2 617.3c0 11.5-6.2 20.7-14 20.7c-7.7 0-14-9.2-14-20.7c0-11.5 6.3-20.8 14-20.8c7.8 0 14 9.3 14 20.8z" />
				</g>
				<g id="&lt;Group&gt;">
					<path id="&lt;Path&gt;" class="s7" d="m335.4 603.2c0 10.2-8.2 18.4-18.3 18.4c-10.1 0-18.3-8.2-18.3-18.4c0-10.1 8.2-18.3 18.3-18.3c10.1 0 18.3 8.2 18.3 18.3z" />
					<path id="&lt;Path&gt;" class="s7" d="m383.7 543c0 13.3-10.8 24.2-24.2 24.2c-13.3 0-24.1-10.9-24.1-24.2c0-13.3 10.8-24.2 24.1-24.2c13.4 0 24.2 10.9 24.2 24.2z" />
					<path id="&lt;Path&gt;" class="s7" d="m407 580c0 7.7-6.2 13.9-13.9 13.9c-7.7 0-13.9-6.2-13.9-13.9c0-7.7 6.2-13.9 13.9-13.9c7.7 0 13.9 6.2 13.9 13.9z" />
					<path id="&lt;Path&gt;" class="s7" d="m427.9 599.2c0 4-3.3 7.3-7.3 7.3c-4.1 0-7.4-3.3-7.4-7.3c0-4.1 3.3-7.4 7.4-7.4c4 0 7.3 3.3 7.3 7.4z" />
					<path id="&lt;Path&gt;" class="s7" d="m465.1 551.5c0 10.5-8.5 19-19 19c-10.5 0-19-8.5-19-19c0-10.5 8.5-19 19-19c10.5 0 19 8.5 19 19z" />
					<path id="&lt;Path&gt;" class="s7" d="m375.5 617.3c0 4.4-3.6 8-8 8c-4.4 0-8-3.6-8-8c0-4.4 3.6-8 8-8c4.4 0 8 3.6 8 8z" />
					<path id="&lt;Path&gt;" class="s7" d="m458.7 621.6c0 5.6-4.6 10.2-10.3 10.2c-5.6 0-10.2-4.6-10.2-10.2c0-5.7 4.6-10.3 10.2-10.3c5.7 0 10.3 4.6 10.3 10.3z" />
					<path id="&lt;Path&gt;" class="s7" d="m412.3 638c0 5.8-4.7 10.5-10.5 10.5c-5.7 0-10.4-4.7-10.4-10.5c0-5.7 4.7-10.4 10.4-10.4c5.8 0 10.5 4.7 10.5 10.4z" />
				</g>
			</g>
		</g>
	</g>
</svg>