<svg version="1.2" xmlns="http://www.w3.org/2000/svg" viewBox="0 0 639 815" width="639" height="815">
	<title>vecteezy_happy-halloween-vector-monster-colorful-illustration-flat_-ai</title>
	<style>
		.s0 { fill: #2c8f79 } 
		.s1 { fill: #216a5d } 
		.s2 { fill: #3f120f } 
		.s3 { fill: #e9ffff } 
		.s4 { fill: #343952 } 
		.s5 { fill: #d62666 } 
		.s6 { fill: #f7f7ef } 
		.s7 { fill: #225568 } 
		.s8 { fill: #176d58 } 
		.s9 { fill: #4eaf98 } 
		.s10 { fill: #fbb03c } 
	</style>
	<g id="Object">
		<g id="&lt;Group&gt;">
			<g id="&lt;Group&gt;">
				<path id="&lt;Path&gt;" class="s0" d="m151.3 309.3c8.6 41.4 41.7 130.4 53.3 186c1.4 6.9 4.2 21.1-1 23.9c-6 3.3-19.6-10.4-27.1-18.6c-1.9 5.3-4.2 7.3-6.3 7.8c-10 2.8-25.3-23.7-32-36.3q-6 8.3-10.2 7.5q-9-1.6-10.5-44.5q-4.6 9.2-8.1 8.9q-7.4-0.8-10.5-41.3q-7.4 7.6-11.4 6.1q-9-3.3-0.8-53.2c-11.2-2.7-15.2-8.2-16.6-10.5c-7.7-12.7 0.5-36.6 24.4-55c-4.7 0.3-14.1 0.1-17.4-5.2c-4.5-7.1 2.2-22.6 20-35.8q-9.1-3.9-10.4-9.6q-4.7-19.4 79.4-60.2c-22.5 57.2-21 100.4-14.8 130z" />
				<path id="&lt;Path&gt;" class="s1" d="m292 562.3q-2.2 45.1 1.1 93.9c1.4 21.9 24.7 115-1.4 126.3c-18.3 8-68.7 10.1-71.3-9.9q-2.9-21.9 36.8-27.5q-18.4-65.9-22.2-105.3q-3.9-41.7-2.7-116.3z" />
				<path id="&lt;Path&gt;" class="s1" d="m378.9 523.5q1.2 74.6-2.7 116.3q-3.8 39.4-22.2 105.3q39.7 5.6 36.8 27.5c-2.6 20-53 17.9-71.3 9.9c-26.1-11.3-2.8-104.4-1.4-126.3q3.3-48.8 1.1-93.9z" />
				<g id="&lt;Group&gt;">
					<path id="&lt;Path&gt;" class="s2" d="m400.6 164.9q16.9-100.4 101.7-106.1c84.8-5.6 127.8 118.4 54.3 156.1c-64.2 32.8-89.6-42.3-66.3-47.2c23.3-5 8.1 22.7 34 17c19-4.3 12-53.8-21.3-50.9c-28.4 2.4-43.1 28.9-41 74.9q2.2 45.9-65.7-17.7z" />
					<path id="&lt;Path&gt;" class="s2" d="m219.8 191q-67.9 63.6-65.8 17.7c2.2-46-12.5-72.5-40.9-74.9c-33.3-2.9-40.4 46.6-21.3 50.9c25.9 5.7 10.7-22 34-17c23.3 4.9-2.1 80-66.3 47.2c-73.5-37.7-30.5-161.7 54.3-156.1q84.8 5.7 101.7 106.1z" />
				</g>
				<path id="&lt;Path&gt;" class="s1" d="m373.8 548.7q25.3-14.7 61.3-28.7q25.1-9.7 53.4-22.6q-8.2-21.9-2.7-26.2q5.5-4.3 10.7 8.1q18.7-31.1 34.2-10.4q15.4 20.8-27 43.6q-43 25.6-67.3 40.1q-24.1 14.5-60.2 28.7z" />
				<path id="&lt;Path&gt;" class="s1" d="m239.8 581.3q-36-14.2-60.2-28.7q-24.3-14.5-67.2-40.1q-42.5-22.8-27-43.6q15.4-20.7 34.1 10.4q5.2-12.4 10.7-8.1q5.5 4.3-2.7 26.2q28.4 12.9 53.4 22.6q36.1 14 61.4 28.7z" />
				<path id="&lt;Path&gt;" class="s0" d="m391.8 643.4c-8.3 37.8-41.8 66.8-82.7 66.9h-1q-1.9 0-3.7 0c-40.9-0.3-74.5-29.2-82.8-66.9c-1.8-8.2-2.4-16.8-1.7-25.7l1.1-13.1l6.1-72.5l0.4-4.3h158.5l6.4 76.3l1.1 13.6c0.8 8.9 0.1 17.5-1.7 25.7z" />
				<path id="&lt;Path&gt;" class="s0" d="m523.7 340.3c0 119-96.5 215.6-215.6 215.6c-119.1 0-215.6-96.6-215.6-215.6c0-119.1 96.5-215.6 215.6-215.6c119.1 0 215.6 96.5 215.6 215.6z" />
				<path id="&lt;Path&gt;" class="s0" d="m411.7 589q-2.7 2.8-14.4-3.2q12.7 40.7 8.5 42.5q-2.2 0.9-9.1-9.2q2.4 6 4.3 11.1c2.4 6.4-2.4 13.2-9.2 13.2c-8.3 37.8-41.8 66.8-82.7 66.9h-1q-1.9 0-3.7 0c-40.9-0.3-74.5-29.2-82.8-66.9c-5.4 0-9.3-5.3-7.7-10.5q0.7-2.2 1.4-4.6q-9.2 8-11.1 6.5q-2.5-1.8 7.2-19.6q-4.3 1.6-5.7 0.2q-2.9-3 9-20.5c-4.9-1.6-6.7-4.4-7.2-5.4c-3.2-6.1 0.6-16.4 10.9-23.6c-3.1 0.7-7.1 1.2-8.7-0.9c-4.6-5.5 11-25.5 15.5-30.7q0.9-1.2 1.9-2.2q2.1-2.3 4.4-4.3c37.5-34.2 119.4-40.5 156-4.9c9.2 8.9 22.5 27.3 19 31.4c-1.8 2.1-7.7 0.1-12.4-1.9q22.4 31.8 17.6 36.6z" />
				<path id="&lt;Path&gt;" class="s3" d="m425.1 321.5c0 59.6-48.3 108-107.9 108c-59.6 0-107.9-48.4-107.9-108c0-4.9 0.3-9.9 1-14.7c7.2-52.6 52.3-93.2 106.9-93.2c54.6 0 99.7 40.6 106.9 93.2c0.7 4.8 1 9.8 1 14.7z" />
				<path id="&lt;Path&gt;" class="s4" d="m371.8 331.9c0 30.1-24.5 54.6-54.6 54.6c-30.2 0-54.6-24.5-54.6-54.6c0-30.2 24.4-54.6 54.6-54.6c30.1 0 54.6 24.4 54.6 54.6z" />
				<g id="&lt;Group&gt;">
					<path id="&lt;Path&gt;" class="s2" d="m385.6 445.3c0 20.5-9 38.9-23.3 51.4c-12 10.6-27.8 17-45.1 17c-17.3 0-33.1-6.4-45.1-17c-14.3-12.5-23.3-30.9-23.3-51.4z" />
					<path id="&lt;Path&gt;" class="s5" d="m362.3 496.7c-12 10.6-27.8 17-45.1 17c-17.3 0-33.1-6.4-45.1-17c12-10.6 27.8-17 45.1-17c17.3 0 33.1 6.4 45.1 17z" />
					<g id="&lt;Group&gt;">
						<path id="&lt;Path&gt;" class="s6" d="m291.7 445.3c-4.4 34.1-21 34.1-25.4 0z" />
						<path id="&lt;Path&gt;" class="s6" d="m368 445.3c-4.3 34.1-21 34.1-25.3 0z" />
					</g>
				</g>
				<path id="&lt;Path&gt;" class="s3" d="m333.3 675.1c0 16.1-13 29.1-29.1 29.1c-16 0-29.1-13-29.1-29.1c0-16 13.1-29.1 29.1-29.1c16.1 0 29.1 13.1 29.1 29.1z" />
				<path id="&lt;Path&gt;" class="s7" d="m321 681.2c0 9.2-7.5 16.7-16.8 16.7c-9.2 0-16.7-7.5-16.7-16.7c0-9.3 7.5-16.7 16.7-16.7c9.3 0 16.8 7.4 16.8 16.7z" />
				<path id="&lt;Path&gt;" class="s3" d="m315.2 675.3c0 3.1-2.6 5.7-5.8 5.7c-3.1 0-5.7-2.6-5.7-5.7c0-3.2 2.6-5.7 5.7-5.7c3.2 0 5.8 2.5 5.8 5.7z" />
				<g id="&lt;Group&gt;">
					<path id="&lt;Path&gt;" class="s8" d="m361.7 188.8c0 7.9-6.4 14.3-14.3 14.3c-7.9 0-14.2-6.4-14.2-14.3c0-7.8 6.3-14.2 14.2-14.2c7.9 0 14.3 6.4 14.3 14.2z" />
					<path id="&lt;Path&gt;" class="s8" d="m292 156.2c0 11.1-9 20-20 20c-11.1 0-20-8.9-20-20c0-11 8.9-20 20-20c11 0 20 9 20 20z" />
					<path id="&lt;Path&gt;" class="s8" d="m312 179.9c0 2.7-2.2 4.8-4.9 4.8c-2.7 0-4.9-2.1-4.9-4.8c0-2.7 2.2-4.9 4.9-4.9c2.7 0 4.9 2.2 4.9 4.9z" />
					<path id="&lt;Path&gt;" class="s8" d="m240.9 153.4c0 3.5-2.9 6.4-6.4 6.4c-3.6 0-6.5-2.9-6.5-6.4c0-3.6 2.9-6.5 6.5-6.5c3.5 0 6.4 2.9 6.4 6.5z" />
					<path id="&lt;Path&gt;" class="s8" d="m328.7 150.6c0 4.7-3.8 8.5-8.6 8.5c-4.7 0-8.5-3.8-8.5-8.5c0-4.8 3.8-8.6 8.5-8.6c4.8 0 8.6 3.8 8.6 8.6z" />
					<path id="&lt;Path&gt;" class="s8" d="m371.9 153c0 7.8-6.4 14.2-14.3 14.2c-7.9 0-14.3-6.4-14.3-14.2c0-7.9 6.4-14.3 14.3-14.3c7.9 0 14.3 6.4 14.3 14.3z" />
					<path id="&lt;Path&gt;" class="s8" d="m396.3 167.2c0 5.5-4.4 9.9-9.9 9.9c-5.4 0-9.8-4.4-9.8-9.9c0-5.4 4.4-9.9 9.8-9.9c5.5 0 9.9 4.5 9.9 9.9z" />
				</g>
				<path id="&lt;Path&gt;" class="s9" d="m424.1 306.8h-213.8c7.2-52.6 52.3-93.2 106.9-93.2c54.6 0 99.7 40.6 106.9 93.2z" />
				<g id="&lt;Group&gt;">
					<path id="&lt;Path&gt;" class="s0" d="m281 60.3c-30.6-20.1 2.6-51.5 34-16.6q31.4 34.9-7.8 92.5c12.2-45.4 4.3-55.8-26.2-75.9z" />
					<path id="&lt;Path&gt;" class="s0" d="m274.7 102.5c-21.7-2.6-12.4-28.2 13.7-18q26.1 10.2 20.5 51.5c-5.6-27.5-12.6-31-34.2-33.5z" />
				</g>
				<path id="&lt;Path&gt;" class="s0" d="m453.8 179.3q84.1 40.8 79.5 60.2q-1.4 5.7-10.5 9.6c17.8 13.2 24.5 28.7 20.1 35.8c-3.4 5.3-12.8 5.5-17.5 5.2c23.9 18.4 32.1 42.3 24.5 55c-1.4 2.3-5.4 7.8-16.6 10.5q8.1 49.9-0.9 53.2q-4 1.5-11.3-6.1q-3.2 40.5-10.5 41.3q-3.6 0.3-8.2-8.9q-1.5 42.9-10.5 44.5q-4.2 0.8-10.1-7.5c-6.8 12.6-22.1 39.1-32.1 36.3c-2.1-0.5-4.4-2.5-6.2-7.8c-7.6 8.2-21.2 21.9-27.2 18.6c-5.1-2.8-2.4-17-1-23.9c11.6-55.6 44.8-144.6 53.4-186c6.2-29.6 7.6-72.8-14.9-130z" />
				<path id="&lt;Path&gt;" class="s10" d="m391.8 643.4c-8.3 37.8-41.8 66.8-82.7 66.9h-1q-1.9 0-3.7 0c-40.9-0.3-74.5-29.2-82.8-66.9z" />
			</g>
		</g>
	</g>
</svg>