<svg version="1.2" xmlns="http://www.w3.org/2000/svg" viewBox="0 0 665 690" width="665" height="690">
	<title>vecteezy_happy-halloween-vector-monster-colorful-illustration-flat_-ai</title>
	<style>
		.s0 { fill: #f7b615 } 
		.s1 { fill: #d39409 } 
		.s2 { fill: #ffffff } 
		.s3 { fill: #066f96 } 
		.s4 { fill: #16465f } 
		.s5 { fill: #0f1317 } 
		.s6 { fill: #ffc33e } 
		.s7 { fill: #dd9903 } 
		.s8 { fill: #ffc85a } 
	</style>
	<g id="Object">
		<g id="&lt;Group&gt;">
			<g id="&lt;Group&gt;">
				<path id="&lt;Path&gt;" class="s0" d="m227 478.7q15.4-6.5 18.5 32.6c3.1 39-36.1 87.9-69.2 82.7c-33-5.1-74.7-71.2-50.1-87.6c24.5-16.4 30 13 64.4 24q34.4 10.9 28-32z" />
				<path id="&lt;Path&gt;" class="s0" d="m464 490.9q2.6-27.7 25.9 3.7c20.7 27.9 15.5 94-11.5 113.7c-27 19.7-103.2 2.4-97.4-26.5c5.7-28.9 30.4-12 62.5-28.6q32-16.5 28.5-42.4z" />
				<path id="&lt;Path&gt;" class="s0" d="m331.5 83.7c140.5-20.4 271.5 136.7 243.6 284c-27.9 147.3-176.2 164.7-330.3 142.5c-238.4-34.3-225.3-381.3 86.7-426.5z" />
				<path id="&lt;Path&gt;" class="s0" d="m529.9 187.9q27.9 3.3 45.7 31.6l-12.5 3.2q16.8 8.3 24.5 40q7.7 31.8 16.4 39.5q-6.7 1.4-14-5.5q21.2 29.1 4.4 78.7q-16.9 49.6-6.8 57.8q-10.1 0.5-15.4-13.5q-18.5 51.2-82.8 58.6q-64.3 7.4 40.5-290.4z" />
				<path id="&lt;Path&gt;" class="s0" d="m177.2 478.3q-64.3-7.4-82.8-58.6q-5.3 14-15.4 13.5q10.1-8.2-6.7-57.8q-16.9-49.6 4.3-78.7q-7.2 6.9-14 5.5q8.7-7.7 16.4-39.5q7.7-31.7 24.6-40l-12.6-3.2q17.9-28.3 45.8-31.6q104.7 297.8 40.4 290.4z" />
				<g id="&lt;Group&gt;">
					<path id="&lt;Path&gt;" class="s1" d="m447.1 257.6c0 62.8-50.9 113.7-113.8 113.7c-62.8 0-113.7-50.9-113.7-113.7c0-62.8 50.9-113.8 113.7-113.8c62.9 0 113.8 51 113.8 113.8z" />
					<path id="&lt;Path&gt;" class="s0" d="m447.1 241.9c0 62.8-50.9 113.8-113.8 113.8c-62.8 0-113.7-51-113.7-113.8c0-62.8 50.9-113.7 113.7-113.7c62.9 0 113.8 50.9 113.8 113.7z" />
					<path id="&lt;Path&gt;" class="s2" d="m434.7 241.9c0 56-45.4 101.4-101.4 101.4c-55.9 0-101.3-45.4-101.3-101.4c0-56 45.4-101.3 101.3-101.3c56 0 101.4 45.3 101.4 101.3z" />
					<path id="&lt;Path&gt;" class="s3" d="m397.9 252.4c0 35.6-28.9 64.5-64.6 64.5c-35.6 0-64.5-28.9-64.5-64.5c0-35.6 28.9-64.5 64.5-64.5c35.7 0 64.6 28.9 64.6 64.5z" />
					<path id="&lt;Path&gt;" class="s4" d="m363 252.4c0 16.4-13.3 29.7-29.7 29.7c-16.3 0-29.6-13.3-29.6-29.7c0-16.4 13.3-29.7 29.6-29.7c16.4 0 29.7 13.3 29.7 29.7z" />
					<path id="&lt;Path&gt;" class="s2" d="m352.5 212.2c2.1 7-7.3 16-21 20.1c-13.6 4.1-26.4 1.6-28.5-5.4c-2.1-7.1 7.3-16.1 20.9-20.1c13.7-4.1 26.5-1.7 28.6 5.4z" />
					<path id="&lt;Path&gt;" class="s2" d="m366.2 283.9c0 7.1-5.7 12.8-12.7 12.8c-7 0-12.7-5.7-12.7-12.8c0-7 5.7-12.7 12.7-12.7c7 0 12.7 5.7 12.7 12.7z" />
				</g>
				<g id="&lt;Group&gt;">
					<g id="&lt;Group&gt;">
						<path id="&lt;Path&gt;" class="s0" d="m375.8 115.4l-10.5-3.3c0.7-2.3 18-57 61.3-68c29-7.3 62 6.8 98.1 42.2l-7.7 7.9c-33.1-32.5-62.6-45.7-87.6-39.3c-37.4 9.4-53.4 60-53.6 60.5z" />
					</g>
					<g id="&lt;Group&gt;">
						<path id="&lt;Path&gt;" class="s0" d="m555.8 100.5c0 13.4-10.9 24.3-24.4 24.3c-13.4 0-24.3-10.9-24.3-24.3c0-13.5 10.9-24.4 24.3-24.4c13.5 0 24.4 10.9 24.4 24.4z" />
					</g>
				</g>
				<g id="&lt;Group&gt;">
					<g id="&lt;Group&gt;">
						<path id="&lt;Path&gt;" class="s0" d="m212.5 54.9c-25-6.4-54.5 6.8-87.6 39.3l-7.7-7.9c36.1-35.4 69.1-49.5 98.1-42.2c43.3 11 60.6 65.7 61.3 68l-10.5 3.3c-0.2-0.5-16.2-51.1-53.6-60.5z" />
					</g>
					<g id="&lt;Group&gt;">
						<path id="&lt;Path&gt;" class="s0" d="m110.5 76.1c13.4 0 24.3 10.9 24.3 24.4c0 13.4-10.9 24.3-24.3 24.3c-13.5 0-24.4-10.9-24.4-24.3c0-13.5 10.9-24.4 24.4-24.4z" />
					</g>
				</g>
				<path id="&lt;Path&gt;" class="s5" d="m366.6 415c0 21.5-17.4 38.9-38.9 38.9c-21.4 0-38.8-17.4-38.8-38.9c0-15.5 9.1-23.3 22.3-26.5c5-1.2 10.6-1.7 16.5-1.7c6 0 11.6 0.5 16.6 1.7c13.1 3.2 22.3 11 22.3 26.5z" />
				<path id="&lt;Path&gt;" class="s2" d="m344.3 388.5l-2.5 25.3h-28.1l-2.5-25.3c5-1.2 10.6-1.7 16.5-1.7c6 0 11.6 0.5 16.6 1.7z" />
				<path id="&lt;Path&gt;" class="s6" d="m447.1 241.9h-227.5c0-62.8 50.9-113.7 113.7-113.7c62.9 0 113.8 50.9 113.8 113.7z" />
				<g id="&lt;Group&gt;">
					<path id="&lt;Path&gt;" class="s0" d="m329.8 90.6q-14.2-19.3-36.3-19.4q40.9-73.6 36.3 19.4z" />
					<path id="&lt;Path&gt;" class="s0" d="m334.9 90.6q-11.1-74.8 40.9-57.5q-22.3 13.5-40.9 57.5z" />
				</g>
				<path id="&lt;Path&gt;" class="s0" d="m102.1 392.1q-44 41.4-20.6 63.7c23.4 22.3 34.4 49.6 18 43.8c-11.3-4-14.6-9.8-26.7-5.1c-12.2 4.7-9.6 27-21 26.6c-11.2-0.5-4.6-22.6-11.9-25.8c-7.3-3.1-13.6 2.2-20.7-9.3c-7-11.5 17.8-13.8 17.3-38.9c-0.5-25.2 19.6-54 42-71.3c22.5-17.2 32.6 2.3 23.6 16.3z" />
				<path id="&lt;Path&gt;" class="s0" d="m592.2 375.8c22.5 17.3 42.6 46.1 42.1 71.3c-0.6 25.1 24.3 27.4 17.2 38.9c-7 11.5-13.4 6.2-20.6 9.3c-7.3 3.2-0.7 25.3-11.9 25.8c-11.4 0.4-8.9-21.9-21-26.6c-12.2-4.7-15.5 1.1-26.7 5.1c-16.4 5.8-5.4-21.5 18-43.8q23.4-22.3-20.7-63.7c-8.9-14 1.2-33.5 23.6-16.3z" />
				<g id="&lt;Group&gt;">
					<path id="&lt;Path&gt;" class="s7" d="m548 397.1c0 6.4-5.3 11.7-11.7 11.7c-6.5 0-11.7-5.3-11.7-11.7c0-6.5 5.2-11.7 11.7-11.7c6.4 0 11.7 5.2 11.7 11.7z" />
					<path id="&lt;Path&gt;" class="s7" d="m545.3 434.1c0 7.8-6.3 14-14 14c-7.7 0-14-6.2-14-14c0-7.7 6.3-13.9 14-13.9c7.7 0 14 6.2 14 13.9z" />
					<path id="&lt;Path&gt;" class="s7" d="m502.6 432.3c0 10.9-8.9 19.7-19.8 19.7c-10.9 0-19.7-8.8-19.7-19.7c0-10.9 8.8-19.8 19.7-19.8c10.9 0 19.8 8.9 19.8 19.8z" />
					<path id="&lt;Path&gt;" class="s7" d="m512.7 408.8c0 4.1-3.3 7.4-7.4 7.4c-4.1 0-7.4-3.3-7.4-7.4c0-4.1 3.3-7.4 7.4-7.4c4.1 0 7.4 3.3 7.4 7.4z" />
					<path id="&lt;Path&gt;" class="s7" d="m474.2 469.3c0 4.1-3.3 7.4-7.4 7.4c-4.1 0-7.4-3.3-7.4-7.4c0-4 3.3-7.4 7.4-7.4c4.1 0 7.4 3.4 7.4 7.4z" />
					<path id="&lt;Path&gt;" class="s7" d="m517.2 458.4c0 4.1-3.3 7.4-7.4 7.4c-4.1 0-7.4-3.3-7.4-7.4c0-4.1 3.3-7.4 7.4-7.4c4.1 0 7.4 3.3 7.4 7.4z" />
					<path id="&lt;Path&gt;" class="s7" d="m447.7 469.3c0 16-12.9 28.9-28.9 28.9c-16 0-28.9-12.9-28.9-28.9c0-15.9 12.9-28.9 28.9-28.9c16 0 28.9 13 28.9 28.9z" />
				</g>
				<g id="&lt;Group&gt;">
					<g id="&lt;Group&gt;">
						<path id="&lt;Path&gt;" class="s8" d="m105.2 280.4c-1.9-4.8 0.4-10.2 5.1-12.1c4.7-1.9 10.1 0.4 12.1 5.1c1.9 4.8-0.4 10.2-5.1 12.1c-4.8 1.9-10.2-0.4-12.1-5.1z" />
					</g>
					<g id="&lt;Group&gt;">
						<path id="&lt;Path&gt;" class="s8" d="m96.2 252.4c-2.3-5.6 0.4-12.1 6.1-14.3c5.6-2.3 12 0.4 14.3 6c2.3 5.7-0.4 12.1-6.1 14.4c-5.6 2.3-12-0.4-14.3-6.1z" />
					</g>
					<g id="&lt;Group&gt;">
						<path id="&lt;Path&gt;" class="s8" d="m128 241.1c-3.2-8 0.6-17.1 8.6-20.3c8-3.2 17.1 0.6 20.3 8.6c3.2 8-0.6 17.1-8.6 20.3c-8 3.2-17.1-0.6-20.3-8.6z" />
					</g>
					<g id="&lt;Group&gt;">
						<path id="&lt;Path&gt;" class="s8" d="m127.6 261.3c-1.2-3 0.2-6.4 3.2-7.6c3-1.2 6.4 0.2 7.6 3.2c1.2 3-0.3 6.4-3.2 7.6c-3 1.2-6.4-0.2-7.6-3.2z" />
					</g>
					<g id="&lt;Group&gt;">
						<path id="&lt;Path&gt;" class="s8" d="m137.8 205.5c-1.2-2.9 0.2-6.3 3.2-7.6c3-1.2 6.4 0.3 7.6 3.3c1.2 2.9-0.2 6.3-3.2 7.5c-3 1.3-6.4-0.2-7.6-3.2z" />
					</g>
					<g id="&lt;Group&gt;">
						<path id="&lt;Path&gt;" class="s8" d="m109.5 226.3c-1.2-2.9 0.3-6.3 3.3-7.6c2.9-1.2 6.3 0.3 7.5 3.3c1.3 2.9-0.2 6.3-3.2 7.6c-2.9 1.2-6.3-0.3-7.6-3.3z" />
					</g>
					<path id="&lt;Path&gt;" class="s8" d="m157.2 197.7c-4.8-11.7 0.8-25 12.5-29.8c11.7-4.7 25 0.9 29.8 12.6c4.7 11.7-0.9 25-12.6 29.7c-11.7 4.8-25-0.9-29.7-12.5z" />
				</g>
			</g>
		</g>
	</g>
</svg>