<svg version="1.2" xmlns="http://www.w3.org/2000/svg" viewBox="0 0 826 736" width="826" height="736">
	<title>vecteezy_happy-halloween-vector-monster-colorful-illustration-flat_-ai</title>
	<style>
		.s0 { fill: #0e0548 } 
		.s1 { fill: #4f250e } 
		.s2 { fill: #381807 } 
		.s3 { fill: #0f064b } 
		.s4 { fill: #5f4273 } 
		.s5 { fill: #6e5284 } 
		.s6 { fill: #ffffff } 
		.s7 { fill: #212b26 } 
		.s8 { fill: #361f4c } 
	</style>
	<g id="Object">
		<g id="&lt;Group&gt;">
			<g id="&lt;Group&gt;">
				<path id="&lt;Path&gt;" class="s0" d="m479.9 539.1q3.4 64.5-4.4 113.5q53.4-33.4 62.3 13.9h-72.9q-4.5-82.3-10.6-95.1q-6.1-12.8 25.6-32.3z" />
				<path id="&lt;Path&gt;" class="s0" d="m346.1 571.4q-6.1 12.8-10.6 95.1h-72.8q8.9-47.3 62.3-13.9q-7.8-49-4.5-113.5q31.7 19.5 25.6 32.3z" />
				<g id="&lt;Group&gt;">
					<path id="&lt;Path&gt;" class="s1" d="m732.7 394.6q-66-23.8-77.2 19.3q-28.2-33.4-70.4-14.9l-18.6-12.6l7.3-23.5l2.4-7.6q83.8 8.9 158.7-107.6q2.2 57.9 57.8 77.2q-62.3 0.7-60 69.7z" />
					<path id="&lt;Path&gt;" class="s2" d="m792.7 324.9q-44.1-9.7-61.9-60.9q-59 98.9-157 98.9l2.4-7.6q83.8 8.9 158.7-107.6q2.2 57.9 57.8 77.2z" />
					<path id="&lt;Path&gt;" class="s2" d="m687.9 313.4l44.8 81.2l-54.1-75.3z" />
					<path id="&lt;Path&gt;" class="s2" d="m645.3 341.5l10.2 72.4l-20.9-70.1z" />
				</g>
				<g id="&lt;Group&gt;">
					<path id="&lt;Path&gt;" class="s1" d="m33.3 324.9q55.6-19.3 57.9-77.2q74.9 116.5 158.7 107.6l2.4 7.6l7.2 23.5l-18.5 12.6q-42.3-18.5-70.5 14.9q-11.1-43.1-77.1-19.3q2.2-69-60.1-69.7z" />
					<path id="&lt;Path&gt;" class="s2" d="m91.2 247.7q74.9 116.5 158.7 107.6l2.4 7.6q-98.1 0-157.1-98.9q-17.8 51.2-61.9 60.9q55.6-19.3 57.9-77.2z" />
					<path id="&lt;Path&gt;" class="s2" d="m147.4 319.3l-54 75.3l44.8-81.2z" />
					<path id="&lt;Path&gt;" class="s2" d="m191.5 343.8l-21 70.1l10.3-72.4z" />
				</g>
				<g id="&lt;Group&gt;">
					<path id="&lt;Path&gt;" class="s3" d="m530.5 22.9q79 11.3 79.2 91.1q0.2 69.2-77.8 111.7l-45.2-57.9q125.5-58.8 43.8-144.9z" />
					<path id="&lt;Path&gt;" class="s3" d="m334.7 167.8l-45.2 57.9q-78-42.5-77.8-111.7q0.2-79.8 79.2-91.1q-81.7 86.1 43.8 144.9z" />
				</g>
				<path id="&lt;Path&gt;" class="s4" d="m607 456c0 195-392.1 195-392.1 0c0-194.9 87.8-353 196-353c108.3 0 196.1 158.1 196.1 353z" />
				<path id="&lt;Path&gt;" class="s5" d="m516.1 540.5c0 75.9-210.3 75.9-210.3 0c0-76 47.1-137.6 105.1-137.6c58.1 0 105.2 61.6 105.2 137.6z" />
				<g id="&lt;Group&gt;">
					<path id="&lt;Path&gt;" class="s6" d="m443.6 254.3c0 18.1-14.6 32.6-32.6 32.6c-18 0-32.5-14.5-32.5-32.6q-0.1-0.3 0-0.6c0.3-17.7 14.7-31.9 32.5-31.9c17.8 0 32.3 14.2 32.6 31.9q0 0.3 0 0.6z" />
				</g>
				<path id="&lt;Path&gt;" class="s6" d="m524.3 228.5c0 18-14.6 32.6-32.6 32.6c-18 0-32.6-14.6-32.6-32.6c0-18 14.6-32.6 32.6-32.6c18 0 32.6 14.6 32.6 32.6z" />
				<path id="&lt;Path&gt;" class="s7" d="m506.5 231.4c0 8.1-6.6 14.7-14.8 14.7c-8.2 0-14.8-6.6-14.8-14.7c0-8.2 6.6-14.8 14.8-14.8c8.2 0 14.8 6.6 14.8 14.8z" />
				<path id="&lt;Path&gt;" class="s7" d="m426.5 257.3c0 8.2-6.7 14.8-14.8 14.8c-8.2 0-14.8-6.6-14.8-14.8c0-8.2 6.6-14.8 14.8-14.8c8.1 0 14.8 6.6 14.8 14.8z" />
				<g id="&lt;Group&gt;">
					<path id="&lt;Path&gt;" class="s6" d="m363 228.5c0 18-14.6 32.6-32.6 32.6c-18 0-32.6-14.6-32.6-32.6c0-18 14.6-32.6 32.6-32.6c18 0 32.6 14.6 32.6 32.6z" />
				</g>
				<path id="&lt;Path&gt;" class="s7" d="m345.2 232.4c0 8.1-6.7 14.7-14.8 14.7c-8.2 0-14.8-6.6-14.8-14.7c0-8.2 6.6-14.8 14.8-14.8c8.1 0 14.8 6.6 14.8 14.8z" />
				<g id="&lt;Group&gt;">
					<path id="&lt;Path&gt;" class="s6" d="m429.4 367.8v26.9h-39.3v-28c7.7 1.2 15.8 1.9 24.1 1.9q7.8 0 15.2-0.8z" />
					<path id="&lt;Path&gt;" class="s8" d="m505.8 327.7c-3.6 8-9.6 15-16.5 20.6c-6.9 5.6-14.7 10.1-22.9 13.5c-16.5 6.9-34.4 10-52.2 10.1c-17.7-0.1-35.6-3.2-52.1-10c-8.2-3.5-16-8-23-13.6c-3.4-2.9-6.6-5.9-9.4-9.4c-2.8-3.4-5.2-7.2-7-11.2c2.5 3.7 5.3 7 8.3 10c3.1 3 6.5 5.6 10.1 8c7.1 4.8 14.8 8.5 22.9 11.4c8 2.7 16.3 4.9 24.7 6.2c8.5 1.4 17 2 25.5 2c8.6 0.1 17.1-0.7 25.5-2c8.5-1.3 16.8-3.4 24.8-6.2c8.1-2.9 15.8-6.6 22.9-11.4c7.2-4.7 13.5-10.7 18.4-18z" />
				</g>
				<path id="&lt;Path&gt;" class="s8" d="m443.6 253.7h-65.1c0.3-17.7 14.7-31.9 32.5-31.9c17.8 0 32.3 14.2 32.6 31.9z" />
				<path id="&lt;Path&gt;" class="s8" d="m363 228.5h-65.2c0-18 14.6-32.6 32.6-32.6c18 0 32.6 14.6 32.6 32.6z" />
				<path id="&lt;Path&gt;" class="s8" d="m524.3 228.5h-65.2c0-18 14.6-32.6 32.6-32.6c18 0 32.6 14.6 32.6 32.6z" />
			</g>
		</g>
	</g>
</svg>