<svg version="1.2" xmlns="http://www.w3.org/2000/svg" viewBox="0 0 548 657" width="548" height="657">
	<title>New Project</title>
	<style>
		.s0 { fill: #02a484 } 
		.s1 { fill: #005948 } 
		.s2 { fill: #006d58 } 
		.s3 { fill: #44f2d1 } 
		.s4 { fill: #31e8c5 } 
		.s5 { fill: #433352 } 
		.s6 { fill: #625275 } 
		.s7 { fill: #ffffff } 
		.s8 { fill: #992f1d } 
		.s9 { fill: #530700 } 
		.s10 { fill: #600100 } 
		.s11 { fill: #a32440 } 
		.s12 { fill: #fffa9c } 
	</style>
	<g id="&lt;Group&gt;">
		<g id="&lt;Group&gt;">
			<g id="&lt;Group&gt;">
				<g id="&lt;Group&gt;">
					<path id="&lt;Path&gt;" class="s0" d="m424.9 632.2q-1 1.8-2.5 3.7q-5.1 22.5-31.9 15.7q-1.4 1.2-4.4 2.4c-5.5 2.2-16.2 4.6-33.1 0.1c-10.5-2.8-18.3-2.2-24.4-1.7c-9 0.6-14.3 0.9-18.9-11.3c-7.6-19.9 8.4-26.2-0.5-87.2q-0.3-1.9-0.6-4q-10.2-64.7 79.6-53.6q5 13.9 9.8 33.1q0.6 2.3 1.1 4.8c4.5 19.3 8.3 42.9 6.5 63.3q31.8 12.9 19.3 34.7z" />
					<path id="&lt;Path&gt;" class="s1" d="m424.9 632.2q-1 1.8-2.5 3.7q-3.8-12.1-10.6-14.4q6.8-0.7 13.1 10.7z" />
					<path id="&lt;Path&gt;" class="s1" d="m374.9 630q16.4 3.4 15.6 21.6q-1.4 1.2-4.4 2.4c-0.9-18.5-10.6-23.8-11.2-24z" />
				</g>
				<path id="&lt;Path&gt;" class="s2" d="m399.6 530.7q0 1.2-0.5 3.5c-1.9 9.5-10.8 36.8-52.4 61.5c-27.1 16.1-25.6 38.8-18.1 56.7c-9 0.6-14.3 0.9-18.9-11.3c-7.6-19.9 8.4-26.2-0.5-87.2c24.9-22.8 52.7-47.7 54.9-48.1c3.5-0.6 27.3 18.3 33.9 23.6q1 0.8 1.6 1.3z" />
			</g>
			<g id="&lt;Group&gt;">
				<g id="&lt;Group&gt;">
					<path id="&lt;Path&gt;" class="s0" d="m179.7 527.7c-4.6 21.1-13.2 52.8-27.7 75.2q22.1 26.2 0.9 39.7q-1.7 1.1-3.9 2.1q-15 17.5-35.5-1q-1.8 0.4-5 0.1c-5.9-0.6-16.6-3.5-29.4-15.3c-19.7-18.4-35-10.1-32.3-31.7c2.6-20.9 19.4-19.3 39.7-75.8q0.9-2.6 1.9-5.4c5.9-17.6 16.2-26 27.8-29.1q29.4-7.8 67.5 18.7q-1.2 9.1-4 22.5z" />
					<path id="&lt;Path&gt;" class="s1" d="m152.9 642.6q-1.7 1.1-3.9 2.1q2.3-12.5-2.7-17.7q6.4 2.6 6.6 15.6z" />
					<path id="&lt;Path&gt;" class="s1" d="m109.8 617.3q12.9 10.7 3.7 26.4q-1.8 0.4-5 0.1c7.8-16.8 1.6-26 1.3-26.5z" />
				</g>
				<path id="&lt;Path&gt;" class="s2" d="m179.7 527.7c-4.6 21.1-13.2 52.8-27.7 75.2q-27-5.1-65.5-81.9q0.9-2.6 1.9-5.4c5.9-17.6 16.2-26 27.8-29.1q23.7 6.8 49.9 20.8q6.6 9.5 13.6 20.4z" />
			</g>
			<g id="&lt;Group&gt;">
				<g id="&lt;Group&gt;">
					<path id="&lt;Path&gt;" class="s0" d="m526.8 206.1q0 0.1 0 0.1c-0.1 1.6-2.7 26.9-27.9 28.6q-10.4 75.9-76.3 92.3c-7 1.7-14.7 2.8-23.1 3l-52.8-42.8l28.5-31.4q44.6-0.6 74.9-51q-14.5-24.9-8.9-43q5.7-18.2 26.1 11.3q9.8-34.9 22.2-33.9q12.3 1 10.1 21.6q17.5-15 24.7-6.1q7.2 9-1.9 27q24-7.9 25.3 1.5q1.4 9.4-20.9 22.8z" />
					<path id="&lt;Path&gt;" class="s3" d="m455.4 205.2q-30.3 50.4-74.9 51l-28.5 31.4l52.1 42.3q-2.3 0.2-4.6 0.2l-52.8-42.8l28.5-31.5q44.6-0.5 74.9-50.9q-14.5-24.9-8.9-43c1.9-6.1 5.4-6.8 9.3-5.2c-1.7 0.8-3.1 2.5-4 5.5q-5.7 18.2 8.9 43z" />
					<g id="&lt;Group&gt;" style="opacity: .7">
						<path id="&lt;Path&gt;" class="s2" d="m480.6 172.4c2.6-0.1 5.2 0.1 7.8 0.5c5.2 0.8 10.3 2.5 15 5.1c4.6 2.5 8.8 6 12.3 9.9c3.4 4 6.1 8.6 7.7 13.5c-3.6-3.7-7.1-7.3-10.8-10.4c-3.7-3.1-7.7-5.9-11.9-8.2q-6.3-3.5-13.3-5.7c-4.6-1.6-9.4-2.8-14.5-3.6c2.5-0.8 5.1-1 7.7-1.1z" />
					</g>
				</g>
				<g id="&lt;Group&gt;" style="opacity: .7">
					<path id="&lt;Path&gt;" class="s2" d="m526.8 206.2c-0.1 1.6-2.7 26.9-27.9 28.6q-10.4 75.9-76.3 92.3c-21.5-12.9-49.4-33-5.4-32.2q63.5 1.2 77.2-70.4c24.5 6.8 31.9-16.8 32.4-18.3z" />
				</g>
			</g>
			<g id="&lt;Group&gt;">
				<path id="&lt;Path&gt;" class="s0" d="m415.1 503.2c-6.3 13.6-13.6 25.7-21.9 36.4c-55.5 71.4-151.9 77.2-224 48.4c-64.1-25.5-108.9-78.5-88.8-137.1c30.4-88.6 80.1-130 57.5-223c-22.6-93 49.9-157.7 119.1-152.9c165.5 11.5 245.7 236.2 158.1 428.2z" />
				<path id="&lt;Path&gt;" class="s3" d="m415.1 503.2q-2.9 6.2-6 12c77.7-176.6 21.9-377.7-109.9-432.2c136.3 43.4 195.7 245.4 115.9 420.2z" />
				<path id="&lt;Path&gt;" class="s4" d="m393.2 539.6c-55.5 71.4-151.9 77.2-224 48.4c-5.4-23.4-4-49 5.5-73.7c23.9-62.6 90.4-95.4 148.4-73.2c41.2 15.7 67 54.8 70.1 98.5z" />
				<g id="&lt;Group&gt;" style="opacity: .7">
					<path id="&lt;Path&gt;" class="s2" d="m414.4 504.6c-6.1 13.1-13.2 24.7-21.2 35c-55.5 71.4-151.9 77.2-224 48.4c-64.1-25.5-108.9-78.5-88.8-137.1c30.4-88.6 80.1-130 57.5-223c-21.5-88.8 43.6-151.8 109.7-153.1c-43 19.8-75 69.2-59.8 133c20.6 86.4-24.7 124.9-52.4 207.2c-18.3 54.5 22.5 103.7 80.8 127.5c63.2 25.7 147 21.6 198.2-37.9z" />
				</g>
			</g>
			<g id="&lt;Group&gt;">
				<path id="&lt;Path&gt;" class="s5" d="m321.7 106.8q-56.1-40.5-117.8-21.9q-36.9-64.2 41-84.7l-4 29.2q29.7-22.9 75.1-12.4l-27.4 13.8q50.5 4 33.1 76z" />
				<path id="&lt;Path&gt;" class="s6" d="m314.1 87.3q-46.5-38.4-102.9-9.7q2.9-19.1 17.9-31l2.7 6.6q21.2-21.7 66.5-10l-11.4 4.5q23.7 4.3 27.2 39.6z" />
			</g>
			<g id="&lt;Group&gt;">
				<g id="&lt;Group&gt;">
					<path id="&lt;Path&gt;" class="s0" d="m187.1 351.4q0 0-0.1 0.1q-3 3.9-7 7.2l-16.3 13.2l-4.9 4q-2.2 0-4.4-0.2q-88.4-5.3-101.7-101.4q-27.7-1.9-29.7-30.7q-23.8-14.3-22.4-24.3q1.5-10.1 27.1-1.6q-9.7-19.2-2-28.8q7.6-9.6 26.3 6.5q-2.3-22 10.8-23.1q13.2-1 23.7 36.2q21.8-31.4 27.8-12.1q6 19.4-9.5 45.9q32.4 53.8 79.9 54.4c14.2 15.6 14.6 38.7 2.4 54.7z" />
					<path id="&lt;Path&gt;" class="s3" d="m188.3 303.7q-53-0.7-89.1-60.7q17.3-29.5 10.6-51.1q-0.3-0.9-0.6-1.6c2.1 0.5 3.9 2.3 5.1 6.1q6 19.4-9.5 45.9q32.4 53.8 79.9 54.4c3.5 3.8 5.2 8.7 3.6 7z" />
					<g id="&lt;Group&gt;" style="opacity: .7">
						<path id="&lt;Path&gt;" class="s2" d="m80.5 208.8c-5.4 0.9-10.5 2.2-15.5 3.8q-7.4 2.4-14.2 6.1c-4.5 2.5-8.7 5.5-12.7 8.8c-3.9 3.3-7.7 7.1-11.5 11.1c1.7-5.3 4.7-10.1 8.3-14.4c3.7-4.2 8.1-7.9 13.1-10.6c5-2.7 10.4-4.6 15.9-5.4c2.8-0.5 5.6-0.7 8.4-0.6c2.8 0.1 5.6 0.4 8.2 1.2z" />
					</g>
				</g>
				<g id="&lt;Group&gt;" style="opacity: .7">
					<path id="&lt;Path&gt;" class="s2" d="m187.1 351.4q0 0-0.1 0.1c-0.5 0.8-7.2 12.4-23.3 20.4c-2.8 1.4-5.9 2.7-9.3 3.8q-88.4-5.3-101.7-101.4q-27.7-1.9-29.7-30.7q10.8 24.3 36.5 19.2q9.9 80.2 104.6 85.5c10.8 0.6 18.2 1.6 23 3.1z" />
				</g>
			</g>
			<g id="&lt;Group&gt;">
				<g id="&lt;Group&gt;">
					<g id="&lt;Group&gt;">
						<path id="&lt;Path&gt;" class="s2" d="m401.6 228.5c0 23.1-18.7 41.9-41.9 41.9c-23.1 0-41.9-18.8-41.9-41.9c0-23.2 18.8-42 41.9-42c23.2 0 41.9 18.8 41.9 42z" />
						<path id="&lt;Path&gt;" class="s7" d="m406 224.1c0 23.1-18.7 41.9-41.9 41.9c-23.1 0-41.9-18.8-41.9-41.9c0-23.2 18.8-42 41.9-42c23.2 0 41.9 18.8 41.9 42z" />
						<path id="&lt;Path&gt;" class="s8" d="m374.4 227.4c0 12.4-10 22.5-22.4 22.5c-12.4 0-22.4-10.1-22.4-22.5c0-12.3 10-22.4 22.4-22.4c12.4 0 22.4 10.1 22.4 22.4z" />
						<path id="&lt;Path&gt;" class="s9" d="m363.3 227.4c0 6.3-5.1 11.4-11.3 11.4c-6.3 0-11.3-5.1-11.3-11.4c0-6.2 5-11.3 11.3-11.3c6.2 0 11.3 5.1 11.3 11.3z" />
						<path id="&lt;Path&gt;" class="s7" d="m349.9 219.2c0 3.1-2.5 5.6-5.7 5.6c-3.1 0-5.6-2.5-5.6-5.6c0-3.1 2.5-5.6 5.6-5.6c3.2 0 5.7 2.5 5.7 5.6z" />
					</g>
					<g id="&lt;Group&gt;">
						<path id="&lt;Path&gt;" class="s2" d="m335.4 163.9c0 21-17.1 38.1-38.1 38.1c-21 0-38.1-17.1-38.1-38.1c0-21.1 17.1-38.1 38.1-38.1c21 0 38.1 17 38.1 38.1z" />
						<path id="&lt;Path&gt;" class="s7" d="m339.8 158.4c0 21-17.1 38.1-38.1 38.1c-21 0-38.1-17.1-38.1-38.1c0-21.1 17.1-38.1 38.1-38.1c21 0 38.1 17 38.1 38.1z" />
						<path id="&lt;Path&gt;" class="s8" d="m311 161.5c0 11.2-9.1 20.3-20.4 20.3c-11.2 0-20.3-9.1-20.3-20.3c0-11.3 9.1-20.4 20.3-20.4c11.3 0 20.4 9.1 20.4 20.4z" />
						<path id="&lt;Path&gt;" class="s9" d="m300.9 161.5c0 5.6-4.6 10.2-10.3 10.2c-5.6 0-10.2-4.6-10.2-10.2c0-5.7 4.6-10.3 10.2-10.3c5.7 0 10.3 4.6 10.3 10.3z" />
						<path id="&lt;Path&gt;" class="s7" d="m288.7 153.9c0 2.9-2.3 5.2-5.1 5.2c-2.8 0-5.1-2.3-5.1-5.2c0-2.8 2.3-5.1 5.1-5.1c2.8 0 5.1 2.3 5.1 5.1z" />
					</g>
					<g id="&lt;Group&gt;">
						<path id="&lt;Path&gt;" class="s2" d="m288.6 238.7c0 23.1-18.8 41.9-41.9 41.9c-23.2 0-41.9-18.8-41.9-41.9c0-23.2 18.7-41.9 41.9-41.9c23.1 0 41.9 18.7 41.9 41.9z" />
						<path id="&lt;Path&gt;" class="s7" d="m293 234.3c0 23.1-18.8 41.9-41.9 41.9c-23.2 0-41.9-18.8-41.9-41.9c0-23.2 18.7-41.9 41.9-41.9c23.1 0 41.9 18.7 41.9 41.9z" />
						<path id="&lt;Path&gt;" class="s8" d="m261.4 237.7c0 12.4-10.1 22.4-22.5 22.4c-12.3 0-22.4-10-22.4-22.4c0-12.4 10.1-22.4 22.4-22.4c12.4 0 22.5 10 22.5 22.4z" />
						<path id="&lt;Path&gt;" class="s9" d="m250.3 237.7c0 6.2-5.1 11.3-11.4 11.3c-6.2 0-11.3-5.1-11.3-11.3c0-6.3 5.1-11.3 11.3-11.3c6.3 0 11.4 5 11.4 11.3z" />
						<path id="&lt;Path&gt;" class="s7" d="m236.8 229.4c0 3.1-2.5 5.7-5.6 5.7c-3.1 0-5.6-2.6-5.6-5.7c0-3.1 2.5-5.6 5.6-5.6c3.1 0 5.6 2.5 5.6 5.6z" />
					</g>
				</g>
				<g id="&lt;Group&gt;">
					<path id="&lt;Path&gt;" class="s1" d="m283.4 408.1c4.8 1.6 9.6 3 14.4 3.9q7.3 1.4 14.6 1.9c9.8 0.6 19.6 0.1 29.3-1.1c4.8-0.7 9.6-1.5 14.2-2.7c4.7-1.3 9.2-2.9 13.6-4.9c8.7-4.1 16.4-10.2 22.7-18.1c-1.8 4.7-4.6 9.1-8 13c-3.5 4-7.6 7.3-12.1 10c-4.5 2.8-9.3 4.9-14.3 6.5c-5 1.5-10.1 2.6-15.2 3.3c-10.2 1.2-20.6 1.3-30.8-0.5c-5.1-0.8-10.1-2.2-14.9-4c-4.8-1.9-9.4-4.3-13.5-7.3z" />
					<g id="&lt;Group&gt;">
						<path id="&lt;Path&gt;" class="s10" d="m250.2 309.9c10.9 3.7 21.3 6.2 31.1 7.8c7.8 1.3 15.3 1.9 22.3 2.1q7.9 0.2 15.1-0.4c8-0.6 15.4-1.8 22.1-3.3c5.5-1.3 10.6-2.7 15.2-4.4c8.4-2.9 15.3-6.2 20.5-9.1q7.8-4.3 11.9-7.7q17.8 46.7-0.4 78.2c-8.1 14.1-23.6 25.2-51.2 27.5c-21.1 1.8-37.1-1.7-49.2-8.2q-42.5-22.7-37.4-82.5z" />
						<path id="&lt;Path&gt;" class="s11" d="m343.5 352.7c17.7 0 33.7 7.9 44.5 20.4c-8.1 14.1-23.6 25.2-51.2 27.5c-21.1 1.8-37.1-1.7-49.2-8.2c8.1-23.1 30-39.7 55.9-39.7z" />
						<path id="&lt;Path&gt;" class="s12" d="m376.5 302.6c5.1 11.5 4.6 22.8-1.1 25.3c-5.7 2.6-14.4-4.7-19.4-16.2c8.4-2.9 15.3-6.2 20.5-9.1z" />
						<path id="&lt;Path&gt;" class="s12" d="m281.2 318.1q0-0.2 0.1-0.4c7.8 1.3 15.3 1.9 22.3 2.1q0 0.5-0.1 1c-1.5 12.5-7.7 22-13.9 21.2c-6.1-0.7-9.9-11.4-8.4-23.9z" />
						<path id="&lt;Path&gt;" class="s12" d="m340.8 316.1c0.7 11.3-2.9 20.6-8.6 21.3c-5.7 0.7-11.4-7.1-13.5-18c8-0.6 15.4-1.8 22.1-3.3z" />
					</g>
					<path id="&lt;Path&gt;" class="s1" d="m382.6 278.8q-1.8 22.8 23.4 20q-16.8-3.9-23.4-20z" />
					<path id="&lt;Path&gt;" class="s1" d="m255.5 295.3q1.8 22.8-23.5 20q16.8-3.9 23.5-20z" />
				</g>
			</g>
		</g>
	</g>
</svg>