<svg version="1.2" xmlns="http://www.w3.org/2000/svg" viewBox="0 0 665 690" width="665" height="690">
	<title>vecteezy_happy-halloween-vector-monster-colorful-illustration-flat_-ai</title>
	<style>
		.s0 { fill: #1c5274 } 
		.s1 { fill: #f63e4c } 
		.s2 { fill: #cc1b31 } 
		.s3 { fill: #ffffff } 
		.s4 { fill: #66bdc8 } 
		.s5 { fill: #3c6a71 } 
		.s6 { fill: #84021e } 
		.s7 { fill: #e583bb } 
		.s8 { fill: #fcfbfc } 
		.s9 { fill: #d11930 } 
		.s10 { fill: #ff808f } 
	</style>
	<g id="Object">
		<g id="&lt;Group&gt;">
			<g id="&lt;Group&gt;">
				<g id="&lt;Group&gt;">
					<path id="&lt;Path&gt;" class="s0" d="m349.9 119.6c-4-16.5 40.1-75.8 62-73.9c22 1.9 19.1 77.2 17.7 100.6c-1.4 23.4-70.6 10.5-79.7-26.7z" />
					<path id="&lt;Path&gt;" class="s0" d="m124.8 160.6c-1.4-23.4-4.3-98.8 17.7-100.7c21.9-1.9 66 57.5 62 73.9c-9.1 37.3-78.2 50.1-79.7 26.8z" />
				</g>
				<g id="&lt;Group&gt;">
					<path id="&lt;Path&gt;" class="s0" d="m461.3 236.4c-21.5 5.1-42.7-6.3-47.3-25.6c-4.6-19.3 9.1-39 30.6-44.2c21.5-5.1 42.7 6.3 47.3 25.6c4.6 19.2-9.1 39-30.6 44.2z" />
					<path id="&lt;Path&gt;" class="s0" d="m477.4 303.6c-21.5 5.2-42.7-6.3-47.3-25.5c-4.6-19.3 9.1-39.1 30.6-44.2c21.5-5.2 42.7 6.3 47.3 25.5c4.6 19.3-9.1 39.1-30.6 44.2z" />
					<path id="&lt;Path&gt;" class="s0" d="m465.8 373.2c-22-2-38.4-19.6-36.6-39.4c1.8-19.7 21.1-34.1 43.1-32.1c22 2 38.4 19.7 36.6 39.4c-1.8 19.7-21.1 34.1-43.1 32.1z" />
					<path id="&lt;Path&gt;" class="s0" d="m481.1 443.2c-21.5 5.1-42.7-6.3-47.3-25.6c-4.6-19.2 9.1-39 30.6-44.2c21.5-5.1 42.6 6.3 47.2 25.6c4.7 19.2-9 39-30.5 44.2z" />
					<path id="&lt;Path&gt;" class="s0" d="m496 510.9c-21.5 5.1-42.7-6.3-47.3-25.6c-4.6-19.2 9.1-39 30.6-44.2c21.5-5.1 42.7 6.3 47.3 25.6c4.6 19.3-9.1 39-30.6 44.2z" />
				</g>
				<path id="&lt;Path&gt;" class="s1" d="m269.7 103.3c233.6-17.7 225.3 205.1 203.6 316.3c-21.7 111.3 89.6 47.7 89.6 117c0 69.4-285.1 186.2-426.1 20.3c-147.3-173.4-95.3-436.2 132.9-453.6z" />
				<g id="&lt;Group&gt;">
					<path id="&lt;Path&gt;" class="s2" d="m259.8 286.6c0 35-28.4 63.4-63.5 63.4c-35 0-63.4-28.4-63.4-63.4c0-35.1 28.4-63.5 63.4-63.5c35.1 0 63.5 36 63.5 63.5z" />
					<path id="&lt;Path&gt;" class="s1" d="m259.8 279.4c0 35.1-28.4 63.5-63.5 63.5c-35 0-63.4-28.4-63.4-63.5c0-35 28.4-63.4 63.4-63.4c35.1 0 63.5 28.4 63.5 63.4z" />
					<path id="&lt;Path&gt;" class="s3" d="m252.8 279.4c0 31.3-25.3 56.6-56.5 56.6c-31.2 0-56.5-25.3-56.5-56.6c0-31.2 25.3-56.5 56.5-56.5c31.2 0 56.5 25.3 56.5 56.5z" />
					<path id="&lt;Path&gt;" class="s4" d="m232.3 285.3c0 19.9-16.1 36-36 36c-19.9 0-36-16.1-36-36c0-19.9 16.1-36 36-36c19.9 0 36 16.1 36 36z" />
					<path id="&lt;Path&gt;" class="s5" d="m212.9 285.3c0 9.1-7.4 16.5-16.6 16.5c-9.1 0-16.5-7.4-16.5-16.5c0-9.1 7.4-16.6 16.5-16.6c9.2 0 16.6 7.5 16.6 16.6z" />
					<path id="&lt;Path&gt;" class="s3" d="m207 262.9c1.1 3.9-4.1 8.9-11.7 11.2c-7.6 2.2-14.7 0.9-15.9-3c-1.2-4 4.1-9 11.7-11.3c7.6-2.2 14.7-0.9 15.9 3.1z" />
					<path id="&lt;Path&gt;" class="s3" d="m214.7 302.9c0 3.9-3.2 7.1-7.1 7.1c-3.9 0-7.1-3.2-7.1-7.1c0-3.9 3.2-7.1 7.1-7.1c3.9 0 7.1 3.2 7.1 7.1z" />
				</g>
				<g id="&lt;Group&gt;">
					<path id="&lt;Path&gt;" class="s2" d="m413.1 293.8c0 25.5-20.6 46.2-46.1 46.2c-25.5 0-46.2-20.7-46.2-46.2c0-25.5 20.7-46.1 46.2-46.1c25.5 0 46.1 20.6 46.1 46.1z" />
					<path id="&lt;Path&gt;" class="s1" d="m413.1 285.3c0 25.5-20.6 46.2-46.1 46.2c-25.5 0-46.2-20.7-46.2-46.2c0-25.5 20.7-46.2 46.2-46.2c25.5 0 46.1 20.7 46.1 46.2z" />
					<path id="&lt;Path&gt;" class="s3" d="m408.1 285.3c0 22.7-18.4 41.1-41.1 41.1c-22.8 0-41.2-18.4-41.2-41.1c0-22.7 18.4-41.1 41.2-41.1c22.7 0 41.1 18.4 41.1 41.1z" />
					<path id="&lt;Path&gt;" class="s4" d="m393.2 289.5c0 14.5-11.8 26.2-26.2 26.2c-14.5 0-26.2-11.7-26.2-26.2c0-14.4 11.7-26.2 26.2-26.2c14.4 0 26.2 11.8 26.2 26.2z" />
					<path id="&lt;Path&gt;" class="s5" d="m379 289.5c0 6.7-5.4 12.1-12 12.1c-6.7 0-12.1-5.4-12.1-12.1c0-6.6 5.4-12 12.1-12c6.6 0 12 5.4 12 12z" />
					<path id="&lt;Path&gt;" class="s3" d="m374.7 273.2c0.9 2.9-2.9 6.5-8.5 8.2c-5.5 1.6-10.7 0.6-11.5-2.2c-0.9-2.9 2.9-6.5 8.4-8.2c5.6-1.6 10.8-0.6 11.6 2.2z" />
					<path id="&lt;Path&gt;" class="s3" d="m380.3 302.3c0 2.9-2.3 5.2-5.1 5.2c-2.9 0-5.2-2.3-5.2-5.2c0-2.8 2.3-5.1 5.2-5.1c2.8 0 5.1 2.3 5.1 5.1z" />
				</g>
				<g id="&lt;Group&gt;">
					<path id="&lt;Path&gt;" class="s2" d="m341.9 188.9c0 25.9-21 46.8-46.8 46.8c-25.9 0-46.8-20.9-46.8-46.8c0-25.8 20.9-46.8 46.8-46.8c25.8 0 46.8 21 46.8 46.8z" />
					<path id="&lt;Path&gt;" class="s1" d="m341.9 179c0 25.8-21 46.8-46.8 46.8c-25.9 0-46.8-21-46.8-46.8c0-25.9 20.9-46.8 46.8-46.8c25.8 0 46.8 20.9 46.8 46.8z" />
					<path id="&lt;Path&gt;" class="s3" d="m336.8 179c0 23-18.7 41.7-41.7 41.7c-23.1 0-41.7-18.7-41.7-41.7c0-23.1 18.6-41.7 41.7-41.7c23 0 41.7 18.6 41.7 41.7z" />
					<path id="&lt;Path&gt;" class="s4" d="m321.6 183.3c0 14.6-11.9 26.5-26.5 26.5c-14.7 0-26.6-11.9-26.6-26.5c0-14.7 11.9-26.6 26.6-26.6c14.6 0 26.5 11.9 26.5 26.6z" />
					<path id="&lt;Path&gt;" class="s5" d="m307.3 183.3c0 6.7-5.5 12.2-12.2 12.2c-6.8 0-12.2-5.5-12.2-12.2c0-6.8 5.4-12.2 12.2-12.2c6.7 0 12.2 5.4 12.2 12.2z" />
					<path id="&lt;Path&gt;" class="s3" d="m302.9 166.7c0.9 2.9-3 6.6-8.6 8.3c-5.6 1.7-10.9 0.7-11.7-2.2c-0.9-2.9 3-6.6 8.6-8.3c5.6-1.7 10.9-0.7 11.7 2.2z" />
					<path id="&lt;Path&gt;" class="s3" d="m308.6 196.2c0 2.9-2.3 5.3-5.2 5.3c-2.9 0-5.3-2.4-5.3-5.3c0-2.8 2.4-5.2 5.3-5.2c2.9 0 5.2 2.4 5.2 5.2z" />
				</g>
				<path id="&lt;Path&gt;" class="s6" d="m397.4 402.8c-5.1 13.1-12.4 25.2-21.5 35.8c-24.2 28.4-61 46.5-102.2 46.5q-8.2 0-16-0.9c-6.3-0.8-12.5-1.9-18.4-3.5c-10.8-2.7-21-6.8-30.5-12c-26.9-14.5-47.9-37.9-58.8-65.9c-6.5-16.7 9.4-33.7 26.5-28.5c14.2 4.3 29.3 7.7 45.1 10.1c10.8 1.6 21.8 2.7 33.1 3.3q9.4 0.5 19 0.4c9.7 0 19.3-0.3 28.6-1.1c11.6-0.9 22.8-2.4 33.7-4.3c12.1-2.2 23.8-5 34.9-8.4c17.1-5.2 33 11.8 26.5 28.5z" />
				<path id="&lt;Path&gt;" class="s7" d="m375.9 438.6c-24.2 28.4-61 46.5-102.2 46.5q-8.2 0-16-0.9q-0.1-1.7-0.1-3.3c0-36.9 29.8-66.8 66.7-66.8c20.8 0 39.4 9.6 51.6 24.5z" />
				<path id="&lt;Path&gt;" class="s8" d="m254.9 391.5c0 14.2-7.6 25.6-16.9 25.6c-9.4 0-17-11.4-17-25.6q0-3.7 0.6-7.1c10.8 1.6 21.8 2.7 33.1 3.3q0.2 1.8 0.2 3.8z" />
				<path id="&lt;Path&gt;" class="s8" d="m336 382.7c0 14.1-7.6 25.6-16.9 25.6c-8.5 0-15.4-9.2-16.8-21.3c11.6-0.9 22.8-2.4 33.7-4.3z" />
				<path id="&lt;Path&gt;" class="s8" d="m242.6 465.5c0 5.7-1.2 11-3.3 15.2c-10.8-2.7-21-6.8-30.5-12q-0.2-1.5-0.2-3.2c0-14.1 7.6-25.6 17-25.6c9.4 0 17 11.5 17 25.6z" />
				<path id="&lt;Path&gt;" class="s1" d="m476.2 538.5c7.1 16.4-2.4 37 15.2 55.5c16.8 17.8 43.7 17.7 43.3 24.3c-0.2 2.4-3.9 6.6-37.6 11.5c-42.1 6.2-58.5 2.9-88.1 6.8c-37.5 4.9-32.3 12.9-63.5 16.2c-37.6 4-43.4-7.9-98.2-12.8c-52.8-4.8-89.2 2.4-92.5-8.1c-1.5-5.1 6.3-8.2 13-20.3c12.2-22.2 2.3-41.5 4.4-53.5c9-53.6 276.2-83.7 304-19.6z" />
				<g id="&lt;Group&gt;">
					<g id="&lt;Group&gt;">
						<path id="&lt;Path&gt;" class="s9" d="m519.5 547.7c0 6.4-5.1 11.6-11.5 11.6c-6.4 0-11.6-5.2-11.6-11.6c0-6.4 5.2-11.5 11.6-11.5c6.4 0 11.5 5.1 11.5 11.5z" />
					</g>
					<g id="&lt;Group&gt;">
						<path id="&lt;Path&gt;" class="s9" d="m399 586.9c0 6.3-5.1 11.5-11.5 11.5c-6.4 0-11.6-5.2-11.6-11.5c0-6.4 5.2-11.6 11.6-11.6c6.4 0 11.5 5.2 11.5 11.6z" />
					</g>
					<g id="&lt;Group&gt;">
						<path id="&lt;Path&gt;" class="s9" d="m505.3 577.9c0 5-4 9-8.9 9c-4.9 0-8.9-4-8.9-9c0-4.9 4-8.9 8.9-8.9c4.9 0 8.9 4 8.9 8.9z" />
					</g>
					<g id="&lt;Group&gt;">
						<path id="&lt;Path&gt;" class="s9" d="m477.8 586.6c0 13.4-10.9 24.2-24.3 24.2c-13.4 0-24.2-10.8-24.2-24.2c0-13.4 10.8-24.3 24.2-24.3c13.4 0 24.3 10.9 24.3 24.3z" />
					</g>
					<path id="&lt;Path&gt;" class="s9" d="m423.3 611.6c0 3.4-2.8 6.3-6.3 6.3c-3.5 0-6.3-2.9-6.3-6.3c0-3.5 2.8-6.4 6.3-6.4c3.5 0 6.3 2.9 6.3 6.4z" />
					<path id="&lt;Path&gt;" class="s9" d="m468.1 545.4c0 3.5-2.8 6.4-6.3 6.4c-3.5 0-6.3-2.9-6.3-6.4c0-3.5 2.8-6.3 6.3-6.3c3.5 0 6.3 2.8 6.3 6.3z" />
					<path id="&lt;Path&gt;" class="s9" d="m523.5 572c0 1-0.8 1.8-1.8 1.8c-1 0-1.8-0.8-1.8-1.8c0-1 0.8-1.8 1.8-1.8c1 0 1.8 0.8 1.8 1.8z" />
				</g>
				<g id="&lt;Group&gt;">
					<g id="&lt;Group&gt;">
						<path id="&lt;Path&gt;" class="s10" d="m118.6 204.4c0 3.6-2.8 6.4-6.4 6.4c-3.5 0-6.4-2.8-6.4-6.4c0-3.5 2.9-6.4 6.4-6.4c3.6 0 6.4 2.9 6.4 6.4z" />
					</g>
					<g id="&lt;Group&gt;">
						<path id="&lt;Path&gt;" class="s10" d="m108.6 230.4c0 6.5-5.2 11.8-11.7 11.8c-6.5 0-11.8-5.3-11.8-11.8c0-6.4 5.3-11.7 11.8-11.7c6.5 0 11.7 5.3 11.7 11.7z" />
					</g>
					<g id="&lt;Group&gt;">
						<path id="&lt;Path&gt;" class="s10" d="m89.7 254.6c0 3.2-2.6 5.8-5.8 5.8c-3.2 0-5.8-2.6-5.8-5.8c0-3.2 2.6-5.7 5.8-5.7c3.2 0 5.8 2.5 5.8 5.7z" />
					</g>
					<g id="&lt;Group&gt;">
						<path id="&lt;Path&gt;" class="s10" d="m112.3 255.5c0 3.6-2.9 6.5-6.5 6.5c-3.6 0-6.5-2.9-6.5-6.5c0-3.6 2.9-6.5 6.5-6.5c3.6 0 6.5 2.9 6.5 6.5z" />
					</g>
					<g id="&lt;Group&gt;">
						<path id="&lt;Path&gt;" class="s10" d="m94.7 277.9c0 6-4.8 10.9-10.8 10.9c-6 0-10.8-4.9-10.8-10.9c0-6 4.8-10.8 10.8-10.8c6 0 10.8 4.8 10.8 10.8z" />
					</g>
				</g>
			</g>
		</g>
	</g>
</svg>