<svg version="1.2" xmlns="http://www.w3.org/2000/svg" viewBox="0 0 709 579" width="709" height="579">
	<title>vecteezy_happy-halloween-vector-monster-colorful-illustration-flat_-ai</title>
	<style>
		.s0 { fill: #b4d710 } 
		.s1 { fill: #d5ed24 } 
		.s2 { fill: #a0a800 } 
		.s3 { fill: #f9394a } 
		.s4 { fill: #ffffff } 
		.s5 { fill: #606d00 } 
		.s6 { fill: #879100 } 
		.s7 { fill: #66bdc8 } 
		.s8 { fill: #3c6a71 } 
		.s9 { fill: #fefefe } 
	</style>
	<g id="Object">
		<g id="&lt;Group&gt;">
			<g id="&lt;Group&gt;">
				<path id="&lt;Path&gt;" class="s0" d="m427.1 470.9l-3.9 51.4q55.9-15.8 55.9 17c0 32.7-87.5 30.4-96.6 11.8q-9-18.6 0-68.9l22-28.8z" />
				<path id="&lt;Path&gt;" class="s0" d="m296.4 453.4l22 28.8q9 50.3 0 68.9c-9 18.6-96.6 20.9-96.6-11.8q0-32.8 55.9-17l-3.9-51.4z" />
				<path id="&lt;Path&gt;" class="s0" d="m508.4 387c-46.3 167.5-266.8 119.5-304.8 31.9c-17.7-40.9-45.8-151.4-27.6-244.2c11.3-57.7 40.5-108.6 101.3-131.6h0.1c20.3-7.7 44.2-12.2 72.1-12.9c28.8-0.7 53.6 3 74.8 10.3c59.3 20.4 90.1 69.1 101.6 130.2c12.1 64.6 2.7 142.9-17.5 216.3z" />
				<g id="&lt;Group&gt;">
					<path id="&lt;Path&gt;" class="s1" d="m498.7 245.3c6.9 3.4 6.9 13.2 0 16.6c-4.2 2-9.1 4.4-14.8 6.8c-4.7 2.1-9.9 4.2-15.6 6.4q-4.1 1.6-8.6 3.2c-28.6 10.1-66.4 19.6-107.7 19.6c-39 0-74.9-4.1-102.9-8.6q-8.4-1.4-15.9-2.8c-5.6-1.1-10.7-2.1-15.3-3.1q-5.6-1.2-10.2-2.3c-7.6-1.7-9.7-11.6-3.5-16.3c11.5-8.7 29.4-20.9 51.7-31.6q6.7-3.3 13.9-6.3c21-8.7 45.1-15.6 70.8-17.2c3.7-0.2 7.6-0.4 11.4-0.4q2.1 0 4.2 0.1c26.2 0.4 50.7 4.5 72.4 10q7.4 2 14.4 4.1c23.9 7.2 43.3 15.7 55.7 21.8z" />
					<path id="&lt;Path&gt;" class="s2" d="m488.7 253.6q-9.4 5.8-25.5 12.8c-4 1.7-8.4 3.5-13.1 5.3q-3.5 1.4-7.3 2.7c-24.1 8.6-56 16.5-90.8 16.5c-32.9 0-63.1-3.4-86.7-7.2q-7.2-1.2-13.5-2.4c-4.7-0.9-9-1.8-12.9-2.6q-14.9-3.2-23.7-5.7q22-20.3 55.8-36.6q5.6-2.8 11.7-5.3c17.7-7.4 38-13.2 59.7-14.5q4.7-0.3 9.6-0.3q1.8 0 3.6 0c22 0.4 42.7 3.8 61 8.5q6.2 1.6 12.1 3.4q36.2 10.9 60 25.4z" />
					<path id="&lt;Path&gt;" class="s3" d="m442.8 274.4c-24.1 8.6-56 16.5-90.8 16.5c-32.9 0-63.1-3.4-86.7-7.2c24-12.9 55.5-24.7 90-24.7c33.3 0 63.8 7.3 87.5 15.4z" />
					<path id="&lt;Path&gt;" class="s4" d="m463.2 266.4c-4 1.7-8.4 3.5-13.1 5.3v-23z" />
					<path id="&lt;Path&gt;" class="s4" d="m428.7 228.2l-9.1 17.1l-3-20.5q6.2 1.6 12.1 3.4z" />
					<path id="&lt;Path&gt;" class="s4" d="m355.6 216.3l-2.7 19.5l-10.5-19.2q4.7-0.3 9.6-0.3q1.8 0 3.6 0z" />
					<path id="&lt;Path&gt;" class="s4" d="m285.1 251.4l-14.1-15q5.6-2.8 11.7-5.3z" />
					<path id="&lt;Path&gt;" class="s4" d="m252.4 261.6l-0.6 19.7c-4.7-0.9-9-1.8-12.9-2.6z" />
				</g>
				<g id="&lt;Group&gt;">
					<path id="&lt;Path&gt;" class="s0" d="m523.9 276.7q42.4 47.1 56.8-13.5c14.5-60.7 98.3-47.2 65.5 26.9c-32.7 74.2-108.8 42.7-122.3 4l-15.4-14.1z" />
					<g id="&lt;Group&gt;">
						<path id="&lt;Path&gt;" class="s5" d="m605.2 234.1c3.3 0.8 1.9-21.2-2.2-22.7c-4.1-1.4-2.6 21.5 2.2 22.7z" />
						<path id="&lt;Path&gt;" class="s5" d="m619.4 232.2c3.1 1.3 5.1-20.6 1.2-22.7c-3.8-2-5.8 20.8-1.2 22.7z" />
						<path id="&lt;Path&gt;" class="s5" d="m632 236.6c2.2 2.6 14.2-15.9 11.8-19.5c-2.5-3.6-14.9 15.7-11.8 19.5z" />
						<path id="&lt;Path&gt;" class="s5" d="m640 246c0.7 3.4 19.8-7.6 19.3-11.9c-0.5-4.3-20.4 7.1-19.3 11.9z" />
						<path id="&lt;Path&gt;" class="s5" d="m645.2 258.7c-0.7 3.3 21.2 0.5 22.4-3.6c1.2-4.2-21.5-1.3-22.4 3.6z" />
					</g>
					<path id="&lt;Path&gt;" class="s1" d="m593.7 254.9c3-11.7 16.1-18.5 29.3-15.1c13.1 3.4 21.4 15.7 18.3 27.4c-3 11.7-50.7-0.6-47.6-12.3z" />
				</g>
				<g id="&lt;Group&gt;">
					<path id="&lt;Path&gt;" class="s0" d="m193.4 280l-15.4 14.1c-13.5 38.7-89.6 70.2-122.3-4c-32.8-74.1 51-87.6 65.5-26.9q14.4 60.6 56.8 13.5z" />
					<g id="&lt;Group&gt;">
						<path id="&lt;Path&gt;" class="s5" d="m96.7 234.1c-3.3 0.8-1.9-21.2 2.2-22.7c4.1-1.4 2.6 21.5-2.2 22.7z" />
						<path id="&lt;Path&gt;" class="s5" d="m82.5 232.2c-3.1 1.3-5.1-20.6-1.2-22.7c3.8-2 5.8 20.8 1.2 22.7z" />
						<path id="&lt;Path&gt;" class="s5" d="m69.9 236.6c-2.2 2.6-14.2-15.9-11.8-19.5c2.5-3.6 14.9 15.7 11.8 19.5z" />
						<path id="&lt;Path&gt;" class="s5" d="m61.9 246c-0.7 3.4-19.8-7.6-19.3-11.9c0.5-4.3 20.4 7.1 19.3 11.9z" />
						<path id="&lt;Path&gt;" class="s5" d="m56.7 258.7c0.7 3.3-21.2 0.5-22.4-3.6c-1.2-4.2 21.5-1.3 22.4 3.6z" />
					</g>
					<path id="&lt;Path&gt;" class="s1" d="m60.6 267.2c-3.1-11.7 5.2-24 18.3-27.4c13.2-3.4 26.3 3.4 29.3 15.1c3.1 11.7-44.6 24-47.6 12.3z" />
				</g>
				<g id="&lt;Group&gt;">
					<path id="&lt;Path&gt;" class="s6" d="m525.9 170.7c-15.1 15.1-35.9 24.4-58.9 24.4c-46 0-83.3-37.2-83.3-83.2c0-30.3 16.3-56.9 40.6-71.4c59.3 20.4 90.1 69.1 101.6 130.2z" />
					<path id="&lt;Path&gt;" class="s0" d="m550.2 96.3c0 45.9-37.3 83.2-83.2 83.2c-46 0-83.3-37.3-83.3-83.2c0-46 37.3-83.3 83.3-83.3c45.9 0 83.2 37.3 83.2 83.3z" />
					<path id="&lt;Path&gt;" class="s4" d="m541.1 96.3c0 40.9-33.2 74.1-74.1 74.1c-41 0-74.2-33.2-74.2-74.1c0-41 33.2-74.2 74.2-74.2c40.9 0 74.1 33.2 74.1 74.2z" />
					<path id="&lt;Path&gt;" class="s7" d="m514.2 103.9c0 26.1-21.2 47.2-47.2 47.2c-26.1 0-47.3-21.1-47.3-47.2c0-26.1 21.2-47.2 47.3-47.2c26 0 47.2 21.1 47.2 47.2z" />
					<path id="&lt;Path&gt;" class="s8" d="m488.7 103.9c0 12-9.8 21.7-21.7 21.7c-12 0-21.7-9.7-21.7-21.7c0-12 9.7-21.7 21.7-21.7c11.9 0 21.7 9.7 21.7 21.7z" />
					<path id="&lt;Path&gt;" class="s4" d="m480.9 74.5c1.6 5.2-5.3 11.7-15.3 14.7c-9.9 3-19.3 1.2-20.8-3.9c-1.6-5.2 5.3-11.8 15.3-14.8c10-2.9 19.3-1.2 20.8 4z" />
					<path id="&lt;Path&gt;" class="s4" d="m491 127c0 5.1-4.1 9.3-9.3 9.3c-5.1 0-9.3-4.2-9.3-9.3c0-5.1 4.2-9.3 9.3-9.3c5.2 0 9.3 4.2 9.3 9.3z" />
				</g>
				<g id="&lt;Group&gt;">
					<path id="&lt;Path&gt;" class="s6" d="m313.7 111.9c0 46-37.2 83.2-83.2 83.2c-20.9 0-39.9-7.7-54.5-20.4c11.3-57.7 40.5-108.6 101.3-131.6h0.1c21.9 15 36.3 40.2 36.3 68.8z" />
					<path id="&lt;Path&gt;" class="s0" d="m313.8 96.3c0 45.9-37.3 83.2-83.3 83.2c-45.9 0-83.2-37.3-83.2-83.2c0-46 37.3-83.3 83.2-83.3c46 0 83.3 37.3 83.3 83.3z" />
					<path id="&lt;Path&gt;" class="s9" d="m304.7 96.3c0 40.9-33.2 74.1-74.2 74.1c-40.9 0-74.1-33.2-74.1-74.1c0-41 33.2-74.2 74.1-74.2c41 0 74.2 33.2 74.2 74.2z" />
					<path id="&lt;Path&gt;" class="s7" d="m277.7 103.9c0 26.1-21.1 47.2-47.2 47.2c-26 0-47.2-21.1-47.2-47.2c0-26.1 21.2-47.2 47.2-47.2c26.1 0 47.2 21.1 47.2 47.2z" />
					<path id="&lt;Path&gt;" class="s8" d="m252.2 103.9c0 12-9.7 21.7-21.7 21.7c-11.9 0-21.7-9.7-21.7-21.7c0-12 9.8-21.7 21.7-21.7c12 0 21.7 9.7 21.7 21.7z" />
					<path id="&lt;Path&gt;" class="s9" d="m244.5 74.5c1.5 5.2-5.3 11.7-15.3 14.7c-10 3-19.3 1.2-20.9-3.9c-1.5-5.2 5.4-11.8 15.3-14.8c10-2.9 19.4-1.2 20.9 4z" />
					<path id="&lt;Path&gt;" class="s9" d="m254.6 127c0 5.1-4.2 9.3-9.3 9.3c-5.1 0-9.3-4.2-9.3-9.3c0-5.1 4.2-9.3 9.3-9.3c5.1 0 9.3 4.2 9.3 9.3z" />
				</g>
				<path id="&lt;Path&gt;" class="s2" d="m500.4 337.4c0 5.2-4.2 9.4-9.4 9.4c-5.2 0-9.4-4.2-9.4-9.4c0-5.2 4.2-9.4 9.4-9.4c5.2 0 9.4 4.2 9.4 9.4z" />
				<path id="&lt;Path&gt;" class="s2" d="m501.5 369.6c0 11-8.8 19.8-19.8 19.8c-10.9 0-19.8-8.8-19.8-19.8c0-10.9 8.9-19.8 19.8-19.8c11 0 19.8 8.9 19.8 19.8z" />
				<path id="&lt;Path&gt;" class="s2" d="m486.1 404.3c0 2.5-2 4.5-4.5 4.5c-2.4 0-4.4-2-4.4-4.5c0-2.5 2-4.4 4.4-4.4c2.5 0 4.5 1.9 4.5 4.4z" />
				<path id="&lt;Path&gt;" class="s2" d="m456.6 413.5c0 5.7-4.6 10.3-10.3 10.3c-5.8 0-10.4-4.6-10.4-10.3c0-5.8 4.6-10.4 10.4-10.4c5.7 0 10.3 4.6 10.3 10.4z" />
				<path id="&lt;Path&gt;" class="s2" d="m473.5 434.2c0 5.7-4.6 10.3-10.3 10.3c-5.7 0-10.3-4.6-10.3-10.3c0-5.7 4.6-10.4 10.3-10.4c5.7 0 10.3 4.7 10.3 10.4z" />
				<path id="&lt;Path&gt;" class="s2" d="m447.2 450.5c0 10.2-8.3 18.5-18.5 18.5c-10.2 0-18.5-8.3-18.5-18.5c0-10.2 8.3-18.5 18.5-18.5c10.2 0 18.5 8.3 18.5 18.5z" />
				<path id="&lt;Path&gt;" class="s2" d="m333.7 56.7c0 4.5-3.6 8.1-8 8.1c-4.5 0-8.1-3.6-8.1-8.1c0-4.4 3.6-8.1 8.1-8.1c4.4 0 8 3.7 8 8.1z" />
				<path id="&lt;Path&gt;" class="s2" d="m378.3 52.6c0 6.7-5.5 12.2-12.2 12.2c-6.7 0-12.2-5.5-12.2-12.2c0-6.7 5.5-12.1 12.2-12.1c6.7 0 12.2 5.4 12.2 12.1z" />
				<path id="&lt;Path&gt;" class="s2" d="m366.1 79.9c0 9.4-7.7 17.1-17.1 17.1c-9.5 0-17.1-7.7-17.1-17.1c0-9.5 7.6-17.1 17.1-17.1c9.4 0 17.1 7.6 17.1 17.1z" />
			</g>
		</g>
	</g>
</svg>