<svg version="1.2" xmlns="http://www.w3.org/2000/svg" viewBox="0 0 630 618" width="630" height="618">
	<title>monsterc5-svg</title>
	<style>
		.s0 { fill: #991d00 } 
		.s1 { fill: #e43e02 } 
		.s2 { fill: #ba2d04 } 
		.s3 { fill: #0c1c1d } 
		.s4 { fill: #d3165c } 
		.s5 { fill: #fef9fa } 
		.s6 { fill: #b2b2b2 } 
		.s7 { fill: #0bfdfb } 
		.s8 { fill: #0a111c } 
	</style>
	<g id="Object">
		<g id="&lt;Group&gt;">
			<g id="&lt;Group&gt;">
				<path id="&lt;Path&gt;" class="s0" d="m402 200.6q100.6 18.8 107.4 51.1c6.9 32.3-21.2 46.4-11.9 81.5c9.4 35.1 25.6 38.5-2.5 72.5c-28.1 34 11 32.3 1.7 61.3c-9.4 28.9 13.6 38.2 36.6 25.5c22.9-12.8 56.1-6.8 56.1 17c0 23.8 36.9 13.1 36.8 55.5q-0.2 42.4-201-30q-40.8 0-40.8-5.9q0-6-6.8-119.2z" />
				<path id="&lt;Path&gt;" class="s1" d="m165.4 198.7c59-75.5 269.6-58.9 290 64.9c16.4 99.6-16.7 97-16.7 128.9c0 31.9 20.5 15.3 10.3 89.3c-10.2 74.1 136.6 7.7 169.8 67.7c33.2 60-17.9 48.5-30.6 28.1c-12.8-20.5-107.3 56.1-162.1 37c-54.9-19.2-106-24.3-126.4-3.8c-20.4 20.4-43.4-19.2-86.8-12.8c-43.4 6.4-97 12.8-111-61.3c-14.1-74-34.8-212.1 63.5-338z" />
				<path id="&lt;Path&gt;" class="s1" d="m392.5 105.3q-20 51.1-14.9 123.4l-90.2-46.8q57-18.7 66.3-80z" />
				<path id="&lt;Path&gt;" class="s1" d="m175.1 127.1q9.3 61.3 66.3 80l-90.2 46.8q5.1-72.3-14.9-123.4z" />
				<path id="&lt;Path&gt;" class="s2" d="m306.1 393.8c-10.4 12-20.1 24.5-29 37.6c-4.4 6.5-8.6 13.1-12.4 19.9c-3.8 6.9-7.4 13.8-10.2 21c-2.7 7.2-4.9 14.5-5.9 21.9c-0.9 7.3-0.5 14.8 1.3 21.8c1.8 7.1 5.1 13.7 9.8 18.8c4.6 5.2 10.9 8.6 17.1 8.6c6.1 0.1 12-3.4 16.2-8.9c2.1-2.8 3.9-5.9 5.3-9.2q1.1-2.6 2-5.2c0.6-1.8 1-3.4 1.8-5.6l1.1-3.2q0.8-1.5 1.5-3l0.8-1.5l1-1.5c0.7-0.9 1.3-1.9 2.1-2.8c3-3.6 6.9-6.3 11-8.2c8.3-3.7 16.9-4.1 24.9-4.5c8-0.2 15.9-0.2 23.5-1c7.5-0.8 14.9-2.8 20.4-7.6c5.7-4.6 8.9-11.8 10.8-19.3c1.9-7.6 2.4-15.5 2.6-23.4c0.9 7.8 1.3 15.9 0.1 23.9c-0.3 2-0.5 4.1-1.2 6l-0.8 3c-0.3 1-0.8 1.9-1.2 2.9c-1.5 3.9-3.9 7.5-7 10.5c-6.2 6.2-14.7 9.1-22.8 10.5c-8.1 1.5-16.2 1.7-24 2.4c-3.8 0.3-7.7 0.7-11.3 1.4c-3.6 0.8-7.2 1.6-10.2 3.2c-3.1 1.6-5.7 3.5-7.8 6.1c-0.5 0.6-0.9 1.3-1.4 2l-0.6 1l-0.6 1.2l-1 2.3l-0.8 2.5c-0.5 1.4-1.1 3.8-1.7 5.7q-1 3-2.2 6c-1.7 3.9-3.8 7.8-6.5 11.4c-2.7 3.5-6.1 6.8-10.2 9.2c-4.1 2.4-9 3.8-13.9 3.7c-4.9 0-9.6-1.4-13.7-3.5c-4.1-2.2-7.6-5.1-10.6-8.5c-6-6.6-9.8-14.7-11.7-23.1c-1.9-8.4-2.1-17-0.8-25.4c1.3-8.3 4.1-16.2 7.4-23.7c6.8-14.9 15.9-28.2 25.9-40.8c10.1-12.4 20.9-24.1 32.9-34.6z" />
				<path id="&lt;Path&gt;" class="s1" d="m119.9 399.3c-91.2 12.5-33.3-79.3-86.6-89.1c-53.3-9.8-36.8-59.7 10.3-63.5q47-3.8 113.1 53.6" />
				<path id="&lt;Path&gt;" class="s3" d="m320.9 363.6c-2.2 3.2-4.7 6.2-7.4 8.9c-17.5 17.3-42 25.6-66.1 28c-15.2 1.5-30.7-0.4-44.9-5.9q-6.2-2.5-11.9-5.8c-15.2-8.7-27.7-21.8-34.2-38.4c-6.8-17.4-2.8-42.2 13-51.3c3.2-1.9 6.5-2.9 9.8-3.2c9.3-0.9 18.9 2.8 28.1 3.9q2 0.3 4 0.3q4.7 0.2 9.3-0.4c8.4-1.1 16.5-3.8 24.4-6.9c3.8-1.5 7.7-3.1 11.6-4.7c10.7-4.3 21.7-8 33.1-6.9c13.1 1.2 24.6 8.3 33.1 18.1c16.2 18.7 11.5 45.4-1.9 64.3z" />
				<path id="&lt;Path&gt;" class="s4" d="m320.9 363.6c-2.2 3.2-4.7 6.2-7.4 8.9c-17.5 17.3-42 25.6-66.1 28c-15.2 1.5-30.7-0.4-44.9-5.9q-6.2-2.5-11.9-5.8c2.2-3.2 4.7-6.1 7.4-8.8c17.5-17.4 42-25.6 66.1-28c15.2-1.6 30.7 0.3 44.9 5.9c4.1 1.6 8.1 3.5 11.9 5.7z" />
				<path id="&lt;Path&gt;" class="s5" d="m256.6 288.1v49.2q-26.5 13.7-44 8.6c-18.4-13.4-28.4-35.1-33.4-50c9.3-1 18.9 2.7 28.1 3.9q2 0.2 4 0.3q4.7 0.2 9.3-0.4c8.4-1.1 16.5-3.8 24.4-6.9c3.8-1.5 7.7-3.1 11.6-4.7z" />
				<path id="&lt;Path&gt;" class="s6" d="m227.6 333.2c-2.4-3.3-4.7-6.8-6.7-10.4q-3-5.4-5.4-11.2q-2.4-5.6-4.2-11.5q4.7 0.2 9.3-0.4q0.2 5.1 0.9 10.2q0.8 5.9 2.4 11.7c0.9 4 2.2 7.7 3.7 11.6z" />
				<path id="&lt;Path&gt;" class="s7" d="m441.4 64.5c0 35.2-28.6 63.8-63.8 63.8c-35.3 0-63.9-28.6-63.9-63.8c0-35.3 28.6-63.8 63.9-63.8c35.2 0 63.8 28.5 63.8 63.8z" />
				<path id="&lt;Path&gt;" class="s8" d="m392.5 56c0 17.1-14 31-31.1 31c-17.2 0-31.1-13.9-31.1-31c0-17.2 13.9-31.1 31.1-31.1c17.1 0 31.1 13.9 31.1 31.1z" />
				<path id="&lt;Path&gt;" class="s7" d="m212.3 89.7c0 35.2-28.6 63.8-63.8 63.8c-35.2 0-63.8-28.6-63.8-63.8c0-35.3 28.6-63.9 63.8-63.9c35.2 0 63.8 28.6 63.8 63.9z" />
				<path id="&lt;Path&gt;" class="s8" d="m163.4 81.2c0 17.1-13.9 31-31.1 31c-17.1 0-31-13.9-31-31c0-17.2 13.9-31.1 31-31.1c17.2 0 31.1 13.9 31.1 31.1z" />
			</g>
		</g>
	</g>
</svg>