<svg version="1.2" xmlns="http://www.w3.org/2000/svg" viewBox="0 0 566 584" width="566" height="584">
	<title>monsterb8-svg</title>
	<style>
		.s0 { fill: #d44666 } 
		.s1 { fill: #a52144 } 
		.s2 { fill: #ffffff } 
		.s3 { fill: #136580 } 
		.s4 { fill: #5d1168 } 
		.s5 { fill: #241f21 } 
		.s6 { fill: #e86286 } 
	</style>
	<g id="Object">
		<g id="&lt;Group&gt;">
			<g id="&lt;Group&gt;">
				<path id="&lt;Path&gt;" class="s0" d="m334.4 583.6c-10.3 0.5-18.7-8.5-17.3-18.8c5.3-41.4 16-138.2 4.6-177q-14.6-49.9 31.3-31.9l5.3 22q5.4 79.1-13.3 166.3q65.2-33.3 79.2 2c11.4 28.7-55.1 35.7-89.8 37.4z" />
				<path id="&lt;Path&gt;" class="s0" d="m136.1 546.2q14-35.3 79.2-2q-18.7-87.2-13.3-166.3l5.3-22q45.9-18 31.3 31.9c-11.4 38.8-0.7 135.6 4.6 177c1.4 10.3-7 19.3-17.4 18.8c-34.6-1.7-101.1-8.7-89.7-37.4z" />
				<path id="&lt;Path&gt;" class="s0" d="m105.6 247.5l-0.7 27.8q-56.4 44.8-37.1 101q19.4 24.1 15.7 33.1q-3.8 9-22.3-4.9c16.7 36.1-47.8 66.6-59.7-18.1q-11.9-84.8 88-142.8z" />
				<path id="&lt;Path&gt;" class="s0" d="m476.2 243.6q99.9 58 87.9 142.8c-11.9 84.7-76.3 54.2-59.7 18.1q-18.5 13.9-22.2 4.9q-3.8-9 15.6-33.1q19.3-56.2-37.1-101l-0.7-27.8z" />
				<path id="&lt;Path&gt;" class="s0" d="m260.7 44.4c3.7-6.8 13.8-23.1 34.2-34.2c17.9-9.7 34.6-10.3 42.4-10.1q-13.4 23-26.8 46.1c7.5-2.9 36.1-12.9 66.5 0c13 5.5 22 13.4 27.7 19.4q-18 2.5-36 5.1c13.1 1.9 60.1 10.6 95.5 52.5c23.3 27.7 30.6 56.9 33.2 71.5q-9.7-9.6-19.4-19.3c5.5 8.2 19.1 31.1 14.3 59c-1.1 6.3-3 11.9-5.1 16.6q-4.6-12.4-9.2-24.9c3.8 16.6 9.9 53.2-4.6 95c-22.6 65.3-77.9 93.8-90 99.7q2.6-8.3 5.1-16.6c-8.3 8.7-22.5 21.3-43.4 30.4c-12.7 5.6-24.4 8.3-33.6 9.7q0.9-6.7 1.8-13.4c-4.7 4.7-18.9 17.6-40.6 19.4c-9.3 0.8-17.1-0.7-22.6-2.3q3.7-5.8 7.4-11.5c-15.7 1.7-40.3 1.9-66.9-8.8c-68-27.4-86.8-101.5-89-110.7q-5.1 9.5-10.2 18.9c-5.5-10.3-15.1-31.6-14.3-59.5c0.5-16.2 4.4-29.3 7.9-38.3q-9 9-18 18c-0.6-12.9 0.3-32.5 7.8-54.9c5.3-15.7 12.4-28.1 18.5-36.9q-11.6 9-23.1 18c2.5-12.6 9.1-37.3 28.6-61.4c16.3-20.2 34.6-31.3 45.7-36.9q-21.9-1.6-43.8-3.2c11-8.2 27.8-18.8 50.2-26.3c28.1-9.3 52.6-9.7 67.8-8.8q-14-12.2-28.1-24.4c5.8-1.6 23.9-5.7 43.8 2.8c14 5.9 22.4 15.3 26.3 20.3z" />
				<g id="&lt;Group&gt;">
					<path id="&lt;Path&gt;" class="s1" d="m386.6 216.9c0 56.1-45.5 101.6-101.6 101.6c-56.1 0-101.6-45.5-101.6-101.6c0-56.1 45.5-101.6 101.6-101.6c56.1 0 101.6 45.5 101.6 101.6z" />
					<path id="&lt;Path&gt;" class="s0" d="m386.6 200.1c0 56.1-45.5 101.6-101.6 101.6c-56.1 0-101.6-45.5-101.6-101.6c0-56.1 45.5-101.6 101.6-101.6c56.1 0 101.6 45.5 101.6 101.6z" />
					<path id="&lt;Path&gt;" class="s2" d="m375.5 200.1c0 50-40.5 90.5-90.5 90.5c-50 0-90.5-40.5-90.5-90.5c0-50 40.5-90.5 90.5-90.5c50 0 90.5 40.5 90.5 90.5z" />
					<path id="&lt;Path&gt;" class="s3" d="m342.7 209.4c0 31.9-25.9 57.7-57.7 57.7c-31.8 0-57.6-25.8-57.6-57.7c0-31.8 25.8-57.6 57.6-57.6c31.8 0 57.7 25.8 57.7 57.6z" />
					<path id="&lt;Path&gt;" class="s4" d="m311.5 209.4c0 14.7-11.9 26.5-26.5 26.5c-14.6 0-26.5-11.8-26.5-26.5c0-14.6 11.9-26.5 26.5-26.5c14.6 0 26.5 11.9 26.5 26.5z" />
					<path id="&lt;Path&gt;" class="s2" d="m302.1 173.5c1.9 6.3-6.5 14.4-18.7 18c-12.2 3.6-23.6 1.5-25.5-4.8c-1.8-6.3 6.5-14.4 18.7-18c12.2-3.7 23.6-1.5 25.5 4.8z" />
					<path id="&lt;Path&gt;" class="s2" d="m314.4 237.6c0 6.3-5.1 11.4-11.4 11.4c-6.2 0-11.3-5.1-11.3-11.4c0-6.3 5.1-11.4 11.3-11.4c6.3 0 11.4 5.1 11.4 11.4z" />
				</g>
				<g id="&lt;Group&gt;">
					<g id="&lt;Group&gt;">
						<path id="&lt;Path&gt;" class="s5" d="m164.3 379.6c-0.5 0-1-0.2-1.4-0.5c-0.9-0.8-0.9-2.1-0.2-3c13.3-15 6.3-35.1 6.2-35.3c-0.3-1.1 0.2-2.3 1.3-2.7c1.1-0.4 2.3 0.2 2.7 1.3c0.3 0.9 7.8 22.7-7 39.5c-0.4 0.5-1 0.7-1.6 0.7z" />
					</g>
					<path id="&lt;Path&gt;" class="s2" d="m205 351.9c-9.6 1.8-18.6 4-26.8 6.5c2.8-10.7 9.1-31.4 16.4-32.4c6.2-0.9 9.1 14.3 10.4 25.9z" />
					<path id="&lt;Path&gt;" class="s2" d="m391 359.3c-8.3-2.6-17.4-4.9-27.1-6.9c1.3-11.7 4.2-27.3 10.4-26.4c7.6 1 14 22.9 16.7 33.3z" />
					<g id="&lt;Group&gt;">
						<path id="&lt;Path&gt;" class="s5" d="m404.1 379.6c-0.6 0-1.1-0.2-1.6-0.7c-14.8-16.8-7.3-38.6-7-39.5c0.4-1.1 1.6-1.7 2.7-1.3c1.1 0.4 1.7 1.6 1.3 2.7c-0.1 0.2-7 20.4 6.2 35.3c0.8 0.9 0.7 2.2-0.2 3c-0.4 0.3-0.9 0.5-1.4 0.5z" />
					</g>
					<g id="&lt;Group&gt;">
						<path id="&lt;Path&gt;" class="s5" d="m172.4 360.2c17.5-7.3 36.2-11.7 55-14.7c9.4-1.5 18.9-2.4 28.4-3.2c9.5-0.7 19-0.9 28.5-1c9.6 0.1 19.1 0.4 28.6 1.2c9.5 0.8 19 1.8 28.4 3.3c18.7 3.1 37.4 7.7 54.8 15.2c-18.3-4.7-36.9-7.7-55.6-9.7c-9.3-1-18.7-1.8-28-2.2q-14.1-0.8-28.2-0.8c-9.4-0.1-18.7 0.2-28.1 0.6q-7.1 0.3-14.1 0.8q-7 0.6-14 1.2c-18.7 1.9-37.3 4.8-55.7 9.3z" />
					</g>
				</g>
				<g id="&lt;Group&gt;">
					<path id="&lt;Path&gt;" class="s6" d="m242.2 67.5c0 2.5-2.1 4.5-4.5 4.5c-2.5 0-4.5-2-4.5-4.5c0-2.5 2-4.5 4.5-4.5c2.4 0 4.5 2 4.5 4.5z" />
					<path id="&lt;Path&gt;" class="s6" d="m280 67.5c0 8.2-6.7 14.9-14.9 14.9c-8.2 0-14.9-6.7-14.9-14.9c0-8.2 6.7-14.9 14.9-14.9c8.2 0 14.9 6.7 14.9 14.9z" />
					<path id="&lt;Path&gt;" class="s6" d="m249.2 85.2c0 5.1-4.1 9.2-9.2 9.2c-5 0-9.1-4.1-9.1-9.2c0-5 4.1-9.1 9.1-9.1c5.1 0 9.2 4.1 9.2 9.1z" />
					<path id="&lt;Path&gt;" class="s6" d="m220.3 74.1c0 4.6-3.7 8.3-8.2 8.3c-4.6 0-8.3-3.7-8.3-8.3c0-4.5 3.7-8.2 8.3-8.2c4.5 0 8.2 3.7 8.2 8.2z" />
					<path id="&lt;Path&gt;" class="s6" d="m228.5 97.5c0 6.8-5.6 12.4-12.4 12.4c-6.8 0-12.3-5.6-12.3-12.4c0-6.8 5.5-12.3 12.3-12.3c6.8 0 12.4 5.5 12.4 12.3z" />
					<path id="&lt;Path&gt;" class="s6" d="m194.5 82.4c0 6.1-5 11.1-11.1 11.1c-6.1 0-11.1-5-11.1-11.1c0-6.1 5-11.1 11.1-11.1c6.1 0 11.1 5 11.1 11.1z" />
				</g>
				<g id="&lt;Group&gt;">
					<path id="&lt;Path&gt;" class="s1" d="m310.4 388.1c0 2.5-2.1 4.5-4.5 4.5c-2.5 0-4.5-2-4.5-4.5c0-2.5 2-4.5 4.5-4.5c2.4 0 4.5 2 4.5 4.5z" />
					<path id="&lt;Path&gt;" class="s1" d="m348.2 388.1c0 8.2-6.7 14.9-14.9 14.9c-8.2 0-14.9-6.7-14.9-14.9c0-8.2 6.7-14.9 14.9-14.9c8.2 0 14.9 6.7 14.9 14.9z" />
					<path id="&lt;Path&gt;" class="s1" d="m317.4 405.9c0 5-4.1 9.1-9.2 9.1c-5 0-9.1-4.1-9.1-9.1c0-5.1 4.1-9.2 9.1-9.2c5.1 0 9.2 4.1 9.2 9.2z" />
					<path id="&lt;Path&gt;" class="s1" d="m288.5 394.7c0 4.6-3.7 8.3-8.2 8.3c-4.6 0-8.3-3.7-8.3-8.3c0-4.5 3.7-8.2 8.3-8.2c4.5 0 8.2 3.7 8.2 8.2z" />
					<path id="&lt;Path&gt;" class="s1" d="m296.7 418.2c0 6.8-5.6 12.3-12.4 12.3c-6.8 0-12.3-5.5-12.3-12.3c0-6.8 5.5-12.3 12.3-12.3c6.8 0 12.4 5.5 12.4 12.3z" />
					<path id="&lt;Path&gt;" class="s1" d="m262.7 403c0 6.1-5 11.1-11.1 11.1c-6.1 0-11.1-5-11.1-11.1c0-6.1 5-11.1 11.1-11.1c6.1 0 11.1 5 11.1 11.1z" />
				</g>
			</g>
		</g>
	</g>
</svg>