<svg version="1.2" xmlns="http://www.w3.org/2000/svg" viewBox="0 0 665 690" width="665" height="690">
	<title>vecteezy_happy-halloween-vector-monster-colorful-illustration-flat_-ai</title>
	<style>
		.s0 { fill: #3c6a71 } 
		.s1 { fill: #42b2af } 
		.s2 { fill: #2c918c } 
		.s3 { fill: #231e1f } 
		.s4 { fill: #fefefe } 
		.s5 { fill: #60ccc6 } 
		.s6 { fill: #ffffff } 
		.s7 { fill: #815787 } 
		.s8 { fill: #5f3566 } 
		.s9 { fill: #228984 } 
		.s10 { fill: #8cede4 } 
	</style>
	<g id="Object">
		<g id="&lt;Group&gt;">
			<g id="&lt;Group&gt;">
				<g id="&lt;Group&gt;">
					<path id="&lt;Path&gt;" class="s0" d="m378.8 77.1q33.8-57.1 63.4-33.7q29.6 23.4-1.1 63.8z" />
					<path id="&lt;Path&gt;" class="s0" d="m265.8 107.2q-30.7-40.4-1-63.8q29.6-23.4 63.4 33.7z" />
				</g>
				<path id="&lt;Path&gt;" class="s1" d="m316.4 620.1c0 54.2-88 54.2-88 0c0-54.1 19.7-98 44-98c24.3 0 44 43.9 44 98z" />
				<path id="&lt;Path&gt;" class="s1" d="m474.5 620.1c0 54.2-88 54.2-88 0c0-54.1 19.7-98 44-98c24.3 0 44 43.9 44 98z" />
				<g id="&lt;Group&gt;">
					<path id="&lt;Path&gt;" class="s2" d="m195.4 382.8q-79.4-18.6-78.8 43.8c0.6 62.4-83.9 69.5-70-10.4c13.9-79.8 122.2-84.7 144.6-50.4l18.4 10z" />
					<g id="&lt;Group&gt;">
						<path id="&lt;Path&gt;" class="s3" d="m99.9 460.8c-3.4 0 3.3 21 7.6 21.4c4.3 0.4-2.6-21.4-7.6-21.4z" />
						<path id="&lt;Path&gt;" class="s3" d="m86.6 466c-3.3-0.6 0 21.2 4.2 22.3c4.3 1.1 0.7-21.6-4.2-22.3z" />
						<path id="&lt;Path&gt;" class="s3" d="m73.3 464.7c-2.8-2-9.9 18.9-6.7 21.8c3.2 2.9 10.7-18.8 6.7-21.8z" />
						<path id="&lt;Path&gt;" class="s3" d="m63.3 457.5c-1.5-3-17.4 12.2-15.9 16.2c1.5 4.1 18.1-11.7 15.9-16.2z" />
						<path id="&lt;Path&gt;" class="s3" d="m55.2 446.5c-0.2-3.4-20.8 4.6-20.9 8.9c-0.1 4.4 21.2-3.9 20.9-8.9z" />
					</g>
				</g>
				<g id="&lt;Group&gt;">
					<path id="&lt;Path&gt;" class="s2" d="m490.1 375.8l18.3-10c22.4-34.3 130.7-29.4 144.6 50.4c13.9 79.9-70.6 72.8-70 10.4q0.6-62.4-78.8-43.8z" />
					<g id="&lt;Group&gt;">
						<path id="&lt;Path&gt;" class="s3" d="m599.7 460.8c3.4 0-3.2 21-7.6 21.4c-4.3 0.4 2.6-21.4 7.6-21.4z" />
						<path id="&lt;Path&gt;" class="s3" d="m613 466c3.4-0.6 0 21.2-4.2 22.3c-4.2 1.1-0.7-21.6 4.2-22.3z" />
						<path id="&lt;Path&gt;" class="s3" d="m626.4 464.7c2.7-2 9.9 18.9 6.7 21.8c-3.3 2.9-10.7-18.8-6.7-21.8z" />
						<path id="&lt;Path&gt;" class="s3" d="m636.3 457.5c1.5-3 17.5 12.2 15.9 16.2c-1.5 4.1-18.1-11.7-15.9-16.2z" />
						<path id="&lt;Path&gt;" class="s3" d="m644.4 446.5c0.2-3.4 20.8 4.6 20.9 8.9c0.2 4.4-21.2-3.9-20.9-8.9z" />
					</g>
				</g>
				<path id="&lt;Path&gt;" class="s1" d="m539.1 525.9c-6.2 8.5-13.2 16.2-20.9 23.1c-32.9 29.4-78.3 44.7-121.1 51q-14.2 2-28.5 2.7c-64.8 3.2-137.5-13.5-188.9-55.4q-7.4-6.1-14.2-12.8c-14.9-14.9-27.4-32.9-32.4-53.3c-8.5-35.1 6-68.9 19.4-100.6c12.7-30.1 23.5-61.8 28.1-94.4c3-21 6.2-42.3 10.5-63.3c4.9-23.3 11.2-46.2 20.3-68.1q5.5-13.3 12.5-24.7c28.1-45.9 73.3-69.1 131-65.3c46.8 3 98.4 13.7 127.7 51c5.1 6.5 9.4 13.6 13 21.7c14.3 32.3 14.2 69.9 11.4 104.4q-0.1 1.5-0.1 2.9c-2.7 47.4 23.7 78.8 43.3 119.3c24.5 50.4 22.1 115.7-11.1 161.8z" />
				<g id="&lt;Group&gt;">
					<path id="&lt;Path&gt;" class="s3" d="m490 368.2c-13.4 23.6-37.6 18.5-69 13.3c-14.8-2.4-31.1-4.7-48.6-4.2c-15.1 0.5-31.2 3.3-47.8 10.1c-76.9 31.8-141.9 16.6-129.8-68.2c3.7-25.8 19-44.1 37.7-54.7c25.3-14.3 56.7-14.5 73.8-0.2c11.9 10 23.4 21.7 35.8 32.1c12.1 10.1 25 19 39.8 23.7c27.5 8.8 50-16.4 74.6-17.2c7.3-0.2 14.8 1.7 22.7 7.4q2.7 1.9 5 4.2c14.3 14.1 15.7 36.1 5.8 53.7z" />
					<g id="&lt;Group&gt;">
						<path id="&lt;Path&gt;" class="s4" d="m342.1 296.4c-21.2 29-55.4 70.5-76.2 69.9c-19.9-0.6-29.2-58.8-33.4-101.8c25.3-14.3 56.7-14.5 73.8-0.2c11.9 10 23.4 21.7 35.8 32.1z" />
					</g>
					<g id="&lt;Group&gt;">
						<path id="&lt;Path&gt;" class="s4" d="m421 381.5c-14.8-2.4-31.1-4.7-48.6-4.2c7.9-14.8 22.5-40.4 29.4-39.7c6.7 0.6 14.9 27.8 19.2 43.9z" />
					</g>
					<g id="&lt;Group&gt;">
						<path id="&lt;Path&gt;" class="s4" d="m484.2 314.5c-5.4 8-10.6 14.1-14 13.7c-4.4-0.4-9.5-12.5-13.7-25.3c7.3-0.2 14.8 1.7 22.7 7.4q2.7 1.9 5 4.2z" />
					</g>
				</g>
				<path id="&lt;Path&gt;" class="s5" d="m518.2 549c-32.9 29.4-78.3 44.7-121.1 51q-14.2 2-28.5 2.7c-64.8 3.2-137.5-13.5-188.9-55.4c30.3-62.8 94.5-106.1 168.9-106.1c75 0 139.7 44.1 169.6 107.8z" />
				<g id="&lt;Group&gt;">
					<path id="&lt;Path&gt;" class="s2" d="m507 241.9q-0.1 1.5-0.1 2.9c-9.6 5.1-20.6 8-32.2 8c-38 0-68.7-30.8-68.7-68.7c0-37.9 30.7-68.7 68.7-68.7q4 0 7.9 0.4c5.1 6.5 9.4 13.6 13 21.7c14.3 32.3 14.2 69.9 11.4 104.4z" />
					<path id="&lt;Path&gt;" class="s1" d="m543.4 168.4c0 38-30.8 68.7-68.7 68.7c-38 0-68.7-30.7-68.7-68.7c0-37.9 30.7-68.7 68.7-68.7c37.9 0 68.7 30.8 68.7 68.7z" />
					<path id="&lt;Path&gt;" class="s6" d="m535.9 168.4c0 33.8-27.4 61.2-61.2 61.2c-33.8 0-61.2-27.4-61.2-61.2c0-33.8 27.4-61.2 61.2-61.2c33.8 0 61.2 27.4 61.2 61.2z" />
					<path id="&lt;Path&gt;" class="s7" d="m513.7 165.5c0 21.5-17.5 39-39 39c-21.5 0-39-17.5-39-39c0-21.5 17.5-39 39-39c21.5 0 39 17.5 39 39z" />
					<path id="&lt;Path&gt;" class="s8" d="m492.6 165.5c0 9.9-8 17.9-17.9 17.9c-9.9 0-17.9-8-17.9-17.9c0-9.9 8-17.9 17.9-17.9c9.9 0 17.9 8 17.9 17.9z" />
					<path id="&lt;Path&gt;" class="s6" d="m486.2 141.2c1.3 4.3-4.4 9.7-12.6 12.1c-8.3 2.5-16 1-17.2-3.2c-1.3-4.3 4.4-9.7 12.6-12.2c8.2-2.4 16-1 17.2 3.3z" />
					<path id="&lt;Path&gt;" class="s6" d="m494.6 184.5c0 4.3-3.5 7.7-7.7 7.7c-4.3 0-7.7-3.4-7.7-7.7c0-4.2 3.4-7.6 7.7-7.6c4.2 0 7.7 3.4 7.7 7.6z" />
				</g>
				<g id="&lt;Group&gt;">
					<path id="&lt;Path&gt;" class="s2" d="m286.3 184.9c0 30.4-24.7 55.2-55.2 55.2c-15.7 0-29.9-6.6-40-17.2c4.9-23.3 11.2-46.2 20.3-68.1q5.5-13.3 12.5-24.7q3.6-0.5 7.2-0.5c30.5 0 55.2 24.8 55.2 55.3z" />
					<path id="&lt;Path&gt;" class="s1" d="m286.4 169.2c0 30.5-24.8 55.2-55.3 55.2c-30.5 0-55.2-24.7-55.2-55.2c0-30.5 24.7-55.2 55.2-55.2c30.5 0 55.3 24.7 55.3 55.2z" />
					<path id="&lt;Path&gt;" class="s6" d="m280.3 169.2c0 27.2-22 49.2-49.2 49.2c-27.1 0-49.2-22-49.2-49.2c0-27.2 22.1-49.2 49.2-49.2c27.2 0 49.2 22 49.2 49.2z" />
					<path id="&lt;Path&gt;" class="s7" d="m262.5 169.6c0 17.3-14.1 31.3-31.4 31.3c-17.3 0-31.3-14-31.3-31.3c0-17.3 14-31.3 31.3-31.3c17.3 0 31.4 14 31.4 31.3z" />
					<path id="&lt;Path&gt;" class="s8" d="m245.5 169.6c0 8-6.4 14.4-14.4 14.4c-7.9 0-14.4-6.4-14.4-14.4c0-7.9 6.5-14.4 14.4-14.4c8 0 14.4 6.5 14.4 14.4z" />
					<path id="&lt;Path&gt;" class="s6" d="m240.4 150.1c1 3.4-3.5 7.8-10.1 9.8c-6.7 1.9-12.9 0.8-13.9-2.7c-1-3.4 3.5-7.8 10.2-9.7c6.6-2 12.8-0.8 13.8 2.6z" />
					<path id="&lt;Path&gt;" class="s6" d="m247.1 184.9c0 3.4-2.8 6.2-6.2 6.2c-3.4 0-6.1-2.8-6.1-6.2c0-3.4 2.7-6.2 6.1-6.2c3.4 0 6.2 2.8 6.2 6.2z" />
				</g>
				<g id="&lt;Group&gt;">
					<path id="&lt;Path&gt;" class="s9" d="m313.6 94.9c0 6.8-5.5 12.3-12.3 12.3c-6.9 0-12.4-5.5-12.4-12.3c0-6.9 5.5-12.4 12.4-12.4c6.8 0 12.3 5.5 12.3 12.4z" />
					<path id="&lt;Path&gt;" class="s9" d="m342 77.8c0 4.2-3.5 7.7-7.7 7.7c-4.3 0-7.7-3.5-7.7-7.7c0-4.3 3.4-7.7 7.7-7.7c4.2 0 7.7 3.4 7.7 7.7z" />
					<path id="&lt;Path&gt;" class="s9" d="m372.1 103.6c0 9.9-8.1 18-18.1 18c-10 0-18.1-8.1-18.1-18c0-10 8.1-18.1 18.1-18.1c10 0 18.1 8.1 18.1 18.1z" />
					<path id="&lt;Path&gt;" class="s9" d="m391.2 80.8c0 3.6-2.9 6.5-6.5 6.5c-3.6 0-6.5-2.9-6.5-6.5c0-3.6 2.9-6.5 6.5-6.5c3.6 0 6.5 2.9 6.5 6.5z" />
					<path id="&lt;Path&gt;" class="s9" d="m416.1 107.2c0 8-6.5 14.4-14.4 14.4c-8 0-14.4-6.4-14.4-14.4c0-7.9 6.4-14.4 14.4-14.4c7.9 0 14.4 6.5 14.4 14.4z" />
					<path id="&lt;Path&gt;" class="s9" d="m327 103.1c-1.8 0.2-3.5-1.1-3.8-2.9c-0.2-1.8 1-3.5 2.9-3.8c1.8-0.3 3.5 1 3.8 2.9c0.3 1.8-1 3.5-2.9 3.8z" />
					<path id="&lt;Path&gt;" class="s9" d="m419.9 94c-1.8 0.2-3.5-1-3.8-2.9c-0.3-1.8 1-3.5 2.9-3.8c1.8-0.3 3.5 1 3.8 2.9c0.2 1.8-1.1 3.5-2.9 3.8z" />
				</g>
				<g id="&lt;Group&gt;">
					<path id="&lt;Path&gt;" class="s10" d="m247.1 542.6c0 10.3-8.4 18.7-18.7 18.7c-10.3 0-18.6-8.4-18.6-18.7c0-10.3 8.3-18.7 18.6-18.7c10.3 0 18.7 8.4 18.7 18.7z" />
					<path id="&lt;Path&gt;" class="s10" d="m357.2 568.2c0 10.3-8.3 18.7-18.6 18.7c-10.4 0-18.7-8.4-18.7-18.7c0-10.3 8.3-18.7 18.7-18.7c10.3 0 18.6 8.4 18.6 18.7z" />
					<path id="&lt;Path&gt;" class="s10" d="m265.8 568.2c0 4.6-3.7 8.3-8.3 8.3c-4.5 0-8.2-3.7-8.2-8.3c0-4.6 3.7-8.3 8.2-8.3c4.6 0 8.3 3.7 8.3 8.3z" />
					<path id="&lt;Path&gt;" class="s10" d="m375.2 591.4c0 4.6-3.7 8.3-8.2 8.3c-4.6 0-8.3-3.7-8.3-8.3c0-4.5 3.7-8.2 8.3-8.2c4.5 0 8.2 3.7 8.2 8.2z" />
					<path id="&lt;Path&gt;" class="s10" d="m286.8 557.4c0 2.4-1.9 4.3-4.3 4.3c-2.4 0-4.4-1.9-4.4-4.3c0-2.4 2-4.4 4.4-4.4c2.4 0 4.3 2 4.3 4.4z" />
					<path id="&lt;Path&gt;" class="s10" d="m316.4 575.8c0 6.6-5.3 11.9-11.9 11.9c-6.6 0-11.9-5.3-11.9-11.9c0-6.6 5.3-11.9 11.9-11.9c6.6 0 11.9 5.3 11.9 11.9z" />
				</g>
			</g>
		</g>
	</g>
</svg>