<svg version="1.2" xmlns="http://www.w3.org/2000/svg" viewBox="0 0 796 816" width="796" height="816">
	<title>monster3</title>
	<style>
		.s0 { fill: #4c4b6b } 
		.s1 { fill: #5a5d85 } 
		.s2 { fill: #848bc2 } 
		.s3 { fill: #f5feff } 
		.s4 { fill: #1d2931 } 
		.s5 { fill: #5b2825 } 
		.s6 { fill: #cd1857 } 
		.s7 { fill: #f9f6ed } 
		.s8 { fill: #ff92cb } 
		.s9 { fill: #e9ffff } 
		.s10 { fill: #0b2648 } 
	</style>
	<g id="&lt;Group&gt;">
		<g id="&lt;Group&gt;">
			<path id="&lt;Path&gt;" class="s0" d="m541.1 184.5q54.1-10 56.4-33.7c2.3-23.8-6.2-69.1 8.3-79.6c14.4-10.5 78.6 91.1 42.3 137.2c-36.3 46.1-81 50.4-108.4 21.3q-27.3-29.1-24.5-33.6z" />
			<path id="&lt;Path&gt;" class="s0" d="m271.7 196.1q2.8 4.5-24.5 33.6c-27.4 29.1-72.1 24.8-108.4-21.3c-36.4-46.1 27.9-147.7 42.3-137.2c14.4 10.5 5.9 55.8 8.2 79.6q2.4 23.7 56.4 33.7z" />
			<g id="&lt;Group&gt;">
				<g id="&lt;Group&gt;">
					<path id="&lt;Path&gt;" class="s1" d="m611.4 460.9q65.5-42 64.6-102.2c-0.9-60.2-18.3-152.8 65.5-135.3c83.8 17.5-8.8 216.7-120.5 254.1" />
					<path id="&lt;Path&gt;" class="s1" d="m754 242.5q1.7-16.4-6.2-31.8c-7.9-15.3-3.6-24.8 7.9-15.7q11.4 9.2 8.1 45.5z" />
					<path id="&lt;Path&gt;" class="s1" d="m727 233.9q-1-16.5-11.2-30.4c-10.2-14-7.5-24 5.3-16.8q12.7 7.3 15.2 43.7z" />
					<path id="&lt;Path&gt;" class="s1" d="m706.9 243.4q-5.5-15.5-19.1-26.1c-13.6-10.6-13.8-21 0.5-17.6q14.2 3.5 26.7 37.8z" />
				</g>
				<path id="&lt;Path&gt;" class="s2" d="m764 294.9c0 7-5.6 12.6-12.6 12.6c-7 0-12.6-5.6-12.6-12.6c0-6.9 5.6-12.6 12.6-12.6c7 0 12.6 5.7 12.6 12.6z" />
				<path id="&lt;Path&gt;" class="s2" d="m757.1 321.1c0 3.1-2.6 5.6-5.7 5.6c-3.1 0-5.7-2.5-5.7-5.6c0-3.2 2.6-5.7 5.7-5.7c3.1 0 5.7 2.5 5.7 5.7z" />
				<path id="&lt;Path&gt;" class="s2" d="m742.6 339.8c0 5.3-4.3 9.6-9.5 9.6c-5.3 0-9.6-4.3-9.6-9.6c0-5.2 4.3-9.5 9.6-9.5c5.2 0 9.5 4.3 9.5 9.5z" />
				<path id="&lt;Path&gt;" class="s2" d="m743.4 355.4c0 1.4-1.1 2.5-2.5 2.5c-1.3 0-2.4-1.1-2.4-2.5c0-1.3 1.1-2.4 2.4-2.4c1.4 0 2.5 1.1 2.5 2.4z" />
				<path id="&lt;Path&gt;" class="s2" d="m735.7 364.7c0 4-3.2 7.2-7.2 7.2c-4 0-7.2-3.2-7.2-7.2c0-4 3.2-7.2 7.2-7.2c4 0 7.2 3.2 7.2 7.2z" />
				<path id="&lt;Path&gt;" class="s2" d="m718.6 376.3c0 2.5-2 4.4-4.4 4.4c-2.4 0-4.4-1.9-4.4-4.4c0-2.4 2-4.4 4.4-4.4c2.4 0 4.4 2 4.4 4.4z" />
				<path id="&lt;Path&gt;" class="s2" d="m716.1 391.1c0 2.2-1.8 3.9-3.9 3.9c-2.2 0-4-1.7-4-3.9c0-2.2 1.8-3.9 4-3.9c2.1 0 3.9 1.7 3.9 3.9z" />
				<path id="&lt;Path&gt;" class="s2" d="m716.3 354.1c0 2.3-1.9 4.1-4.1 4.1c-2.3 0-4.1-1.8-4.1-4.1c0-2.2 1.8-4.1 4.1-4.1c2.2 0 4.1 1.9 4.1 4.1z" />
				<path id="&lt;Path&gt;" class="s2" d="m753.4 335.5c0 1.9-1.5 3.4-3.4 3.4c-1.9 0-3.5-1.5-3.5-3.4c0-1.9 1.6-3.5 3.5-3.5c1.9 0 3.4 1.6 3.4 3.5z" />
			</g>
			<g id="&lt;Group&gt;">
				<g id="&lt;Group&gt;">
					<path id="&lt;Path&gt;" class="s1" d="m187.8 460.9q-65.5 42-64.6 102.2c0.8 60.3 18.3 152.8-65.5 135.3c-83.8-17.4 8.7-216.6 120.5-254.1" />
					<path id="&lt;Path&gt;" class="s1" d="m45.2 679.3q-1.7 16.4 6.2 31.8c7.8 15.4 3.6 24.9-7.9 15.7q-11.4-9.2-8.2-45.5z" />
					<path id="&lt;Path&gt;" class="s1" d="m72.2 688q1 16.4 11.2 30.3c10.2 14 7.5 24-5.3 16.8q-12.8-7.2-15.3-43.6z" />
					<path id="&lt;Path&gt;" class="s1" d="m92.3 678.4q5.4 15.5 19.1 26.1c13.6 10.6 13.8 21-0.5 17.6q-14.3-3.4-26.7-37.7z" />
				</g>
				<path id="&lt;Path&gt;" class="s2" d="m35.2 626.9c0-7 5.6-12.6 12.6-12.6c6.9 0 12.6 5.6 12.6 12.6c0 7-5.7 12.6-12.6 12.6c-7 0-12.6-5.6-12.6-12.6z" />
				<path id="&lt;Path&gt;" class="s2" d="m42.1 600.8c0-3.2 2.5-5.7 5.7-5.7c3.1 0 5.7 2.5 5.7 5.7c0 3.1-2.6 5.6-5.7 5.6c-3.2 0-5.7-2.5-5.7-5.6z" />
				<path id="&lt;Path&gt;" class="s2" d="m56.6 582c0-5.3 4.2-9.5 9.5-9.5c5.3 0 9.5 4.2 9.5 9.5c0 5.3-4.2 9.5-9.5 9.5c-5.3 0-9.5-4.2-9.5-9.5z" />
				<path id="&lt;Path&gt;" class="s2" d="m55.8 566.4c0-1.3 1.1-2.4 2.5-2.4c1.3 0 2.4 1.1 2.4 2.4c0 1.4-1.1 2.5-2.4 2.5c-1.4 0-2.5-1.1-2.5-2.5z" />
				<path id="&lt;Path&gt;" class="s2" d="m63.5 557.1c0-3.9 3.2-7.2 7.2-7.2c4 0 7.2 3.3 7.2 7.2c0 4-3.2 7.2-7.2 7.2c-4 0-7.2-3.2-7.2-7.2z" />
				<path id="&lt;Path&gt;" class="s2" d="m80.6 545.5c0-2.4 1.9-4.4 4.4-4.4c2.4 0 4.4 2 4.4 4.4c0 2.5-2 4.4-4.4 4.4c-2.5 0-4.4-1.9-4.4-4.4z" />
				<path id="&lt;Path&gt;" class="s2" d="m83.1 530.7c0-2.1 1.7-3.9 3.9-3.9c2.2 0 3.9 1.8 3.9 3.9c0 2.2-1.7 4-3.9 4c-2.2 0-3.9-1.8-3.9-4z" />
				<path id="&lt;Path&gt;" class="s2" d="m82.9 567.7c0-2.2 1.8-4.1 4.1-4.1c2.3 0 4.1 1.9 4.1 4.1c0 2.3-1.8 4.1-4.1 4.1c-2.3 0-4.1-1.8-4.1-4.1z" />
				<path id="&lt;Path&gt;" class="s2" d="m45.8 586.4c0-1.9 1.5-3.5 3.4-3.5c1.9 0 3.4 1.6 3.4 3.5c0 1.9-1.5 3.4-3.4 3.4c-1.9 0-3.4-1.5-3.4-3.4z" />
			</g>
			<path id="&lt;Path&gt;" class="s1" d="m520.8 512l-15.7 218.1q96.1-1.6 96.1 61.2h-173v-279.3z" />
			<path id="&lt;Path&gt;" class="s1" d="m338.2 512v279.3h-172.9q0-62.8 96-61.2l-15.7-218.1z" />
			<path id="&lt;Path&gt;" class="s2" d="m623.2 532q0 16-2.6 30.7c-3.5 19.8-10.5 37.6-20.3 53.6q-4.2 7-9.2 13.5q-2.1 2.8-4.3 5.5c-89.2 107.6-317.9 107.6-407.1 0q-2.3-2.7-4.4-5.5q-8.1-10.7-14.3-22.6c-7.1-13.6-12.3-28.4-15.1-44.5q-2.7-14.7-2.7-30.7c0-16.3 0.5-32.3 1.4-48.2q1.2-21.4 3.6-42.2q0.7-6.3 1.5-12.6c2.4-18.6 5.4-36.9 9-54.5c34.3-167.7 121.9-286.9 224.5-286.9c102.6 0 190.2 119.2 224.5 286.9c3.9 18.9 7.1 38.5 9.6 58.6q0.5 4.2 1 8.5q2.3 20.8 3.6 42.2c0.9 15.9 1.3 31.9 1.3 48.2z" />
			<path id="&lt;Path&gt;" class="s2" d="m587.1 125.5c0 41.5-33.6 75.1-75.1 75.1c-41.4 0-75-33.6-75-75.1c0-41.4 33.6-75 75-75c41.5 0 75.1 33.6 75.1 75z" />
			<path id="&lt;Path&gt;" class="s3" d="m578.5 130.1c0 36.7-29.7 66.5-66.5 66.5c-36.7 0-66.5-29.8-66.5-66.5c0-36.7 29.8-66.5 66.5-66.5c36.8 0 66.5 29.8 66.5 66.5z" />
			<path id="&lt;Path&gt;" class="s4" d="m540.7 133c0 15.8-12.8 28.7-28.7 28.7c-15.8 0-28.7-12.9-28.7-28.7c0-15.9 12.9-28.7 28.7-28.7c15.9 0 28.7 12.8 28.7 28.7z" />
			<path id="&lt;Path&gt;" class="s2" d="m318.1 50.5c41.4 0 75 33.6 75 75c0 41.5-33.6 75.1-75 75.1c-41.5 0-75.1-33.6-75.1-75.1c0-41.4 33.6-75 75.1-75z" />
			<path id="&lt;Path&gt;" class="s3" d="m318.1 63.6c36.7 0 66.5 29.8 66.5 66.5c0 36.7-29.8 66.5-66.5 66.5c-36.7 0-66.5-29.8-66.5-66.5c0-36.7 29.8-66.5 66.5-66.5z" />
			<path id="&lt;Path&gt;" class="s4" d="m318.1 104.3c15.8 0 28.7 12.8 28.7 28.7c0 15.8-12.9 28.7-28.7 28.7c-15.9 0-28.7-12.9-28.7-28.7c0-15.9 12.8-28.7 28.7-28.7z" />
			<g id="&lt;Group&gt;">
				<path id="&lt;Path&gt;" class="s5" d="m543.4 403.8v1c0 15.6-12.8 27.4-27.2 27.7c-3.6 0.1-7.3-0.6-10.9-2.1c-9.7-4-19.9-7.3-30.4-9.9c-15.6-3.7-32.1-5.7-49-5.7q-7.5 0-14.8 0.5c-17.1 1.1-33.5 4.4-49 9.4c-5.1 1.7-10.1 3.5-15.1 5.5c-3.7 1.6-7.5 2.3-11.3 2.2c-14.4-0.1-27.2-11.4-27.3-27v-1.6c0-41.8 9.7-80.1 26-110.3c11.4-21.1 25.9-38.1 42.5-49.6c14.9-10.3 31.5-15.9 49-15.9q7.6-0.1 14.8 1.4c17.9 3.3 34.6 12.7 49 26.7c10.5 10.2 19.9 22.8 27.7 37.4c16.3 30.1 26 68.5 26 110.3z" />
				<path id="&lt;Path&gt;" class="s6" d="m516.2 432.5c-3.6 0.1-7.3-0.6-10.9-2.1c-9.7-4-19.9-7.3-30.4-9.9c-15.6-3.7-32.1-5.7-49-5.7q-7.5 0-14.8 0.5c-17.1 1.1-33.5 4.4-49 9.4c-5.1 1.7-10.1 3.5-15.1 5.5c-3.7 1.6-7.5 2.3-11.3 2.2c21.5-38.6 54-63.2 90.2-63.2c36.3 0 68.8 24.6 90.3 63.3z" />
				<g id="&lt;Group&gt;">
					<path id="&lt;Path&gt;" class="s7" d="m376.9 243.9c14.9-10.3 31.5-15.9 49-15.9v34.5c0 13.5-10.9 24.5-24.5 24.5c-13.5 0-24.5-11-24.5-24.5z" />
					<path id="&lt;Path&gt;" class="s7" d="m489.7 256.1v6.4c0 13.5-10.9 24.5-24.5 24.5c-13.5 0-24.5-11-24.5-24.5v-33.1c17.9 3.3 34.6 12.7 49 26.7z" />
				</g>
			</g>
			<g id="&lt;Group&gt;">
				<path id="&lt;Path&gt;" class="s1" d="m206.8 415.6c0.2-10.4 8.8-18.5 19.1-18.3c10.3 0.3 18.5 8.8 18.3 19.1c-0.3 10.4-8.8 18.5-19.2 18.3c-10.3-0.2-18.5-8.8-18.2-19.1z" />
				<path id="&lt;Path&gt;" class="s1" d="m207 344.4c0.6-21.4 18.3-38.4 39.8-37.9c21.4 0.5 38.4 18.3 37.9 39.8c-0.6 21.4-18.3 38.3-39.8 37.8c-21.4-0.5-38.4-18.3-37.9-39.7z" />
				<path id="&lt;Path&gt;" class="s1" d="m283.8 293.4c0.2-5.8 5-10.4 10.7-10.2c5.8 0.1 10.4 4.9 10.3 10.7c-0.2 5.8-5 10.4-10.8 10.2c-5.7-0.1-10.3-4.9-10.2-10.7z" />
				<path id="&lt;Path&gt;" class="s1" d="m221.4 276.2c0.2-10.4 8.8-18.6 19.2-18.3c10.3 0.2 18.5 8.8 18.3 19.2c-0.3 10.4-8.9 18.6-19.2 18.3c-10.4-0.2-18.6-8.8-18.3-19.2z" />
				<path id="&lt;Path&gt;" class="s1" d="m270 230.2c0.4-13.2 11.4-23.7 24.6-23.4c13.3 0.3 23.7 11.3 23.4 24.6c-0.3 13.2-11.3 23.7-24.5 23.4c-13.3-0.3-23.8-11.3-23.5-24.6z" />
				<path id="&lt;Path&gt;" class="s1" d="m236.9 221.1c0-2.5 2.1-4.5 4.6-4.4c2.6 0 4.6 2.1 4.5 4.7c0 2.5-2.1 4.5-4.7 4.4c-2.5 0-4.5-2.1-4.4-4.7z" />
				<path id="&lt;Path&gt;" class="s1" d="m180.2 381.2c0.1-6.5 5.5-11.5 11.9-11.4c6.4 0.2 11.5 5.5 11.3 11.9c-0.1 6.5-5.4 11.5-11.9 11.4c-6.4-0.2-11.5-5.5-11.3-11.9z" />
			</g>
			<path id="&lt;Path&gt;" class="s8" d="m623.2 532q0 16-2.6 30.7c-3.5 19.8-10.5 37.6-20.3 53.6q-4.2 7-9.2 13.5h-415.8q-8.1-10.7-14.3-22.6c-7.1-13.6-12.3-28.4-15.1-44.5q-2.7-14.7-2.7-30.7c0-16.3 0.5-32.3 1.4-48.2q1.2-21.4 3.6-42.2h470.1q2.3 20.8 3.6 42.2c0.9 15.9 1.3 31.9 1.3 48.2z" />
			<g id="&lt;Group&gt;">
				<path id="&lt;Path&gt;" class="s9" d="m308.8 536.3c0 29.5-23.9 53.4-53.4 53.4c-29.4 0-53.3-23.9-53.3-53.4c0-29.4 23.9-53.3 53.3-53.3c29.5 0 53.4 23.9 53.4 53.3z" />
				<path id="&lt;Path&gt;" class="s10" d="m286.1 547.4c0 17-13.7 30.7-30.7 30.7c-16.9 0-30.6-13.7-30.6-30.7c0-16.9 13.7-30.6 30.6-30.6c17 0 30.7 13.7 30.7 30.6z" />
				<path id="&lt;Path&gt;" class="s9" d="m275.5 536.6c0 5.8-4.7 10.5-10.5 10.5c-5.8 0-10.5-4.7-10.5-10.5c0-5.8 4.7-10.5 10.5-10.5c5.8 0 10.5 4.7 10.5 10.5z" />
			</g>
			<path id="&lt;Path&gt;" class="s8" d="m180.2 478.9l-42.3 43.7q-19.2-5.3-31.4-42.8q16.7-29.3 49.7-35.5z" />
			<path id="&lt;Path&gt; copy 2" class="s8" d="m180.2 478.9l-42.3 43.7q-19.2-5.3-31.4-42.8q16.7-29.3 49.7-35.5z" />
			<path id="&lt;Path&gt; copy" class="s8" d="m180.2 478.9l-42.3 43.7q-19.2-5.3-31.4-42.8q16.7-29.3 49.7-35.5z" />
			<path id="&lt;Path&gt;" class="s8" d="m598.7 459.6l42.3-43.6q19.2 5.2 31.3 42.8q-16.6 29.3-49.7 35.4z" />
		</g>
	</g>
</svg>