<svg version="1.2" xmlns="http://www.w3.org/2000/svg" viewBox="0 0 851 750" width="851" height="750">
	<title>vecteezy_happy-halloween-vector-monster-colorful-illustration-flat_-ai</title>
	<style>
		.s0 { fill: #215070 } 
		.s1 { fill: #339b85 } 
		.s2 { fill: #123e56 } 
		.s3 { fill: #0b2e3f } 
		.s4 { fill: #ffffff } 
		.s5 { fill: #874c90 } 
		.s6 { fill: #50225b } 
		.s7 { fill: #4984a5 } 
		.s8 { fill: #082d3d } 
		.s9 { fill: #d12558 } 
		.s10 { fill: #fefefe } 
	</style>
	<g id="Object">
		<g id="&lt;Group&gt;">
			<g id="&lt;Group&gt;">
				<g id="&lt;Group&gt;">
					<path id="&lt;Path&gt;" class="s0" d="m766.1 408q-23.6-0.4-27.7-9c-6.6-13.7 64.9-44.9 74.3-37.5c9.3 7.4 2.6 89.7-7.4 84.3q-10-5.3-22.4-27.7z" />
					<g id="&lt;Group&gt;">
						<path id="&lt;Path&gt;" class="s1" d="m574.4 401.7q33.4-8.1 46.5-1.7q13 6.3-36.2 52.2l-19.4-30.1z" />
						<path id="&lt;Path&gt;" class="s1" d="m596.6 463.7q31.3-17.2 39.7-11.5q8.3 5.7-9.1 39.2z" />
						<path id="&lt;Path&gt;" class="s1" d="m651 498.4q8.8-34.7 21.2-37.1q12.4-2.3 23.7 33.4z" />
						<path id="&lt;Path&gt;" class="s1" d="m715.1 484.7q-13-27.1-6.2-35.2q6.7-8.2 33.1 8.8z" />
						<path id="&lt;Path&gt;" class="s1" d="m751.7 455.3q-16.2-21.5-11.7-29.9q4.5-8.4 30.8 1.9z" />
					</g>
					<path id="&lt;Path&gt;" class="s0" d="m579.4 380.6q-3.4 79.6 60.2 104.4q63.6 24.8 126.5-77l13-0.9l3.8 11q-47.3 102.7-120.4 120.4c-74.3 18.1-167.5-65.6-191.6-155.3l48.2-40.1z" />
				</g>
				<path id="&lt;Path&gt;" class="s2" d="m606.5 300.1q118.3 8.5 145.5 92c27.2 83.6-46 84.5-46.9 43.7q-10.8 21.1-18.4 14.5q-7.5-6.5-0.4-37.5q-7.5-60.6-79.8-76.5l-13.2-25.4z" />
				<path id="&lt;Path&gt;" class="s2" d="m202.6 310.9l-13.1 25.4q-72.3 15.9-79.8 76.5q7 31-0.5 37.5q-7.5 6.6-18.3-14.5c-1 40.8-74.2 39.9-47-43.7q27.3-83.5 145.6-92z" />
				<g id="&lt;Group&gt;">
					<path id="&lt;Path&gt;" class="s1" d="m634.9 68.2c-7 1.1-14.1 3.1-19.9 7.1c-6.8 4.8-11.7 12.4-11.9 24.7q-0.1 4-0.2 8c-0.3 9.4-0.9 18.5-2 27.2c-1.5 12.2-4.1 23.5-8.5 33.3c-2.8 6.3-6.4 12-10.9 17c-10 11-24.5 18.5-45.8 21.3q-59.7 7.7-25.1-50.1q16.7-1 26.2-21.2c2.8-5.8 4.9-13.3 5.9-22.7q0.6-4.7 0.7-10c0.1-9.3 2.4-17.7 6.3-25c3.2-5.9 7.3-11.2 12.3-15.6c7.7-7.1 17.2-12.3 27.6-15.4c7.4-2.2 15.2-3.4 23-3.5c14.2-0.1 28.5 3.5 40.5 11.3c24.2 15.8 3.4 10.2-18.2 13.6z" />
				</g>
				<g id="&lt;Group&gt;">
					<path id="&lt;Path&gt;" class="s1" d="m155.4 54.6c12.1-7.8 26.3-11.4 40.5-11.3c7.8 0.1 15.6 1.3 23 3.5c10.4 3.1 20 8.3 27.7 15.4c4.9 4.4 9.1 9.7 12.2 15.6c3.9 7.3 6.2 15.7 6.4 25q0.1 5.3 0.6 10c1 9.4 3.2 16.9 5.9 22.7q9.6 20.2 26.2 21.2q34.7 57.8-25 50.1c-21.3-2.8-35.9-10.3-45.8-21.3c-4.6-5-8.1-10.7-11-17c-4.4-9.8-7-21.1-8.5-33.3c-1.1-8.7-1.6-17.8-1.9-27.2q-0.2-4-0.2-8c-0.3-12.3-5.1-19.9-12-24.7c-5.7-4-12.8-6-19.8-7.1c-21.7-3.4-42.5 2.2-18.3-13.6z" />
				</g>
				<path id="&lt;Path&gt;" class="s0" d="m469.5 577.9c-41.3-31.3-98.1-31.3-139.4 0c-107.8 81.7-184.3-32.6-183.1-142.9c1.5-132.9 53.5-345.2 252.8-343.7c199.3-1.5 251.3 210.8 252.7 343.7c1.2 110.3-75.2 224.6-183 142.9z" />
				<g id="&lt;Group&gt;">
					<path id="&lt;Path&gt;" class="s3" d="m335.4 252.1c0 27.5-22.3 49.8-49.8 49.8c-27.5 0-49.8-22.3-49.8-49.8c0-27.5 22.3-49.8 49.8-49.8c27.5 0 49.8 22.3 49.8 49.8z" />
					<path id="&lt;Path&gt;" class="s0" d="m335.4 246.4c0 27.5-22.3 49.8-49.8 49.8c-27.5 0-49.8-22.3-49.8-49.8c0-27.5 22.3-49.8 49.8-49.8c27.5 0 49.8 22.3 49.8 49.8z" />
					<path id="&lt;Path&gt;" class="s4" d="m329.9 246.4c0 24.5-19.8 44.4-44.3 44.4c-24.5 0-44.4-19.9-44.4-44.4c0-24.5 19.9-44.4 44.4-44.4c24.5 0 44.3 19.9 44.3 44.4z" />
					<path id="&lt;Path&gt;" class="s5" d="m313.8 251c0 15.6-12.6 28.2-28.2 28.2c-15.6 0-28.3-12.6-28.3-28.2c0-15.6 12.7-28.3 28.3-28.3c15.6 0 28.2 12.7 28.2 28.3z" />
					<path id="&lt;Path&gt;" class="s6" d="m298.5 251c0 7.1-5.8 13-12.9 13c-7.2 0-13-5.9-13-13c0-7.2 5.8-13 13-13c7.1 0 12.9 5.8 12.9 13z" />
					<path id="&lt;Path&gt;" class="s4" d="m293.9 233.4c0.9 3.1-3.2 7-9.1 8.8c-6 1.8-11.6 0.7-12.5-2.4c-0.9-3.1 3.2-7 9.1-8.8c6-1.8 11.6-0.7 12.5 2.4z" />
					<path id="&lt;Path&gt;" class="s4" d="m300 264.8c0 3.1-2.5 5.6-5.6 5.6c-3.1 0-5.6-2.5-5.6-5.6c0-3.1 2.5-5.6 5.6-5.6c3.1 0 5.6 2.5 5.6 5.6z" />
				</g>
				<g id="&lt;Group&gt;">
					<path id="&lt;Path&gt;" class="s3" d="m564.7 252.1c0 27.5-22.3 49.8-49.8 49.8c-27.5 0-49.8-22.3-49.8-49.8c0-27.5 22.3-49.8 49.8-49.8c27.5 0 49.8 22.3 49.8 49.8z" />
					<path id="&lt;Path&gt;" class="s0" d="m564.7 246.4c0 27.5-22.3 49.8-49.8 49.8c-27.5 0-49.8-22.3-49.8-49.8c0-27.5 22.3-49.8 49.8-49.8c27.5 0 49.8 22.3 49.8 49.8z" />
					<path id="&lt;Path&gt;" class="s4" d="m559.2 246.4c0 24.5-19.8 44.4-44.3 44.4c-24.5 0-44.4-19.9-44.4-44.4c0-24.5 19.9-44.4 44.4-44.4c24.5 0 44.3 19.9 44.3 44.4z" />
					<path id="&lt;Path&gt;" class="s5" d="m543.1 251c0 15.6-12.6 28.2-28.2 28.2c-15.6 0-28.3-12.6-28.3-28.2c0-15.6 12.7-28.3 28.3-28.3c15.6 0 28.2 12.7 28.2 28.3z" />
					<path id="&lt;Path&gt;" class="s6" d="m527.9 251c0 7.1-5.9 13-13 13c-7.2 0-13-5.9-13-13c0-7.2 5.8-13 13-13c7.1 0 13 5.8 13 13z" />
					<path id="&lt;Path&gt;" class="s4" d="m523.2 233.4c1 3.1-3.1 7-9.1 8.8c-6 1.8-11.6 0.7-12.5-2.4c-0.9-3.1 3.2-7 9.1-8.8c6-1.8 11.6-0.7 12.5 2.4z" />
					<path id="&lt;Path&gt;" class="s4" d="m529.3 264.8c0 3.1-2.5 5.6-5.6 5.6c-3.1 0-5.6-2.5-5.6-5.6c0-3.1 2.5-5.6 5.6-5.6c3.1 0 5.6 2.5 5.6 5.6z" />
				</g>
				<g id="&lt;Group&gt;">
					<path id="&lt;Path&gt;" class="s3" d="m450 294.8c0 27.5-22.3 49.8-49.8 49.8c-27.5 0-49.8-22.3-49.8-49.8c0-27.5 22.3-49.8 49.8-49.8c27.5 0 49.8 22.3 49.8 49.8z" />
					<path id="&lt;Path&gt;" class="s0" d="m450 289.1c0 27.5-22.3 49.8-49.8 49.8c-27.5 0-49.8-22.3-49.8-49.8c0-27.5 22.3-49.8 49.8-49.8c27.5 0 49.8 22.3 49.8 49.8z" />
					<path id="&lt;Path&gt;" class="s4" d="m444.6 289.1c0 24.5-19.9 44.4-44.4 44.4c-24.5 0-44.4-19.9-44.4-44.4c0-24.5 19.9-44.3 44.4-44.3c24.5 0 44.4 19.8 44.4 44.3z" />
					<path id="&lt;Path&gt;" class="s5" d="m428.5 293.7c0 15.6-12.7 28.3-28.3 28.3c-15.6 0-28.2-12.7-28.2-28.3c0-15.6 12.6-28.2 28.2-28.2c15.6 0 28.3 12.6 28.3 28.2z" />
					<path id="&lt;Path&gt;" class="s6" d="m413.2 293.7c0 7.2-5.8 13-13 13c-7.2 0-13-5.8-13-13c0-7.2 5.8-13 13-13c7.2 0 13 5.8 13 13z" />
					<path id="&lt;Path&gt;" class="s4" d="m408.6 276.1c0.9 3.1-3.2 7-9.2 8.8c-6 1.8-11.5 0.7-12.5-2.4c-0.9-3 3.2-7 9.2-8.8c6-1.8 11.6-0.7 12.5 2.4z" />
					<path id="&lt;Path&gt;" class="s4" d="m414.6 307.5c0 3.1-2.5 5.6-5.6 5.6c-3 0-5.5-2.5-5.5-5.6c0-3.1 2.5-5.6 5.5-5.6c3.1 0 5.6 2.5 5.6 5.6z" />
				</g>
				<path id="&lt;Path&gt;" class="s7" d="m559.5 419.7c0 27.1-71.3 49-159.3 49c-87.9 0-159.2-21.9-159.2-49c0-27.1 71.3-49 159.2-49c88 0 159.3 21.9 159.3 49z" />
				<path id="&lt;Path&gt;" class="s8" d="m541.3 419.7c0 12.1-20.3 22.9-52.1 29.9c-24.3 5.4-55.3 8.7-89 8.7c-33.7 0-64.7-3.3-88.9-8.7c-31.9-7-52.2-17.8-52.2-29.9c0-7.5 7.9-14.6 21.5-20.5c7.7-3.3 17.2-6.3 28.1-8.9q3.4-0.8 6.9-1.5c8.4-1.7 17.4-3.2 27.1-4.3c17.5-2.2 37-3.4 57.5-3.4c21.3 0 41.5 1.3 59.6 3.6c9.6 1.2 18.6 2.7 26.9 4.5q3.6 0.8 6.9 1.6c11.1 2.7 20.5 5.8 28.1 9.3c12.5 5.7 19.6 12.4 19.6 19.6z" />
				<path id="&lt;Path&gt;" class="s9" d="m489.2 449.6c-24.3 5.4-55.3 8.7-89 8.7c-33.7 0-64.7-3.3-88.9-8.7c14.5-13.9 48.8-23.7 88.9-23.7c40.1 0 74.5 9.8 89 23.7z" />
				<g id="&lt;Group&gt;">
					<path id="&lt;Path&gt;" class="s10" d="m309 395.2c0 13.5-6.4 24.5-14.3 24.5c-7.1 0-12.9-8.9-14.1-20.5c7.7-3.3 17.2-6.3 28.1-8.9q0.3 2.4 0.3 4.9z" />
					<path id="&lt;Path&gt;" class="s10" d="m342.7 384.5c-1.5 10.9-7.2 19.1-14 19.1c-5.8 0-10.9-6.1-13.1-14.8c8.4-1.7 17.4-3.2 27.1-4.3z" />
				</g>
				<g id="&lt;Group&gt;">
					<path id="&lt;Path&gt;" class="s10" d="m521.7 400.1c-1.3 11.2-7.1 19.6-14 19.6c-7.9 0-14.3-11-14.3-24.5q0-2.3 0.2-4.4c11.1 2.7 20.5 5.8 28.1 9.3z" />
					<path id="&lt;Path&gt;" class="s10" d="m486.7 389.2c-2.3 8.5-7.2 14.4-13 14.4c-6.8 0-12.4-8.1-13.9-18.9c9.6 1.2 18.6 2.7 26.9 4.5z" />
				</g>
				<g id="&lt;Group&gt;">
					<path id="&lt;Path&gt;" class="s8" d="m515.8 565.5c0 5-4.1 9.1-9.1 9.1c-5.1 0-9.2-4.1-9.2-9.1c0-5.1 4.1-9.2 9.2-9.2c5 0 9.1 4.1 9.1 9.2z" />
					<path id="&lt;Path&gt;" class="s8" d="m558.7 581.6c0 10.4-8.4 18.8-18.8 18.8c-10.4 0-18.8-8.4-18.8-18.8c0-10.4 8.4-18.8 18.8-18.8c10.4 0 18.8 8.4 18.8 18.8z" />
					<path id="&lt;Path&gt;" class="s8" d="m582.6 570.1c0 5.2-4.2 9.4-9.4 9.4c-5.1 0-9.3-4.2-9.3-9.4c0-5.1 4.2-9.4 9.3-9.4c5.2 0 9.4 4.3 9.4 9.4z" />
					<path id="&lt;Path&gt;" class="s8" d="m603.9 565.5c0 4-3.3 7.3-7.3 7.3c-4.1 0-7.3-3.3-7.3-7.3c0-4.1 3.2-7.3 7.3-7.3c4 0 7.3 3.2 7.3 7.3z" />
					<path id="&lt;Path&gt;" class="s8" d="m615.7 533.2c0 9.3-7.5 16.7-16.7 16.7c-9.3 0-16.8-7.4-16.8-16.7c0-9.2 7.5-16.7 16.8-16.7c9.2 0 16.7 7.5 16.7 16.7z" />
					<path id="&lt;Path&gt;" class="s8" d="m558.8 551.6c0 2.6-2.1 4.6-4.6 4.6c-2.5 0-4.6-2-4.6-4.6c0-2.5 2.1-4.5 4.6-4.5c2.5 0 4.6 2 4.6 4.5z" />
					<path id="&lt;Path&gt;" class="s8" d="m537.7 553c0 1.1-1 2.1-2.1 2.1c-1.2 0-2.2-1-2.2-2.1c0-1.2 1-2.2 2.2-2.2c1.1 0 2.1 1 2.1 2.2z" />
					<path id="&lt;Path&gt;" class="s8" d="m571.4 540.3c0 2.3-2 4.2-4.3 4.2c-2.4 0-4.3-1.9-4.3-4.2c0-2.4 1.9-4.3 4.3-4.3c2.3 0 4.3 1.9 4.3 4.3z" />
				</g>
				<g id="&lt;Group&gt;">
					<path id="&lt;Path&gt;" class="s7" d="m476.7 148.3c2.3-4.5 7.8-6.2 12.3-3.9c4.5 2.4 6.2 7.9 3.9 12.4c-2.3 4.5-7.9 6.2-12.3 3.9c-4.5-2.4-6.3-7.9-3.9-12.4z" />
					<path id="&lt;Path&gt;" class="s7" d="m446.1 114.2c4.8-9.2 16.2-12.8 25.4-8c9.2 4.8 12.7 16.2 7.9 25.4c-4.8 9.2-16.1 12.7-25.3 7.9c-9.2-4.8-12.8-16.1-8-25.3z" />
					<path id="&lt;Path&gt;" class="s7" d="m419.6 113.3c2.4-4.6 8-6.4 12.6-4c4.6 2.4 6.4 8.1 4 12.7c-2.4 4.6-8 6.3-12.6 4c-4.6-2.4-6.4-8.1-4-12.7z" />
					<path id="&lt;Path&gt;" class="s7" d="m398.6 107.6c1.9-3.6 6.3-4.9 9.8-3.1c3.6 1.9 5 6.3 3.1 9.8c-1.8 3.6-6.2 5-9.8 3.1c-3.6-1.8-5-6.2-3.1-9.8z" />
					<path id="&lt;Path&gt;" class="s7" d="m373.2 130.7c4.2-8.2 14.4-11.3 22.5-7.1c8.2 4.3 11.4 14.4 7.1 22.6c-4.2 8.2-14.3 11.4-22.5 7.1c-8.2-4.3-11.4-14.4-7.1-22.6z" />
					<path id="&lt;Path&gt;" class="s7" d="m432.2 140.7c1.1-2.2 3.9-3.1 6.1-1.9c2.3 1.2 3.1 3.9 2 6.2c-1.2 2.2-3.9 3.1-6.2 1.9c-2.2-1.2-3.1-3.9-1.9-6.2z" />
					<path id="&lt;Path&gt;" class="s7" d="m451.5 149.3c0.5-1.1 1.8-1.5 2.9-0.9c1 0.5 1.5 1.8 0.9 2.9c-0.6 1.1-1.9 1.5-2.9 0.9c-1.1-0.5-1.5-1.8-0.9-2.9z" />
					<path id="&lt;Path&gt;" class="s7" d="m415.8 145c1.1-2.1 3.6-2.9 5.7-1.8c2.1 1.1 2.9 3.7 1.8 5.7c-1.1 2.1-3.6 3-5.7 1.9c-2.1-1.1-2.9-3.7-1.8-5.8z" />
				</g>
			</g>
		</g>
	</g>
</svg>