<svg version="1.2" xmlns="http://www.w3.org/2000/svg" viewBox="0 0 581 623" width="581" height="623">
	<title>vecteezy_vector-illustration-flat-style-bat-for-designer-create_-ai</title>
	<style>
		.s0 { fill: #71250f } 
		.s1 { fill: #470d03 } 
		.s2 { fill: #993d28 } 
		.s3 { fill: #fa5920 } 
		.s4 { fill: #d52f03 } 
		.s5 { fill: #ff9473 } 
		.s6 { fill: #ffffff } 
		.s7 { fill: #994fae } 
		.s8 { fill: #541d68 } 
	</style>
	<g id="Object">
		<g id="&lt;Group&gt;">
			<g id="&lt;Group&gt;">
				<g id="&lt;Group&gt;">
					<g id="&lt;Group&gt;">
						<g id="&lt;Group&gt;">
							<path id="&lt;Path&gt;" class="s0" d="m580.1 407.1c-0.4 29.5-3.6 44.6-7.8 50.8c-9.3 13.9-23.6-16-23.6-30.2q-10.5 15.3-16.2 7.6q-5.6-7.7 11.4-32.3q10.4-52-43.6-101.8l-3.1-7l-5.7-13.2h16q1.7 0.7 4.7 2.2c16.3 8.2 69.1 41.1 67.9 123.9z" />
						</g>
						<g id="&lt;Group&gt;">
							<path id="&lt;Path&gt;" class="s1" d="m549.9 405.3q-19.1 16.4-17.4 30q-5.6-7.7 11.4-32.3q10.4-52-43.6-101.8l-3.1-7l14.4-5.6q45.5 50.3 38.3 116.7z" />
						</g>
						<g id="&lt;Group&gt;" style="mix-blend-mode: screen">
							<g id="&lt;Group&gt;">
								<path id="&lt;Path&gt;" class="s2" d="m572.3 457.9q23.1-134.4-59.7-171.6l-0.4-3.1c16.3 8.2 69.1 41.1 67.9 123.9c-0.4 29.5-3.6 44.6-7.8 50.8z" />
							</g>
						</g>
					</g>
					<g id="&lt;Group&gt;">
						<g id="&lt;Group&gt;">
							<path id="&lt;Path&gt;" class="s0" d="m31.5 278.6c-20.5-21.1-29-34-30.4-41.4c-3.3-16.4 28-5.4 38 4.7q-3.4-18.2 6.1-16.8q9.5 1.5 14.8 30.9q29.4 44.1 102.8 41.1l7.1 2.8l13.4 5.3l-11.3 11.3q-1.7 0.7-4.9 1.8c-17.3 5.7-77.9 19.8-135.6-39.7z" />
						</g>
						<g id="&lt;Group&gt;">
							<path id="&lt;Path&gt;" class="s1" d="m54.1 258.6q1.9-25.1-8.9-33.5q9.5 1.5 14.8 30.9q29.4 44.1 102.8 41.1l7.1 2.8l-6.2 14.1q-67.7-3.3-109.6-55.4z" />
						</g>
						<g id="&lt;Group&gt;" style="mix-blend-mode: screen">
							<g id="&lt;Group&gt;">
								<path id="&lt;Path&gt;" class="s2" d="m1.1 237.2q78.7 111.4 163.6 79.2l2.4 1.9c-17.3 5.7-77.9 19.8-135.6-39.7c-20.5-21.1-29-34-30.4-41.4z" />
							</g>
						</g>
					</g>
				</g>
				<g id="&lt;Group&gt;">
					<path id="&lt;Path&gt;" class="s1" d="m396.3 82.3l15.9 14.4l-17-7.7z" />
				</g>
				<g id="&lt;Group&gt;">
					<g id="&lt;Group&gt;">
						<g id="&lt;Group&gt;">
							<path id="&lt;Path&gt;" class="s0" d="m279.5 89l-55.6 25.4c-41.5-60.1-5.8-145.3 2.9-102q8.8 43.3 50 60.4z" />
						</g>
						<g id="&lt;Group&gt;">
							<path id="&lt;Path&gt;" class="s1" d="m214.9 3.4c-2.8 20.8 7.1 67.3 42.8 95.6l-33.8 15.4c-29.5-42.7-20-97.9-9-111z" />
						</g>
					</g>
					<g id="&lt;Group&gt;">
						<g id="&lt;Group&gt;">
							<path id="&lt;Path&gt;" class="s0" d="m397.9 72.8q41.2-17.1 50-60.4c8.7-43.3 44.5 41.9 2.9 102l-55.6-25.4z" />
						</g>
						<g id="&lt;Group&gt;">
							<path id="&lt;Path&gt;" class="s1" d="m450.8 114.4l-33.8-15.4c35.7-28.3 45.7-74.8 42.8-95.6c11.1 13.1 20.5 68.3-9 111z" />
						</g>
					</g>
				</g>
				<g id="&lt;Group&gt;">
					<path id="&lt;Path&gt;" class="s1" d="m417 99q-0.6 0.5-1.3 1l-3.5-3.3z" />
				</g>
				<g id="&lt;Group&gt;">
					<g id="&lt;Group&gt;">
						<g id="&lt;Group&gt;">
							<path id="&lt;Path&gt;" class="s3" d="m116.1 136q13.4-68.3 117.1-31.6l3.8 19.6q-3.4 2.3-9.1 5.9c-24.5 15.4-91.2 54.4-108.8 32.8c-4.1-5.2-5.6-13.7-3-26.7z" />
						</g>
						<g id="&lt;Group&gt;">
							<path id="&lt;Path&gt;" class="s4" d="m119.1 162.7c17.6 21.6 84.3-17.4 108.8-32.8c-17.5-5.7-97.4-28-108.8 32.8z" />
						</g>
					</g>
					<g id="&lt;Group&gt;">
						<g id="&lt;Group&gt;">
							<path id="&lt;Path&gt;" class="s3" d="m556.7 162.7c-17.6 21.6-84.3-17.4-108.8-32.8q-5.7-3.6-9.1-5.9l3.8-19.6q103.7-36.7 117.1 31.6c2.5 13 1.1 21.5-3 26.7z" />
						</g>
						<g id="&lt;Group&gt;">
							<path id="&lt;Path&gt;" class="s4" d="m556.7 162.7c-17.6 21.6-84.3-17.4-108.8-32.8c17.5-5.7 97.4-28 108.8 32.8z" />
						</g>
					</g>
				</g>
				<g id="&lt;Group&gt;">
					<g id="&lt;Group&gt;">
						<g id="&lt;Group&gt;">
							<path id="&lt;Path&gt;" class="s0" d="m284.9 612.1c-7.7 7.2-117.1 24.2-116.9-9.3q0.2-43.1 76.8-22.6c-8.7-29.4-12.5-55.5-14-73.8q-1.5-17.3-1-27.7l31.4-5.1l23.7 38.6q3.1 36.8 3.4 65.9c0.2 17-0.6 31.3-3.4 34z" />
						</g>
						<g id="&lt;Group&gt;">
							<path id="&lt;Path&gt;" class="s1" d="m284.9 512.2q3.1 36.8 3.4 65.9c-22.3-15.1-42-39.9-57.5-71.7q-1.5-17.3-1-27.7l31.4-5.1z" />
						</g>
					</g>
					<g id="&lt;Group&gt;">
						<g id="&lt;Group&gt;">
							<path id="&lt;Path&gt;" class="s0" d="m491.5 602.8c0.2 33.5-109.2 16.5-116.9 9.3c-2.3-2.1-3.3-12-3.4-24.8q-0.4-29.7 3.4-75.1l23.7-38.6l31.4 5.1q1.1 26.2-6 64.2c-2.2 11.5-5.1 24.1-9.1 37.3q76.6-20.5 76.9 22.6z" />
						</g>
						<g id="&lt;Group&gt;">
							<path id="&lt;Path&gt;" class="s1" d="m423.7 542.9c-15.4 20.9-33.2 36.2-52.5 44.4q-0.4-29.7 3.4-75.1l23.7-38.6l31.4 5.1q1.1 26.2-6 64.2z" />
						</g>
					</g>
				</g>
				<g id="&lt;Group&gt;">
					<g id="&lt;Group&gt;">
						<path id="&lt;Path&gt;" class="s3" d="m516.7 301.2c0 143.4-79.9 259.6-178.5 259.6c-98.6 0-178.6-116.2-178.6-259.6c0-143.4 80-259.6 178.6-259.6c98.6 0 178.5 116.2 178.5 259.6z" />
					</g>
					<g id="&lt;Group&gt;" style="mix-blend-mode: screen">
						<g id="&lt;Group&gt;">
							<path id="&lt;Path&gt;" class="s3" d="m484.7 449.6c15.6-39.9 24.6-86 24.6-135.1c0-146.6-79.5-266.2-179.3-272.6q4.1-0.3 8.2-0.3c98.6 0 178.5 116.2 178.5 259.6c0 55.2-11.8 106.3-32 148.4z" />
						</g>
					</g>
					<g id="&lt;Group&gt;" style="opacity: .7;mix-blend-mode: multiply">
						<g id="&lt;Group&gt;">
							<path id="&lt;Path&gt;" class="s3" d="m494.6 426.5c-30.4 80.1-89.1 134.3-156.4 134.3c-98.6 0-178.6-116.2-178.6-259.6c0-103.3 41.5-192.6 101.6-234.3c-43.8 45.2-72.4 119.6-72.4 203.6c0 137.9 76.9 249.7 171.7 249.7c54.3 0 102.6-36.6 134.1-93.7z" />
						</g>
					</g>
					<g id="&lt;Group&gt;">
						<g id="&lt;Group&gt;">
							<g id="&lt;Group&gt;">
								<path id="&lt;Path&gt;" class="s5" d="m370.9 482.5c0 4.2-3.3 7.5-7.5 7.5c-4.2 0-7.6-3.3-7.6-7.5c0-4.2 3.4-7.6 7.6-7.6c4.2 0 7.5 3.4 7.5 7.6z" />
							</g>
						</g>
						<g id="&lt;Group&gt;">
							<g id="&lt;Group&gt;">
								<path id="&lt;Path&gt;" class="s5" d="m369.7 432.2c0 7.7-6.2 13.9-13.9 13.9c-7.6 0-13.9-6.2-13.9-13.9c0-7.7 6.3-13.9 13.9-13.9c7.7 0 13.9 6.2 13.9 13.9z" />
							</g>
						</g>
						<g id="&lt;Group&gt;">
							<g id="&lt;Group&gt;">
								<path id="&lt;Path&gt;" class="s5" d="m438.5 428.6c0 4.1-3.3 7.4-7.5 7.4c-4.1 0-7.4-3.3-7.4-7.4c0-4.1 3.3-7.5 7.4-7.5c4.2 0 7.5 3.4 7.5 7.5z" />
							</g>
						</g>
						<g id="&lt;Group&gt;">
							<g id="&lt;Group&gt;">
								<path id="&lt;Path&gt;" class="s5" d="m438.5 388.1c0 5.5-4.4 9.8-9.8 9.8c-5.4 0-9.8-4.3-9.8-9.8c0-5.4 4.4-9.7 9.8-9.7c5.4 0 9.8 4.3 9.8 9.7z" />
							</g>
						</g>
						<g id="&lt;Group&gt;">
							<g id="&lt;Group&gt;">
								<path id="&lt;Path&gt;" class="s5" d="m362.3 383.5c0 11.2-9.1 20.4-20.4 20.4c-11.2 0-20.3-9.2-20.3-20.4c0-11.2 9.1-20.3 20.3-20.3c11.3 0 20.4 9.1 20.4 20.3z" />
							</g>
						</g>
						<g id="&lt;Group&gt;">
							<g id="&lt;Group&gt;">
								<path id="&lt;Path&gt;" class="s5" d="m309.6 428.6c0 3.2-2.6 5.8-5.8 5.8c-3.2 0-5.8-2.6-5.8-5.8c0-3.2 2.6-5.8 5.8-5.8c3.2 0 5.8 2.6 5.8 5.8z" />
							</g>
						</g>
						<g id="&lt;Group&gt;">
							<g id="&lt;Group&gt;">
								<path id="&lt;Path&gt;" class="s5" d="m279.9 393.6c0 7.6-6.3 13.9-13.9 13.9c-7.7 0-13.9-6.3-13.9-13.9c0-7.7 6.2-14 13.9-14c7.6 0 13.9 6.3 13.9 14z" />
							</g>
						</g>
						<g id="&lt;Group&gt;">
							<g id="&lt;Group&gt;">
								<path id="&lt;Path&gt;" class="s5" d="m490.2 388.1c0 3-2.4 5.5-5.4 5.5c-3 0-5.4-2.5-5.4-5.5c0-2.9 2.4-5.4 5.4-5.4c3 0 5.4 2.5 5.4 5.4z" />
							</g>
						</g>
					</g>
					<g id="&lt;Group&gt;">
						<g id="&lt;Group&gt;">
							<g id="&lt;Group&gt;">
								<path id="&lt;Path&gt;" class="s5" d="m348.9 103.6c0 4.1-3.3 7.5-7.4 7.5c-4.2 0-7.5-3.4-7.5-7.5c0-4.1 3.3-7.5 7.5-7.5c4.1 0 7.4 3.4 7.4 7.5z" />
							</g>
						</g>
						<g id="&lt;Group&gt;">
							<g id="&lt;Group&gt;">
								<path id="&lt;Path&gt;" class="s5" d="m403.5 119.1c0 5.4-4.4 9.8-9.8 9.8c-5.4 0-9.8-4.4-9.8-9.8c0-5.4 4.4-9.8 9.8-9.8c5.4 0 9.8 4.4 9.8 9.8z" />
							</g>
						</g>
						<g id="&lt;Group&gt;">
							<g id="&lt;Group&gt;">
								<path id="&lt;Path&gt;" class="s5" d="m388.2 74.1c0 3.2-2.6 5.8-5.8 5.8c-3.2 0-5.8-2.6-5.8-5.8c0-3.2 2.6-5.8 5.8-5.8c3.2 0 5.8 2.6 5.8 5.8z" />
							</g>
						</g>
						<g id="&lt;Group&gt;">
							<g id="&lt;Group&gt;">
								<path id="&lt;Path&gt;" class="s5" d="m296 107.6c0 7.6-6.2 13.9-13.9 13.9c-7.7 0-13.9-6.3-13.9-13.9c0-7.7 6.2-14 13.9-14c7.7 0 13.9 6.3 13.9 14z" />
							</g>
						</g>
						<g id="&lt;Group&gt;">
							<g id="&lt;Group&gt;">
								<path id="&lt;Path&gt;" class="s5" d="m322.4 64.9c0 3-2.4 5.5-5.4 5.5c-3 0-5.4-2.5-5.4-5.5c0-2.9 2.4-5.4 5.4-5.4c3 0 5.4 2.5 5.4 5.4z" />
							</g>
						</g>
					</g>
				</g>
				<g id="&lt;Group&gt;">
					<g id="&lt;Group&gt;">
						<g id="&lt;Group&gt;">
							<g id="&lt;Group&gt;">
								<path id="&lt;Path&gt;" class="s4" d="m456.8 209.1c0 34.1-21.2 61.8-47.4 61.8c-26.2 0-47.4-27.7-47.4-61.8c0-14.9 4-28.5 10.7-39.2q1.8-2.8 3.8-5.3q3.2 2 6.6 3.5c8.3 3.8 17.3 5.6 26.3 5.7c9-0.1 18-1.9 26.3-5.7c2.2-1 4.4-2.2 6.5-3.6q2.1 2.6 3.9 5.4c6.7 10.7 10.7 24.3 10.7 39.2z" />
							</g>
							<g id="&lt;Group&gt;">
								<path id="&lt;Path&gt;" class="s6" d="m462.9 203c0 34.1-21.2 61.8-47.4 61.8c-26.2 0-47.4-27.7-47.4-61.8c0-14.9 4-28.5 10.7-39.2q1.8-2.8 3.8-5.3q3.2 2 6.6 3.5c8.3 3.8 17.3 5.6 26.3 5.7c9-0.1 18-1.9 26.3-5.7c2.2-1 4.4-2.2 6.5-3.6q2.1 2.6 3.9 5.4c6.7 10.7 10.7 24.3 10.7 39.2z" />
							</g>
							<g id="&lt;Group&gt;">
								<path id="&lt;Path&gt;" class="s7" d="m436.4 203c0 18-11.2 32.6-25 32.6c-13.8 0-25-14.6-25-32.6c0-18 11.2-32.6 25-32.6c13.8 0 25 14.6 25 32.6z" />
							</g>
							<g id="&lt;Group&gt;">
								<path id="&lt;Path&gt;" class="s8" d="m421.6 203c0 7.3-4.6 13.2-10.2 13.2c-5.6 0-10.1-5.9-10.1-13.2c0-7.3 4.5-13.2 10.1-13.2c5.6 0 10.2 5.9 10.2 13.2z" />
							</g>
							<g id="&lt;Group&gt;">
								<path id="&lt;Path&gt;" class="s4" d="m463.5 142.1c-1.4 7.4-5.7 14.3-11.3 19.7q-3 2.9-6.5 5.1c-8.8 5.9-19.6 8.9-30.2 8.9c-10.7 0-21.4-3-30.3-8.9c-2.2-1.5-4.4-3.2-6.4-5.1c-5.6-5.4-9.9-12.3-11.3-19.7c4.3 6 9.4 10.7 15.1 14.3q3.2 2 6.6 3.6c8.3 3.8 17.3 5.6 26.3 5.7c9-0.1 18-1.9 26.3-5.7c2.2-1.1 4.4-2.3 6.5-3.6c5.7-3.6 10.9-8.3 15.2-14.3z" />
							</g>
							<g id="&lt;Group&gt;">
								<path id="&lt;Path&gt;" class="s6" d="m409.1 188.7c0 4.3-3.5 7.8-7.8 7.8c-4.3 0-7.8-3.5-7.8-7.8c0-4.3 3.5-7.7 7.8-7.7c4.3 0 7.8 3.4 7.8 7.7z" />
							</g>
						</g>
						<g id="&lt;Group&gt;">
							<g id="&lt;Group&gt;">
								<path id="&lt;Path&gt;" class="s4" d="m312.5 209.1c0 34.1-21.2 61.8-47.3 61.8c-26.2 0-47.4-27.7-47.4-61.8c0-14.9 4-28.5 10.7-39.2q1.8-2.8 3.8-5.3q3.2 2 6.5 3.5c8.3 3.8 17.3 5.6 26.4 5.7c9-0.1 18-1.9 26.3-5.7c2.2-1 4.4-2.2 6.5-3.6q2 2.6 3.8 5.4c6.7 10.7 10.7 24.3 10.7 39.2z" />
							</g>
							<g id="&lt;Group&gt;">
								<path id="&lt;Path&gt;" class="s6" d="m318.6 203c0 34.1-21.2 61.8-47.4 61.8c-26.1 0-47.4-27.7-47.4-61.8c0-14.9 4.1-28.5 10.8-39.2q1.7-2.8 3.8-5.3q3.2 2 6.5 3.5c8.3 3.8 17.3 5.6 26.3 5.7c9.1-0.1 18.1-1.9 26.4-5.7c2.2-1 4.4-2.2 6.5-3.6q2 2.6 3.8 5.4c6.7 10.7 10.7 24.3 10.7 39.2z" />
							</g>
							<g id="&lt;Group&gt;">
								<path id="&lt;Path&gt;" class="s7" d="m300.3 203c0 18-11.2 32.6-25 32.6c-13.8 0-25-14.6-25-32.6c0-18 11.2-32.6 25-32.6c13.8 0 25 14.6 25 32.6z" />
							</g>
							<g id="&lt;Group&gt;">
								<path id="&lt;Path&gt;" class="s4" d="m319.2 142.1c-1.4 7.4-5.6 14.3-11.3 19.7q-3 2.9-6.4 5.1c-8.9 5.9-19.6 8.9-30.3 8.9c-10.6 0-21.3-3-30.2-8.9c-2.3-1.5-4.4-3.2-6.4-5.1c-5.7-5.4-9.9-12.3-11.3-19.7c4.2 6 9.4 10.7 15.1 14.3q3.2 2 6.5 3.6c8.3 3.8 17.3 5.6 26.3 5.7c9.1-0.1 18.1-1.9 26.4-5.7c2.2-1.1 4.4-2.3 6.5-3.6c5.7-3.6 10.9-8.3 15.1-14.3z" />
							</g>
							<g id="&lt;Group&gt;">
								<path id="&lt;Path&gt;" class="s8" d="m285.4 203c0 7.3-4.5 13.2-10.1 13.2c-5.6 0-10.1-5.9-10.1-13.2c0-7.3 4.5-13.2 10.1-13.2c5.6 0 10.1 5.9 10.1 13.2z" />
							</g>
							<g id="&lt;Group&gt;">
								<path id="&lt;Path&gt;" class="s6" d="m272.9 188.7c0 4.3-3.4 7.8-7.7 7.8c-4.3 0-7.8-3.5-7.8-7.8c0-4.3 3.5-7.7 7.8-7.7c4.3 0 7.7 3.4 7.7 7.7z" />
							</g>
						</g>
					</g>
					<g id="&lt;Group&gt;">
						<g id="&lt;Group&gt;">
							<g id="&lt;Group&gt;">
								<path id="&lt;Path&gt;" class="s6" d="m459 309.2c-9.7-5.2-21.7-9.7-35.5-13.3c9.3-11.9 27.7-34.3 33.7-32.4c5.6 1.7 3.6 28.4 1.8 45.7z" />
							</g>
							<g id="&lt;Group&gt;">
								<path id="&lt;Path&gt;" class="s6" d="m272.6 295.9c-13.8 3.6-25.8 8-35.5 13.2c-1.9-17.2-3.8-43.9 1.8-45.6c6.1-1.9 24.4 20.5 33.7 32.4z" />
							</g>
						</g>
						<g id="&lt;Group&gt;">
							<path id="&lt;Path&gt;" class="s4" d="m223.7 318c3.7-4 8.1-7.4 12.7-10.4c4.7-3.1 9.6-5.6 14.6-8c10.1-4.7 20.6-8.1 31.3-10.8c21.5-5.4 43.7-7.7 65.7-7.8c22.1 0 44.2 2.4 65.7 7.7c10.7 2.8 21.3 6.2 31.3 10.9c5 2.4 10 4.9 14.6 8c4.6 3 9 6.4 12.8 10.4c-9.3-5.8-19.3-9.8-29.5-12.8c-10.2-3.1-20.7-5.3-31.2-7.1c-21-3.4-42.4-4.9-63.7-4.9c-21.3 0-42.7 1.4-63.7 4.9c-10.5 1.7-21 4-31.2 7.1c-10.2 3-20.2 6.9-29.4 12.8z" />
						</g>
					</g>
				</g>
			</g>
		</g>
	</g>
</svg>