<svg version="1.2" xmlns="http://www.w3.org/2000/svg" viewBox="0 0 841 903" width="841" height="903">
	<title>vecteezy_happy-halloween-vector-monster-colorful-illustration-flat_-ai</title>
	<style>
		.s0 { fill: #3ab449 } 
		.s1 { fill: #0cf9f7 } 
		.s2 { fill: #00565c } 
		.s3 { fill: #5b2825 } 
		.s4 { fill: #cd1857 } 
		.s5 { fill: #f9f6ed } 
		.s6 { fill: #e9ffff } 
		.s7 { fill: #225568 } 
		.s8 { fill: #289933 } 
	</style>
	<g id="Object">
		<g id="&lt;Group&gt;">
			<g id="&lt;Group&gt;">
				<path id="&lt;Path&gt;" class="s0" d="m522.5 696.1l-10.3 143.2q63.1-1 63.1 40.2h-113.6v-183.4z" />
				<path id="&lt;Path&gt;" class="s0" d="m368.7 696.1v183.4h-113.5q0-41.2 63-40.2l-10.3-143.2z" />
				<path id="&lt;Path&gt;" class="s0" d="m655.3 620.2c0 32.4-8.4 60.5-22.9 84.3c-4.1 6.7-8.6 13-13.6 19c-89.2 107.7-317.9 107.7-407.1 0c-7.2-8.7-13.5-18-18.7-28c-11.4-21.9-17.8-46.9-17.8-75.3c0-16.3 0.5-32.3 1.4-48.1c1.1-18.7 2.8-37 5.1-54.8c25-195.8 120.1-341.5 233.5-341.5c114.2 0 209.8 147.7 234.1 345.6q3.1 24.8 4.6 50.7c0.9 15.8 1.4 31.8 1.4 48.1z" />
				<g id="&lt;Group&gt;">
					<path id="&lt;Path&gt;" class="s0" d="m553.2 150q-10.4 66.3-36.6 75.9q-66.4-6.1-25.3-26.2q41-20 41.9-61.9q30.5-54.2 20 12.2z" />
					<path id="&lt;Path&gt;" class="s0" d="m628.3 96.7c0 41.5-33.6 75.1-75.1 75.1c-41.4 0-75-33.6-75-75.1c0-41.4 33.6-75 75-75c41.5 0 75.1 33.6 75.1 75z" />
					<g id="&lt;Group&gt;">
						<path id="&lt;Path&gt;" class="s1" d="m619.7 101.3c0 36.7-29.7 66.5-66.5 66.5c-36.7 0-66.5-29.8-66.5-66.5c0-36.8 29.8-66.5 66.5-66.5c36.8 0 66.5 29.7 66.5 66.5z" />
					</g>
					<g id="&lt;Group&gt;">
						<path id="&lt;Path&gt;" class="s2" d="m582 130c0 15.8-12.9 28.7-28.8 28.7c-15.8 0-28.7-12.9-28.7-28.7c0-15.9 12.9-28.7 28.7-28.7c15.9 0 28.8 12.8 28.8 28.7z" />
					</g>
				</g>
				<g id="&lt;Group&gt;">
					<path id="&lt;Path&gt;" class="s0" d="m301.9 137.8q0.9 41.9 41.9 61.9q41 20.1-25.3 26.2q-26.2-9.6-36.7-75.9q-10.5-66.4 20.1-12.2z" />
					<path id="&lt;Path&gt;" class="s0" d="m281.8 21.7c41.5 0 75.1 33.6 75.1 75c0 41.5-33.6 75.1-75.1 75.1c-41.4 0-75-33.6-75-75.1c0-41.4 33.6-75 75-75z" />
					<path id="&lt;Path&gt;" class="s1" d="m281.8 34.8c36.7 0 66.5 29.7 66.5 66.5c0 36.7-29.8 66.5-66.5 66.5c-36.7 0-66.5-29.8-66.5-66.5c0-36.8 29.8-66.5 66.5-66.5z" />
					<path id="&lt;Path&gt;" class="s2" d="m281.8 101.3c15.9 0 28.7 12.8 28.7 28.7c0 15.8-12.8 28.7-28.7 28.7c-15.8 0-28.7-12.9-28.7-28.7c0-15.9 12.9-28.7 28.7-28.7z" />
				</g>
				<path id="&lt;Path&gt;" class="s3" d="m524.5 341.7c0 23.6-5.5 45.4-14.7 62.5c-12.2 22.7-30.9 37.1-51.9 37.1c-20.9 0-39.6-14.4-51.8-37.1c-9.2-17.1-14.8-38.9-14.8-62.5c0-8.8 0.8-17.4 2.3-25.5c10.8 7.3 23.2 12.8 36.6 16c8.8 2.1 18.1 3.3 27.7 3.3h0.1q4.2 0 8.3-0.3c9.7-0.7 19-2.5 27.8-5.4c10.2-3.2 19.7-7.9 28.2-13.6c1.5 8.1 2.2 16.7 2.2 25.5z" />
				<path id="&lt;Path&gt;" class="s4" d="m509.8 404.2c-12.2 22.7-30.9 37.1-51.9 37.1c-20.9 0-39.6-14.4-51.8-37.1c14-14.6 32.1-23.5 51.9-23.5c19.7 0 37.8 8.8 51.8 23.5z" />
				<path id="&lt;Path&gt;" class="s5" d="m458 335.5v24.5h-27.8v-27.8c8.8 2.1 18.1 3.3 27.7 3.3z" />
				<path id="&lt;Path&gt;" class="s5" d="m494.1 329.8v30.2h-27.8v-24.8c9.7-0.7 19-2.5 27.8-5.4z" />
				<path id="&lt;Path&gt;" class="s1" d="m655.3 620.2c0 32.4-8.4 60.5-22.9 84.3c-58.5 13.4-127.9 21.2-202.2 21.2c-89.8 0-172.4-11.3-237.2-30.2c-11.4-21.9-17.8-46.9-17.8-75.3c0-16.3 0.5-32.3 1.4-48.1c1.1-18.7 2.8-37 5.1-54.8c73.5 11 158.2 17.3 248.5 17.3c78.4 0 152.8-4.7 219.1-13.2q3.1 24.8 4.6 50.7c0.9 15.8 1.4 31.8 1.4 48.1z" />
				<g id="&lt;Group&gt;">
					<path id="&lt;Path&gt;" class="s6" d="m602.9 620c0 35.1-28.4 63.5-63.4 63.5c-35 0-63.4-28.4-63.4-63.5c0-35 28.4-63.4 63.4-63.4c35 0 63.4 28.4 63.4 63.4z" />
					<path id="&lt;Path&gt;" class="s7" d="m576 633.2c0 20.2-16.4 36.5-36.5 36.5c-20.1 0-36.5-16.3-36.5-36.5c0-20.1 16.4-36.4 36.5-36.4c20.1 0 36.5 16.3 36.5 36.4z" />
					<path id="&lt;Path&gt;" class="s6" d="m563.3 620.3c0 6.9-5.6 12.5-12.5 12.5c-6.9 0-12.5-5.6-12.5-12.5c0-6.9 5.6-12.4 12.5-12.4c6.9 0 12.5 5.5 12.5 12.4z" />
				</g>
				<path id="&lt;Path&gt;" class="s1" d="m202.7 601.2l-64.8 4.1q-0.9-3-1.5-5.7c-4-16.7-3.3-29.3-1.8-37.5q1.3-7.1 3.3-10.8l59.8-28.9z" />
				<path id="&lt;Path&gt;" class="s0" d="m136.4 599.6c-33.7 6.3-73.4 9.9-90.8-3.6q-32.9-25.6-27-125.9q-14.5-62.2 23.6-62.9q38-0.8 18.8 49q19-5.1 19 5.2q0 10.2-32.9 20.4q0.7 75.4 31.5 85.7c12.9 4.3 34.8 0.5 56-5.4c-1.5 8.2-2.2 20.8 1.8 37.5z" />
				<path id="&lt;Path&gt;" class="s1" d="m635.4 522.4l59.9 28.9q1.9 3.7 3.3 10.8c1.5 8.2 2.2 20.8-1.8 37.5q-0.7 2.7-1.5 5.7l-64.9-4.1z" />
				<path id="&lt;Path&gt;" class="s0" d="m698.6 562.1c21.2 5.9 43.1 9.7 56 5.4q30.7-10.3 31.5-85.7q-33-10.2-33-20.4q0-10.3 19-5.2q-19.2-49.8 18.9-49q38.1 0.7 23.6 62.9q5.8 100.3-27.1 125.9c-17.3 13.5-57 9.9-90.7 3.6c4-16.7 3.3-29.3 1.8-37.5z" />
				<path id="&lt;Path&gt;" class="s8" d="m310.5 288.8c0 10.4-8.3 18.7-18.7 18.7c-10.3 0-18.7-8.3-18.7-18.7c0-10.3 8.4-18.7 18.7-18.7c10.4 0 18.7 8.4 18.7 18.7z" />
				<path id="&lt;Path&gt;" class="s8" d="m311.9 360c0 21.4-17.3 38.8-38.8 38.8c-21.4 0-38.8-17.4-38.8-38.8c0-21.5 17.4-38.8 38.8-38.8c21.5 0 38.8 17.3 38.8 38.8z" />
				<path id="&lt;Path&gt;" class="s8" d="m236.4 412.8c0 5.8-4.7 10.5-10.5 10.5c-5.8 0-10.4-4.7-10.4-10.5c0-5.8 4.6-10.5 10.4-10.5c5.8 0 10.5 4.7 10.5 10.5z" />
				<path id="&lt;Path&gt;" class="s8" d="m299.2 428.5c0 10.4-8.4 18.8-18.7 18.8c-10.4 0-18.8-8.4-18.8-18.8c0-10.4 8.4-18.8 18.8-18.8c10.3 0 18.7 8.4 18.7 18.8z" />
				<path id="&lt;Path&gt;" class="s8" d="m251.7 475.6c0 13.3-10.8 24-24 24c-13.3 0-24-10.7-24-24c0-13.2 10.7-24 24-24c13.2 0 24 10.8 24 24z" />
				<path id="&lt;Path&gt;" class="s8" d="m285.1 483.9c0 2.6-2.1 4.6-4.6 4.6c-2.6 0-4.6-2-4.6-4.6c0-2.5 2-4.6 4.6-4.6c2.5 0 4.6 2.1 4.6 4.6z" />
				<path id="&lt;Path&gt;" class="s8" d="m337.9 322.6c0 6.4-5.2 11.6-11.6 11.6c-6.4 0-11.6-5.2-11.6-11.6c0-6.4 5.2-11.7 11.6-11.7c6.4 0 11.6 5.3 11.6 11.7z" />
			</g>
		</g>
	</g>
</svg>