<svg version="1.2" xmlns="http://www.w3.org/2000/svg" viewBox="0 0 603 802" width="603" height="802">
	<title>monstera1-svg</title>
	<style>
		.s0 { fill: #fbb03c } 
		.s1 { fill: #a7013b } 
		.s2 { fill: #0e024a } 
		.s3 { fill: #d51a60 } 
		.s4 { fill: #f9f6ed } 
		.s5 { fill: #0b2648 } 
		.s6 { fill: #e9ffff } 
		.s7 { fill: #9b5705 } 
		.s8 { fill: #d88921 } 
	</style>
	<g id="Object">
		<g id="&lt;Group&gt;">
			<g id="&lt;Group&gt;">
				<path id="&lt;Path&gt;" class="s0" d="m251.1 700.8l40.6 5.2l2 95.3h-151.3q2.3-72.4 96.6-59.9v-36.7z" />
				<path id="&lt;Path&gt;" class="s0" d="m370.3 704.7v36.7q94.3-12.5 96.5 59.9h-151.2l2-95.3l40.6-5.2z" />
				<path id="&lt;Path&gt;" class="s1" d="m306.7 654l-11.1 60.8h-68.1l5.3-70.7z" />
				<path id="&lt;Path&gt;" class="s1" d="m376.5 644.1l5.2 70.7h-68l-11.2-60.8z" />
				<path id="&lt;Path&gt;" class="s2" d="m358.8 511.9q40-6.1 88.4-25q27.7-10.9 72.1-29.9q-3.4-32.1 4.2-37.5q7.5-5.3 14.6 16.3q29.7-52 55.9-20.1q30.5 37.2-51.2 66.1q-60.8 30.8-94.6 48q-33.5 17.1-84.1 31.6z" />
				<path id="&lt;Path&gt;" class="s2" d="m239.1 561.4q-50.5-14.5-84.1-31.6q-33.8-17.2-94.6-48q-81.7-28.9-51.2-66.1q26.2-31.9 55.9 20.1q7.1-21.6 14.7-16.3q7.6 5.4 4.2 37.5q44.3 19 72 29.9q48.5 18.9 88.5 25z" />
				<g id="&lt;Group&gt;">
					<path id="&lt;Path&gt;" class="s0" d="m154.1 449.7c0.5 17.8-8.3 29.4-15.8 29.5c-7.4 0.1-13.2-11.5-13.7-12.5q-12.5 29.5-18.3 28.2q-7.6-1.6-4-54.3q-14.5 14.6-20.3 11.7q-8.8-4.4 2.7-49.7q-18.5 42.4-26.2 40.6q-12.4-3 3.2-121.1q-13.5 12.5-18.3 9.8q-9.9-5.7 18.3-77.9q-14.2 7.6-18.3 3.9q-8.3-7.5 25.5-61.5c-9.9 4.1-18.3 6.6-20.2 3.9c-5.7-8 43.4-67.8 70-62.2c27.1 5.7 45 82.1 35.4 311.6z" />
					<path id="&lt;Path&gt;" class="s0" d="m492 138.1c26.6-5.6 75.7 54.2 70 62.2c-1.9 2.7-10.3 0.2-20.3-3.9q33.8 54 25.6 61.5q-4.1 3.7-18.4-3.9q28.3 72.2 18.4 77.9q-4.8 2.7-18.4-9.8q15.7 118.1 3.3 121.1q-7.7 1.8-26.2-40.6q11.5 45.3 2.6 49.7q-5.8 2.9-20.3-11.7q3.6 52.7-3.9 54.3q-5.8 1.3-18.3-28.2c-0.5 1-6.3 12.6-13.8 12.5c-7.4-0.1-16.3-11.7-15.7-29.5c-9.6-229.5 8.2-305.9 35.4-311.6z" />
				</g>
				<g id="&lt;Group&gt;">
					<path id="&lt;Path&gt;" class="s2" d="m386 117.7c1.1-6.3 45-93.3 79.8-91.2q34.8 2.2-21.8 141.2z" />
					<path id="&lt;Path&gt;" class="s2" d="m169.6 167.7q-56.7-139-21.9-141.2c34.9-2.1 78.8 84.9 79.8 91.2z" />
				</g>
				<path id="&lt;Path&gt;" class="s3" d="m392.8 663.2c-24.9 6.6-54.5 10.4-86.2 10.4c-32.8 0-63.3-4.1-88.7-11.1l7.5-113.1l6-90.4h147.8l6 89.7z" />
				<path id="&lt;Path&gt;" class="s0" d="m527.9 221.9v107.4c0 86.7-70.3 157.1-157.1 157.1h-130.9c-86.8 0-157.1-70.4-157.1-157.1v-107.4c0-86.8 70.3-157.1 157.1-157.1h130.9c86.8 0 157.1 70.3 157.1 157.1z" />
				<path id="&lt;Path&gt;" class="s0" d="m287 72.6q-38.9-38.9-34.7-44.5q3.6-4.5 36.7 13.8c3.1-16 10.2-26.1 15.1-25.6c4.6 0.6 8.8 11 9.1 24.9q36.9-44.2 43.9-39.9q8.4 5.1-25.5 79.2q-22.3-3.9-44.6-7.9z" />
				<path id="&lt;Path&gt;" class="s4" d="m426.4 249.8c0 66.8-54.2 121-121.1 121c-66.8 0-121-54.2-121-121c0-66.9 54.2-121.1 121-121.1c66.9 0 121.1 54.2 121.1 121.1z" />
				<path id="&lt;Path&gt;" class="s5" d="m372.5 276.8c0 37.1-30.1 67.2-67.2 67.2c-37 0-67.1-30.1-67.1-67.2c0-37.1 30.1-67.1 67.1-67.1c37.1 0 67.2 30 67.2 67.1z" />
				<path id="&lt;Path&gt;" class="s6" d="m249.7 402.6l-10.2 18.6c-8.2-3.6-15.5-8-21.8-12.8l9.9-17.9z" />
				<path id="&lt;Path&gt;" class="s6" d="m279.2 431.9c-7.2-0.7-14.7-2.1-22.3-4.3q-1.2-0.3-2.5-0.7l4.2-21.6l24.8 4.8z" />
				<path id="&lt;Path&gt;" class="s7" d="m192.4 385c7.5 9.7 17.1 16.8 27.2 22.7c5.1 2.8 10.3 5.4 15.8 7.6c5.4 2.3 10.9 4.1 16.5 5.8q8.5 2.4 17.1 3.8q2.2 0.4 4.4 0.7l4.3 0.3c2.9 0.2 5.8 0.7 8.8 0.8c5.8 0.2 11.7 0.1 17.6-0.7c5.9-0.7 11.7-2.1 17.4-4.3c-4.6 4.1-10.4 6.9-16.3 9c-6 2-12.2 3.3-18.5 3.7c-3.1 0.3-6.3 0.2-9.5 0.2h-4.7q-2.4-0.2-4.7-0.4c-6.3-0.7-12.5-1.9-18.6-3.7c-6-1.7-12-3.9-17.7-6.7c-5.6-2.7-11.1-5.9-16.1-9.7c-10.1-7.5-19.1-17.3-23-29.1z" />
				<g id="&lt;Group&gt;">
					<path id="&lt;Path&gt;" class="s6" d="m341.9 547.7c0 21.7-17.6 39.4-39.4 39.4c-21.7 0-39.4-17.7-39.4-39.4c0-21.8 17.7-39.4 39.4-39.4c21.8 0 39.4 17.6 39.4 39.4z" />
					<path id="&lt;Path&gt;" class="s5" d="m325.2 555.9c0 12.5-10.2 22.6-22.7 22.6c-12.5 0-22.6-10.1-22.6-22.6c0-12.5 10.1-22.7 22.6-22.7c12.5 0 22.7 10.2 22.7 22.7z" />
					<path id="&lt;Path&gt;" class="s6" d="m317.3 547.9c0 4.3-3.4 7.7-7.7 7.7c-4.3 0-7.8-3.4-7.8-7.7c0-4.3 3.5-7.8 7.8-7.8c4.3 0 7.7 3.5 7.7 7.8z" />
				</g>
				<g id="&lt;Group&gt;">
					<path id="&lt;Path&gt;" class="s8" d="m524 354.9c0 11.8-9.5 21.3-21.3 21.3c-11.7 0-21.2-9.5-21.2-21.3c0-11.7 9.5-21.2 21.2-21.2c11.8 0 21.3 9.5 21.3 21.2z" />
					<path id="&lt;Path&gt;" class="s8" d="m522.1 387.7c0 5.6-4.6 10.1-10.2 10.1c-5.6 0-10.1-4.5-10.1-10.1c0-5.6 4.5-10.2 10.1-10.2c5.6 0 10.2 4.6 10.2 10.2z" />
					<path id="&lt;Path&gt;" class="s8" d="m492.9 409.8c0 8.3-6.7 15-15 15c-8.3 0-15.1-6.7-15.1-15c0-8.3 6.8-15.1 15.1-15.1c8.3 0 15 6.8 15 15.1z" />
					<path id="&lt;Path&gt;" class="s8" d="m456.3 434.6c0 6.5-5.3 11.8-11.8 11.8c-6.5 0-11.8-5.3-11.8-11.8c0-6.5 5.3-11.8 11.8-11.8c6.5 0 11.8 5.3 11.8 11.8z" />
					<path id="&lt;Path&gt;" class="s8" d="m474.6 378.8c0 4.1-3.3 7.5-7.4 7.5c-4.1 0-7.5-3.4-7.5-7.5c0-4.1 3.4-7.4 7.5-7.4c4.1 0 7.4 3.3 7.4 7.4z" />
					<path id="&lt;Path&gt;" class="s8" d="m453.3 412.7c0 1.7-1.3 3-2.9 3c-1.6 0-3-1.3-3-3c0-1.6 1.4-2.9 3-2.9c1.6 0 2.9 1.3 2.9 2.9z" />
					<path id="&lt;Path&gt;" class="s8" d="m511.9 409.8c0 2.3-1.9 4.2-4.2 4.2c-2.4 0-4.3-1.9-4.3-4.2c0-2.4 1.9-4.3 4.3-4.3c2.3 0 4.2 1.9 4.2 4.3z" />
				</g>
			</g>
		</g>
	</g>
</svg>