<svg version="1.2" xmlns="http://www.w3.org/2000/svg" viewBox="0 0 529 625" width="529" height="625">
	<title>monsterc4-svg</title>
	<style>
		.s0 { fill: #153315 } 
		.s1 { fill: #2a532a } 
		.s2 { fill: #39b549 } 
		.s3 { fill: #ffffff } 
		.s4 { fill: #2e3648 } 
		.s5 { fill: #7e264d } 
		.s6 { fill: #d3165c } 
	</style>
	<g id="Object">
		<g id="&lt;Group&gt;">
			<g id="&lt;Group&gt;">
				<path id="&lt;Path&gt;" class="s0" d="m270.3 293.1q-25.6-165.4 89.3-196.8q114.9-31.4 117.2-95.9q50.5 128.2-41.9 190.2c-72.2 48.4-141.3-62.9-150.6 112.4z" />
				<path id="&lt;Path&gt;" class="s0" d="m210.9 303c-9.4-175.3-78.4-64-150.7-112.4q-92.3-62-41.9-190.2q2.4 64.5 117.3 95.9q114.9 31.4 89.2 196.8z" />
				<path id="&lt;Path&gt;" class="s1" d="m244.7 540.4c-13.5 46.8 19.6 56.1 17.9 69.5c-1.7 13.4-91.2 23.9-85.6 2.8c5.7-21.5 81 10.2 61.3-12q-19.7-22.1-23.4-53.3q43.2-53.8 29.8-7z" />
				<path id="&lt;Path&gt;" class="s1" d="m315.6 547.4q-3.6 31.2-23.3 53.3c-19.8 22.2 55.5-9.5 61.2 12c5.6 21.1-83.9 10.6-85.6-2.8c-1.6-13.4 31.4-22.7 18-69.5q-13.4-46.8 29.7 7z" />
				<g id="&lt;Group&gt;">
					<path id="&lt;Path&gt;" class="s1" d="m347.7 425.2q74.2-5.1 96.8-66.4c28.6-77.5 93.9 20.5 24.7 70.8q-52.3 38.1-120.2 26.6" />
					<path id="&lt;Path&gt;" class="s1" d="m453.9 350.1q-26.1-20.7-17.2-31.1q8.8-10.5 19.2 28.6z" />
					<path id="&lt;Path&gt;" class="s1" d="m473.3 339q-11.9-31.1 1.1-35.6q12.9-4.5 1.9 34.4z" />
					<path id="&lt;Path&gt;" class="s1" d="m489 349.9q9.2-32 22.3-27.9q13 4.2-19.2 28.7z" />
					<path id="&lt;Path&gt;" class="s1" d="m492.6 364.5q27.9-18.3 35.1-6.6q7.1 11.7-33.3 9.2z" />
				</g>
				<g id="&lt;Group&gt;">
					<path id="&lt;Path&gt;" class="s1" d="m181.1 445.9q-67.9 11.5-120.2-26.6c-69.2-50.3-3.9-148.3 24.7-70.8q22.6 61.3 96.8 66.4" />
					<path id="&lt;Path&gt;" class="s1" d="m74.2 337.3q10.4-39.1 19.2-28.6q8.8 10.4-17.3 31.1z" />
					<path id="&lt;Path&gt;" class="s1" d="m53.8 327.5q-11-38.9 1.9-34.4q12.9 4.5 1 35.6z" />
					<path id="&lt;Path&gt;" class="s1" d="m37.9 340.4q-32.1-24.5-19.1-28.7q13-4.1 22.2 27.9z" />
					<path id="&lt;Path&gt;" class="s1" d="m35.6 356.8q-40.3 2.5-33.2-9.2q7.1-11.7 35 6.6z" />
				</g>
				<path id="&lt;Path&gt;" class="s2" d="m449.9 313.1q-12.8-12.2-25.6-24.4c1 1.1 17.4 21.7 8.9 46.7c-7.3 21.7-27.5 29.1-30 30q-3.2-13.1-6.3-26.3c0.8 4.8 5.2 31.9-12.6 52.7c-5.9 6.8-12.6 11.1-17.8 13.7q-0.4-10.6-0.8-21.2c-7.6 3.1-16.5 8.3-18.1 16.4c-2.6 12.5 14 23.9 21.1 32.6c13.6 16.5 16.5 51.9-26 133.5q-12.4-7.6-24.8-15.2q-1.4 6.1-4.1 6.7q-5.2 1.1-15.2-18.9c-9.5 6.6-24.2 15.9-33.7 22.6c-9.6-6.7-24.3-16-33.8-22.6q-10 20-15.2 18.9q-2.7-0.6-4.1-6.7q-12.4 7.6-24.8 15.2c-42.5-81.6-39.6-117-26-133.5c7.1-8.7 23.7-20.1 21.2-32.6c-1.7-8.1-10.6-13.3-18.2-16.4q-0.4 10.6-0.8 21.2c-5.2-2.6-11.9-6.9-17.8-13.7c-17.8-20.8-13.4-47.9-12.6-52.7q-3.1 13.2-6.3 26.3c-2.5-0.9-22.6-8.3-30-30c-8.5-25 7.9-45.6 8.9-46.7q-12.8 12.2-25.6 24.4c-5.8-20.1-10.6-48.7-4.5-81.2c10.9-57.2 55-122.8 119.1-132.4c25.2-3.8 58.2-0.8 70.5 3.7c12.3-4.5 45.2-7.5 70.4-3.7c64.1 9.6 108.2 75.2 119.1 132.4c6.1 32.5 1.4 61.1-4.5 81.2z" />
				<path id="&lt;Path&gt;" class="s3" d="m369.8 191.9c0 38.7-22.2 70.1-49.5 70.1c-27.3 0-49.5-31.4-49.5-70.1c0-38.7 22.2-70.1 49.5-70.1c27.3 0 49.5 31.4 49.5 70.1z" />
				<path id="&lt;Path&gt;" class="s4" d="m345.7 174c0 17.6-11.4 31.9-25.4 31.9c-14 0-25.4-14.3-25.4-31.9c0-17.6 11.4-31.8 25.4-31.8c14 0 25.4 14.2 25.4 31.8z" />
				<path id="&lt;Path&gt;" class="s3" d="m257.9 225.6c0 32.2-18.4 58.3-41.1 58.3c-22.8 0-41.2-26.1-41.2-58.3c0-32.1 18.4-58.2 41.2-58.2c22.7 0 41.1 26.1 41.1 58.2z" />
				<path id="&lt;Path&gt;" class="s4" d="m237.9 210.8c0 14.6-9.5 26.5-21.1 26.5c-11.7 0-21.2-11.9-21.2-26.5c0-14.6 9.5-26.5 21.2-26.5c11.6 0 21.1 11.9 21.1 26.5z" />
				<path id="&lt;Path&gt;" class="s5" d="m359.4 320.6v0.8c0 14.5-7 27.8-18.6 38.1c-14.4 12.8-36 20.9-60.2 20.9c-24.1 0-45.7-8.1-60.2-20.9c-11.6-10.3-18.6-23.6-18.6-38.1v-0.8c0.3-15.2 15.4-24.8 29.2-20.1q1.7 0.6 3.4 1.5c13 7.1 29 11.2 46.2 11.2c17.3 0 33.2-4.1 46.2-11.2q1.7-0.9 3.5-1.5c13.7-4.7 28.8 4.9 29.1 20.1z" />
				<path id="&lt;Path&gt;" class="s6" d="m340.8 359.5c-14.4 12.8-36 20.9-60.2 20.9c-24.1 0-45.7-8.1-60.2-20.9c14.5-12.8 36.1-21 60.2-21c24.2 0 45.8 8.2 60.2 21z" />
				<path id="&lt;Path&gt;" class="s3" d="m331.5 312.7c0 12.6-3.6 22.7-8.1 22.7c-4.2 0-7.6-8.7-8.1-19.9c-7 4.4-19.9 7.4-34.7 7.4c-14.8 0-27.7-3-34.6-7.4c-0.5 11.2-4 19.9-8.1 19.9c-4.5 0-8.2-10.1-8.2-22.7c0-4.5 0.5-8.6 1.3-12.2q1.7 0.6 3.4 1.5c13 7.1 29 11.2 46.2 11.2c17.3 0 33.2-4.1 46.2-11.2q1.7-0.9 3.5-1.5c0.8 3.6 1.2 7.7 1.2 12.2z" />
			</g>
		</g>
	</g>
</svg>