<svg version="1.2" xmlns="http://www.w3.org/2000/svg" viewBox="0 0 518 815" width="518" height="815">
	<title>vecteezy_happy-halloween-vector-monster-colorful-illustration-flat_-ai</title>
	<style>
		.s0 { fill: #d8d8d8 } 
		.s1 { fill: #c84e90 } 
		.s2 { fill: #098baa } 
		.s3 { fill: #0b6884 } 
		.s4 { fill: #e9ffff } 
		.s5 { fill: #ff92cb } 
		.s6 { fill: #225568 } 
		.s7 { fill: #a14073 } 
		.s8 { fill: #c31b61 } 
		.s9 { fill: #f7f7ef } 
	</style>
	<g id="Object">
		<g id="&lt;Group&gt;">
			<path id="&lt;Path&gt;" class="s0" d="m369.8 790.5c0 8.5-46.5 15.5-103.8 15.5c-57.4 0-103.9-7-103.9-15.5c0-8.6 46.5-15.5 103.9-15.5c57.3 0 103.8 6.9 103.8 15.5z" />
			<g id="&lt;Group&gt;">
				<g id="&lt;Group&gt;">
					<g id="&lt;Group&gt;">
						<path id="&lt;Path&gt;" class="s1" d="m243.9 651.6q-1.4 27.7 0.6 57.7c0.9 13.5 15.2 70.7-0.8 77.7c-11.2 4.8-42.2 6.2-43.9-6.1q-1.7-13.5 22.7-16.9q-11.3-40.6-13.6-64.8q-2.5-25.6-1.7-71.5z" />
						<path id="&lt;Path&gt;" class="s1" d="m329.1 627.7q0.7 45.9-1.7 71.5q-2.3 24.2-13.6 64.8q24.4 3.4 22.6 16.9c-1.6 12.3-32.6 10.9-43.9 6.1c-16-7-1.7-64.2-0.8-77.7q2-30 0.6-57.7z" />
						<path id="&lt;Path&gt;" class="s2" d="m363.1 649c-26.7 5.6-58.5 8.8-92.5 8.8c-35.2 0-67.9-3.4-95.2-9.4l8.1-96.2l6.5-76.9h158.5l6.4 76.3z" />
						<path id="&lt;Path&gt;" class="s2" d="m206.8 533.3l-42.6 2.7q-0.5-1.9-1-3.8c-2.6-10.9-2.1-19.2-1.1-24.5q0.8-4.7 2.1-7.1l39.3-19z" />
						<path id="&lt;Path&gt;" class="s1" d="m371.5 486.5q10.5 36 13.7 62.9q3.3 27.2 7.5 80.2q9.5 40.8-15.5 41.3q-24.9 0.4-12.3-32.2q-12.5 3.3-12.5-3.4q0-6.7 21.6-13.4q-2.7-35.3-10.4-55.1q-13.5-34.8-18.5-62.8z" />
						<path id="&lt;Path&gt;" class="s2" d="m369.2 478.2l14.8 40q-20 12.8-33.9 10.2l-29.5-32.1z" />
						<path id="&lt;Path&gt;" class="s3" d="m371.5 107.1q47.1-2.6 69-65.4q63.5 69.4-19 120.4q-82.5 51.1-50-55z" />
						<path id="&lt;Path&gt;" class="s4" d="m327.9 482c0 22.6-26.3 40.9-58.6 40.9c-32.4 0-58.7-18.3-58.7-40.9c0-22.5 26.3-40.8 58.7-40.8c32.3 0 58.6 18.3 58.6 40.8z" />
						<path id="&lt;Path&gt;" class="s1" d="m319.6 482c0 19.4-22.5 35.1-50.3 35.1c-27.9 0-50.4-15.7-50.4-35.1c0-19.4 22.5-35.1 50.4-35.1c27.8 0 50.3 15.7 50.3 35.1z" />
						<path id="&lt;Path&gt;" class="s3" d="m123.5 162.1q-82.5-51-19-120.4q21.8 62.8 68.9 65.4q32.6 106.1-49.9 55z" />
						<path id="&lt;Path&gt;" class="s5" d="m486.2 287.8c0 119.1-96.5 215.6-215.6 215.6c-119.1 0-215.6-96.5-215.6-215.6c0-119.1 96.5-215.6 215.6-215.6c119.1 0 215.6 96.5 215.6 215.6z" />
						<path id="&lt;Path&gt;" class="s4" d="m387.6 269.1c0 59.6-48.3 107.9-107.9 107.9c-59.6 0-107.9-48.3-107.9-107.9c0-59.6 48.3-107.9 107.9-107.9c59.6 0 107.9 48.3 107.9 107.9z" />
						<path id="&lt;Path&gt;" class="s2" d="m334.3 287.2c0 30.1-24.4 54.6-54.6 54.6c-30.1 0-54.6-24.5-54.6-54.6c0-30.2 24.5-54.6 54.6-54.6c30.2 0 54.6 24.4 54.6 54.6z" />
						<path id="&lt;Path&gt;" class="s6" d="m314 292.3c0 18.9-15.4 34.3-34.3 34.3c-18.9 0-34.2-15.4-34.2-34.3c0-18.9 15.3-34.2 34.2-34.2c18.9 0 34.3 15.3 34.3 34.2z" />
						<path id="&lt;Path&gt;" class="s7" d="m326 396.9c0 13.9-6.1 26.3-15.8 34.8c-8.1 7.1-18.8 11.5-30.5 11.5c-11.7 0-22.4-4.4-30.5-11.5c-9.7-8.5-15.8-20.9-15.8-34.8z" />
						<path id="&lt;Path&gt;" class="s8" d="m310.2 431.7c-8.1 7.1-18.8 11.5-30.5 11.5c-11.7 0-22.4-4.4-30.5-11.5c8.1-7.2 18.8-11.5 30.5-11.5c11.7 0 22.4 4.3 30.5 11.5z" />
						<g id="&lt;Group&gt;">
							<path id="&lt;Path&gt;" class="s9" d="m262.4 396.9l-8.5 23.1l-8.6-23.1z" />
							<path id="&lt;Path&gt;" class="s9" d="m314.1 396.9l-8.6 23.1l-8.6-23.1z" />
						</g>
						<path id="&lt;Path&gt;" class="s1" d="m163.2 532.2c-22.1 4.2-48.1 6.6-59.5-2.3q-21.6-16.8-17.8-82.6q-9.4-40.8 15.5-41.3q25-0.4 12.4 32.2q12.5-3.4 12.5 3.4q0 6.7-21.6 13.4q0.5 49.5 20.6 56.2c8.5 2.8 22.8 0.3 36.8-3.5c-1 5.3-1.5 13.6 1.1 24.5z" />
						<path id="&lt;Path&gt;" class="s4" d="m299.7 583.2c0 16.1-13 29.1-29.1 29.1c-16.1 0-29.1-13-29.1-29.1c0-16.1 13-29.1 29.1-29.1c16.1 0 29.1 13 29.1 29.1z" />
						<path id="&lt;Path&gt;" class="s6" d="m287.3 589.3c0 9.2-7.4 16.7-16.7 16.7c-9.2 0-16.7-7.5-16.7-16.7c0-9.3 7.5-16.8 16.7-16.8c9.3 0 16.7 7.5 16.7 16.8z" />
					</g>
					<path id="&lt;Path&gt;" class="s4" d="m281.5 583.4c0 3.1-2.5 5.7-5.7 5.7c-3.1 0-5.7-2.6-5.7-5.7c0-3.2 2.6-5.8 5.7-5.8c3.2 0 5.7 2.6 5.7 5.8z" />
				</g>
				<g id="&lt;Group&gt;">
					<path id="&lt;Path&gt;" class="s1" d="m324.2 136.4c0 7.9-6.4 14.3-14.3 14.3c-7.8 0-14.2-6.4-14.2-14.3c0-7.9 6.4-14.3 14.2-14.3c7.9 0 14.3 6.4 14.3 14.3z" />
					<path id="&lt;Path&gt;" class="s1" d="m254.5 103.8c0 11-9 20-20 20c-11 0-20-9-20-20c0-11.1 9-20 20-20c11 0 20 8.9 20 20z" />
					<path id="&lt;Path&gt;" class="s1" d="m274.5 127.4c0 2.7-2.2 4.9-4.9 4.9c-2.7 0-4.9-2.2-4.9-4.9c0-2.7 2.2-4.8 4.9-4.8c2.7 0 4.9 2.1 4.9 4.8z" />
					<path id="&lt;Path&gt;" class="s1" d="m203.5 100.9c0 3.6-2.9 6.5-6.5 6.5c-3.6 0-6.5-2.9-6.5-6.5c0-3.6 2.9-6.4 6.5-6.4c3.6 0 6.5 2.8 6.5 6.4z" />
					<path id="&lt;Path&gt;" class="s1" d="m291.2 98.1c0 4.7-3.8 8.6-8.5 8.6c-4.8 0-8.6-3.9-8.6-8.6c0-4.7 3.8-8.6 8.6-8.6c4.7 0 8.5 3.9 8.5 8.6z" />
					<path id="&lt;Path&gt;" class="s1" d="m334.4 100.5c0 7.9-6.4 14.3-14.3 14.3c-7.8 0-14.2-6.4-14.2-14.3c0-7.9 6.4-14.3 14.2-14.3c7.9 0 14.3 6.4 14.3 14.3z" />
					<path id="&lt;Path&gt;" class="s1" d="m358.8 114.8c0 5.4-4.4 9.9-9.8 9.9c-5.5 0-9.9-4.5-9.9-9.9c0-5.5 4.4-9.9 9.9-9.9c5.4 0 9.8 4.4 9.8 9.9z" />
				</g>
			</g>
		</g>
	</g>
</svg>