<svg version="1.2" xmlns="http://www.w3.org/2000/svg" viewBox="0 0 782 605" width="782" height="605">
	<title>monsterc6-svg</title>
	<style>
		.s0 { fill: #d2487b } 
		.s1 { fill: #94053a } 
		.s2 { fill: #d61b61 } 
		.s3 { fill: #0bfdfb } 
		.s4 { fill: #0a111c } 
		.s5 { fill: #ef307e } 
	</style>
	<g id="Object">
		<g id="&lt;Group&gt;">
			<g id="&lt;Group&gt;">
				<path id="&lt;Path&gt;" class="s0" d="m443.7 116.7q-3.4 43 17 96.2l-78.5-14.6q38.6-27.1 31.6-75.3z" />
				<path id="&lt;Path&gt;" class="s0" d="m332.8 140q-0.2 38.9 33.2 56.1l-60.4 20.1q10.3-44.3 2.9-77.9z" />
				<g id="&lt;Group&gt;">
					<path id="&lt;Path&gt;" class="s1" d="m639 179.9c11.9 14.8 45.6-5.8 53.8-49.5c8.1-43.6-57.7-70.7-38.9-96.7c18.9-25.9 119.7 38.2 127.2 88.3c7.4 50.1-37.6 123.3-87.6 127.5c-50 4.2-108.2-26.2-113.5-65c-5.3-38.9 41.3-98 57.4-82.7c13.9 13.1-22.6 47.7 1.6 78.1z" />
					<path id="&lt;Path&gt;" class="s1" d="m693.4 237.1q-7 102.9-132.3 131.4l-13.5-23.1q82.9-49.4 63.1-132.9l45.9-1.8z" />
				</g>
				<g id="&lt;Group&gt;">
					<path id="&lt;Path&gt;" class="s1" d="m144.4 101.8c16.2-15.3 62.8 43.8 57.4 82.7c-5.3 38.8-63.5 69.2-113.4 65c-50-4.2-95-77.4-87.6-127.5c7.4-50.1 108.3-114.2 127.1-88.3c18.9 26-47 53.1-38.8 96.7c8.1 43.7 41.9 64.3 53.7 49.5c24.3-30.4-12.2-65 1.6-78.1z" />
					<path id="&lt;Path&gt;" class="s1" d="m125.2 210.7l46 1.8q-19.8 83.5 63 132.9l-13.4 23.1q-125.3-28.5-132.3-131.4z" />
				</g>
				<g id="&lt;Group&gt;">
					<path id="&lt;Path&gt;" class="s1" d="m483.5 485.4q25.5 68-7.7 104.1c-33.3 36.2-42-0.2-35.2-28.4c6.7-28.2 30.3-24.4 18.5-64l14.7-17.6z" />
					<path id="&lt;Path&gt;" class="s1" d="m333 479.5l14.7 17.6c-11.7 39.6 11.8 35.8 18.6 64c6.7 28.2-2 64.6-35.2 28.4q-33.3-36.1-7.8-104.1z" />
				</g>
				<path id="&lt;Path&gt;" class="s0" d="m542 331.4c0 85-69 154-154 154c-85.1 0-154-69-154-154c0-85.1 68.9-154 154-154c85 0 154 68.9 154 154z" />
				<path id="&lt;Path&gt;" class="s2" d="m582.4 335.9c0 107.3-87.1 194.3-194.4 194.3c-107.4 0-194.4-87-194.4-194.3c0-22.5 3.9-44.1 10.9-64.2l21.3 13.6l25.9-40.4l24.6 30.9l37.8-57.4l7.6 38.5l21.8-21.4l17.3 32.8l27.2-50.5l30.9 32.2l22.1-51.4l46.7 29.9l22.9-43.5c43.8 35.7 71.8 90 71.8 150.9z" />
				<path id="&lt;Path&gt;" class="s3" d="m473.3 70.3c-0.1 38.4-22.6 69.4-50.3 69.3c-27.7-0.1-50.1-31.3-50-69.6c0.2-38.4 22.7-69.4 50.4-69.3c27.7 0.1 50.1 31.3 49.9 69.6z" />
				<path id="&lt;Path&gt;" class="s4" d="m451.1 49.1c0 17.3-12.6 31.2-28 31.1c-15.5 0-28-14-27.9-31.3c0.1-17.2 12.6-31.1 28.1-31.1c15.4 0.1 27.9 14.1 27.8 31.3z" />
				<path id="&lt;Path&gt;" class="s3" d="m311.8 44.4c21.9-3.1 43.1 19 47.4 49.3c4.3 30.3-9.9 57.3-31.8 60.4c-21.9 3.1-43.1-18.9-47.4-49.2c-4.3-30.3 10-57.4 31.8-60.5z" />
				<path id="&lt;Path&gt;" class="s4" d="m313.8 58c12.2-1.8 23.7 7.9 25.6 21.5c1.9 13.6-6.4 26-18.6 27.7c-12.2 1.8-23.6-7.9-25.6-21.5c-1.9-13.6 6.4-26 18.6-27.7z" />
				<path id="&lt;Path&gt;" class="s5" d="m482 424.1c0 38.9-42.1 70.5-94 70.5c-51.9 0-94-31.6-94-70.5c0-39 188-39 188 0z" />
			</g>
		</g>
	</g>
</svg>