<svg version="1.2" xmlns="http://www.w3.org/2000/svg" viewBox="0 0 826 736" width="826" height="736">
	<title>vecteezy_happy-halloween-vector-monster-colorful-illustration-flat_-ai</title>
	<style>
		.s0 { fill: #d31b60 } 
		.s1 { fill: #7e0230 } 
		.s2 { fill: #bc0f56 } 
		.s3 { fill: #ffffff } 
		.s4 { fill: #212b26 } 
	</style>
	<g id="Object">
		<g id="&lt;Group&gt;">
			<g id="&lt;Group&gt;">
				<path id="&lt;Path&gt;" class="s0" d="m117.8 551q-14.6 26.3-26.4 32.6c-11.8 6.3-19.7-90.4-8.6-99.1c11-8.6 95 28 87.3 44.1q-4.9 10.1-32.7 10.6z" />
				<g id="&lt;Group&gt;">
					<path id="&lt;Path&gt;" class="s1" d="m373.4 555.7l-22.8 35.4q-57.8-53.9-42.5-61.4q15.4-7.4 54.7 2z" />
					<path id="&lt;Path&gt;" class="s1" d="m300.7 637.1q-20.5-39.3-10.6-46q9.8-6.7 46.6 13.5z" />
					<path id="&lt;Path&gt;" class="s1" d="m220 641.1q13.3-42 27.9-39.3q14.5 2.8 24.8 43.6z" />
					<path id="&lt;Path&gt;" class="s1" d="m165.7 598.3q31.1-20 39.1-10.4q7.9 9.6-7.4 41.4z" />
					<path id="&lt;Path&gt;" class="s1" d="m132 561.8q30.9-12 36.1-2.2q5.3 9.8-13.7 35.2z" />
				</g>
				<path id="&lt;Path&gt;" class="s2" d="m427.7 462.9l56.7 47.2c-28.4 105.4-137.8 203.7-225.1 182.5q-85.9-20.9-141.5-141.6l4.4-12.9l15.2 1.1q74 119.6 148.7 90.5q74.8-29.2 70.8-122.8z" />
				<g id="&lt;Group&gt;">
					<path id="&lt;Path&gt;" class="s1" d="m547 91.2q91.8-23.2 82.8-90.1q46.6 113.9-59.7 154.8q-47.2-29.3-23.1-64.7z" />
					<path id="&lt;Path&gt;" class="s1" d="m641.2 561.9q3.4 64.6-4.4 113.5q53.4-33.4 62.3 13.9h-72.9q-4.4-82.3-10.5-95.1q-6.2-12.8 25.5-32.3z" />
					<path id="&lt;Path&gt;" class="s1" d="m501.1 561.9q3.3 64.6-4.5 113.5q53.4-33.4 62.3 13.9h-72.9q-4.4-82.3-10.5-95.1q-6.1-12.8 25.6-32.3z" />
					<path id="&lt;Path&gt;" class="s1" d="m398.6 132.5c24.5 17.5 34.7 45 22.9 61.5c-11.8 16.5-41.1 15.7-65.6-1.7c-24.4-17.5-34.6-45-22.8-61.5c11.7-16.5 41.1-15.7 65.5 1.7z" />
					<path id="&lt;Path&gt;" class="s1" d="m354.9 205.1c23.2 6 37.8 26.8 32.7 46.4c-5.1 19.6-27.9 30.7-51 24.7c-23.2-6-37.8-26.7-32.7-46.4c5-19.6 27.9-30.7 51-24.7z" />
					<path id="&lt;Path&gt;" class="s1" d="m334.3 295.8c21.5 0 38.9 16.4 38.9 36.7c0 20.3-17.4 36.7-38.9 36.7c-21.5 0-38.9-16.4-38.9-36.7c0-20.3 17.4-36.7 38.9-36.7z" />
					<path id="&lt;Path&gt;" class="s1" d="m329 404.2c16.1 0 29.2 12.3 29.2 27.5c0 15.2-13.1 27.5-29.2 27.5c-16.1 0-29.1-12.3-29.1-27.5c0-15.2 13-27.5 29.1-27.5z" />
					<path id="&lt;Path&gt;" class="s1" d="m325.9 485.4c8.1-8.1 20.8-8.4 28.3-0.9c7.6 7.6 7.3 20.3-0.8 28.4c-8 8-20.7 8.4-28.3 0.8c-7.6-7.6-7.2-20.3 0.8-28.3z" />
					<g id="&lt;Group&gt;">
						<path id="&lt;Path&gt;" class="s1" d="m685 233.1c3.3 16.8 0.4 31.4-6.3 32.7c-6.8 1.3-14.9-11.3-18.1-28.1c-3.2-16.8-0.3-31.4 6.4-32.7c6.8-1.3 14.8 11.3 18 28.1z" />
						<path id="&lt;Path&gt;" class="s1" d="m597.8 261.5c5.4 16.2 4.6 31.1-1.9 33.3c-6.5 2.2-16.2-9.1-21.7-25.3c-5.4-16.3-4.6-31.2 1.9-33.4c6.5-2.1 16.2 9.2 21.7 25.4z" />
						<g id="&lt;Group&gt;">
							<path id="&lt;Path&gt;" class="s1" d="m735.3 353.8c0 11.7-3.8 21.2-8.5 21.2c-4.7 0-8.5-9.5-8.5-21.2c0-11.7 3.8-21.1 8.5-21.1c4.7 0 8.5 9.4 8.5 21.1z" />
							<path id="&lt;Path&gt;" class="s1" d="m693.8 363.2c0 11.6-3.8 21.1-8.5 21.1c-4.7 0-8.5-9.5-8.5-21.1c0-11.7 3.8-21.2 8.5-21.2c4.7 0 8.5 9.5 8.5 21.2z" />
							<path id="&lt;Path&gt;" class="s1" d="m652.3 363.4c0 11.7-3.8 21.2-8.5 21.2c-4.7 0-8.5-9.5-8.5-21.2c0-11.6 3.8-21.1 8.5-21.1c4.7 0 8.5 9.5 8.5 21.1z" />
							<path id="&lt;Path&gt;" class="s1" d="m610.8 359.8c0 11.7-3.8 21.2-8.5 21.2c-4.7 0-8.5-9.5-8.5-21.2c0-11.7 3.8-21.1 8.5-21.1c4.7 0 8.5 9.4 8.5 21.1z" />
							<path id="&lt;Path&gt;" class="s1" d="m569.3 342.2c0 11.7-3.8 21.1-8.5 21.1c-4.7 0-8.5-9.4-8.5-21.1c0-11.7 3.8-21.1 8.5-21.1c4.7 0 8.5 9.4 8.5 21.1z" />
						</g>
					</g>
					<path id="&lt;Path&gt;" class="s0" d="m743.4 489.2q0-11.1-4.5-24.3c-6.3 25.6-17.6 33.4-23.1 67.9q-5.6 34.5-22.3 32.3q1.7-14.5-6.1-16.2q-15.4 38.9-51.7 51.2q3.8-12.2 0-13.3q-39.5 33.4-63.4 32.8l-15.6-10.6l-5.4 10.6q-21-0.6-67-23.9l5.6 12.8q-23.9-2.8-74.5-39l-3.9 15q-34.5-20-50.6-69.5q-1.7 21.1-8.9 17.8c0.5-22.2-16.7-38.9-23.4-68.4c-6.5-28.8 1.8-70.9 2.2-72.8q-3.4 11-19.4 9.9c-1.7-17.2 20-29.4 21.6-91.8q1.7-62.3 38.4-111.2q-13.9 9.3-28.5 8.1q62.3-142.4 198-124.9l-51.2 106.4q36 35.3 72.9 72.2c-13.9 0.7-28.7 0.2-44.3-1.7q-13.8 162.7 220.6 100.8q18.5 43.8 4.5 129.8z" />
					<path id="&lt;Path&gt;" class="s0" d="m738.9 363.6c0 155.8-88.6 234.7-198 234.7c-109.4 0-198-78.9-198-234.7c0-155.7 88.6-281.9 198-281.9c68 0 128 48.7 163.6 123c-29.3 24.1-76.8 52.4-141.9 55.6c-13.9 0.7-28.7 0.2-44.3-1.7q-13.8 162.7 220.6 100.8q0.1 2.1 0 4.2z" />
					<path id="&lt;Path&gt;" class="s3" d="m656.8 172.9c0 17.9-14.6 32.5-32.6 32.5c-18 0-32.6-14.6-32.6-32.5c0-18 14.6-32.6 32.6-32.6c18 0 32.6 14.6 32.6 32.6z" />
					<path id="&lt;Path&gt;" class="s4" d="m652.9 175.9c0 8.2-6.6 14.8-14.8 14.8c-8.2 0-14.8-6.6-14.8-14.8c0-8.2 6.6-14.8 14.8-14.8c8.2 0 14.8 6.6 14.8 14.8z" />
					<path id="&lt;Path&gt;" class="s3" d="m579.5 189.3c0 18-14.6 32.5-32.6 32.5c-18 0-32.6-14.5-32.6-32.5c0-18 14.6-32.6 32.6-32.6c18 0 32.6 14.6 32.6 32.6z" />
					<path id="&lt;Path&gt;" class="s4" d="m575.6 192.3c0 8.2-6.7 14.8-14.8 14.8c-8.2 0-14.8-6.6-14.8-14.8c0-8.1 6.6-14.8 14.8-14.8c8.1 0 14.8 6.7 14.8 14.8z" />
					<path id="&lt;Path&gt;" class="s1" d="m435.8 333.9q-5 120 28.7 133.4c33.7 13.5 43 5.5 44.7 17.8q1.7 12.2-16.9 7.1q3 17.3 28.3 15.6c25.3-1.7-2.9 77.9-72.1 21.5q-61.6-50.1-45.1-188.4q8.4-24.1 32.4-7z" />
					<path id="&lt;Path&gt;" class="s1" d="m474.2 162.4q-113.5-9.7-100.5-132q10 66.7 104.5 63.4q33.1 27.2-4 68.6z" />
				</g>
			</g>
		</g>
	</g>
</svg>