<svg version="1.2" xmlns="http://www.w3.org/2000/svg" viewBox="0 0 579 706" width="579" height="706">
	<title>monsterb1-svg</title>
	<style>
		.s0 { fill: #082d3d } 
		.s1 { fill: #f07eb9 } 
		.s2 { fill: #ffa6d7 } 
		.s3 { fill: #70234f } 
		.s4 { fill: #1badb7 } 
		.s5 { fill: #d3549a } 
		.s6 { fill: #ffffff } 
		.s7 { fill: #66bdc8 } 
		.s8 { fill: #3c6a71 } 
		.s9 { fill: #0e1216 } 
		.s10 { fill: #fe3c4c } 
		.s11 { fill: #bc3f89 } 
		.s12 { fill: #ff9fd4 } 
	</style>
	<g id="Object">
		<g id="&lt;Group&gt;">
			<g id="&lt;Group&gt;">
				<g id="&lt;Group&gt;">
					<g id="&lt;Group&gt;">
						<path id="&lt;Path&gt;" class="s0" d="m353.1 705.7c-7.5 0.4-13.6-6.1-12.6-13.6c3.9-30 11.6-100 3.4-128q-10.6-36.1 22.6-23.1l3.9 15.9q3.8 57.2-9.7 120.3q47.2-24.1 57.3 1.5c8.3 20.7-39.8 25.8-64.9 27z" />
						<path id="&lt;Path&gt;" class="s0" d="m231.9 692.1c0.9 7.5-5.1 14-12.6 13.6c-25.1-1.2-73.2-6.3-64.9-27q10.1-25.6 57.3-1.5q-13.5-63.1-9.7-120.3l3.9-15.9q33.2-13 22.6 23.1c-8.2 28-0.5 98 3.4 128z" />
					</g>
					<path id="&lt;Path&gt;" class="s1" d="m285.1 156.2l2.4 451.3q-4.4 10.8-8.2 12.3q-5.3-14.1-25.4-19.2q0.7 6.2-3.6 15.2q-26.4-8.7-60.7-33.2q1.5 4.7-2.5 13.7q-17.3-11.2-52-43l-1.1 12.7q-12.2-5.8-17.7-23.1q-5.4-17.4-16.1-41.9q-4.2 13.3-7 14.4q-8.3-11.2-1.1-36.8q7.3-25.6-1.4-54.9q-3.7 7.5-9.4 5.4q6.2-21.6 5.1-45.3q-1.1-23.7 4.3-42.4q-5.4 9.2-12.3 7.2q11.6-27.4 10.6-60.6q-4.6 6.8-15.7 4.6q7.7-1.4 8-27.8q0.3-26.4 24.2-48.7q-10.2 6.1-16.5 0q23.9-36.8 67.1-45.2z" />
					<path id="&lt;Path&gt;" class="s1" d="m418.4 170.9q43.1 8.4 67 45.2q-6.3 6.1-16.5 0q24 22.3 24.3 48.7q0.3 26.4 7.9 27.8q-11.1 2.2-15.7-4.6q-0.9 33.2 10.6 60.6q-6.8 2-12.3-7.2q5.5 18.7 4.4 42.4q-1.1 23.7 5.1 45.3q-5.8 2.1-9.5-5.4q-8.6 29.3-1.4 54.9q7.2 25.6-1.1 36.8q-2.8-1.1-7-14.4q-10.7 24.5-16.1 41.9q-5.4 17.3-17.7 23.1l-1.1-12.7q-34.6 31.8-52 43q-3.9-9-2.5-13.7q-34.3 24.5-60.7 33.2q-4.3-9-3.6-15.2q-20.1 5.1-25.4 19.2q-3.8-1.5-8.1-12.3l2.4-451.3z" />
					<path id="&lt;Path&gt;" class="s1" d="m279.3 124.4c115.1-0.1 211.8 70.8 201.7 195c-10.1 124.2 2.4 287.4-201.7 272.9c-204.1-14.4-175.2-160.5-175.2-218.1c0-54.8-45.4-249.7 175.2-249.8z" />
					<g id="&lt;Group&gt;">
						<path id="&lt;Path&gt;" class="s1" d="m122.8 425.9l-20.6 3.4c-32.5 25-113.4 9.8-100.3-70.2c13.1-79.9 90.6-45.5 69.6 13.2q-21.1 58.7 40.2 42.3z" />
						<g id="&lt;Group&gt;">
							<path id="&lt;Path&gt;" class="s0" d="m66.9 334.6c-3.2-1.1 10-18.8 14.2-17.8c4.2 1-9.5 19.4-14.2 17.8z" />
							<path id="&lt;Path&gt;" class="s0" d="m56 325.3c-3.3-0.6 7-20.1 11.4-19.7c4.3 0.4-6.5 20.6-11.4 19.7z" />
							<path id="&lt;Path&gt;" class="s0" d="m43 322c-3.2 1.1-3.2-21 0.8-22.7c4-1.7 4 21.3-0.8 22.7z" />
							<path id="&lt;Path&gt;" class="s0" d="m31.2 325.6c-2.4 2.4-12.4-17.2-9.7-20.5c2.8-3.4 13.3 17 9.7 20.5z" />
							<path id="&lt;Path&gt;" class="s0" d="m20 333.4c-1.3 3.1-18.1-11.2-16.8-15.3c1.2-4.2 18.7 10.7 16.8 15.3z" />
						</g>
						<path id="&lt;Path&gt;" class="s2" d="m18.5 342.6c3.9-11.5 17.5-17.2 30.4-12.9c12.8 4.4 20.2 17.2 16.3 28.6c-3.9 11.5-50.5-4.3-46.7-15.7z" />
					</g>
					<g id="&lt;Group&gt;">
						<path id="&lt;Path&gt;" class="s1" d="m467.3 414.6q61.3 16.4 40.3-42.3c-21.1-58.7 56.5-93.1 69.5-13.2c13.1 80-67.8 95.2-100.2 70.2l-20.6-3.4z" />
						<g id="&lt;Group&gt;">
							<path id="&lt;Path&gt;" class="s0" d="m512.1 334.6c3.2-1.1-9.9-18.8-14.1-17.8c-4.3 1 9.4 19.4 14.1 17.8z" />
							<path id="&lt;Path&gt;" class="s0" d="m523 325.3c3.3-0.6-7-20.1-11.3-19.7c-4.4 0.4 6.4 20.6 11.3 19.7z" />
							<path id="&lt;Path&gt;" class="s0" d="m536 322c3.2 1.1 3.2-21-0.8-22.7c-4-1.7-3.9 21.3 0.8 22.7z" />
							<path id="&lt;Path&gt;" class="s0" d="m547.8 325.6c2.4 2.4 12.5-17.2 9.7-20.5c-2.8-3.4-13.2 17-9.7 20.5z" />
							<path id="&lt;Path&gt;" class="s0" d="m559 333.4c1.4 3.1 18.2-11.2 16.9-15.3c-1.3-4.2-18.8 10.7-16.9 15.3z" />
						</g>
						<path id="&lt;Path&gt;" class="s2" d="m513.9 358.3c-3.9-11.4 3.4-24.2 16.3-28.6c12.9-4.3 26.4 1.4 30.3 12.9c3.9 11.4-42.8 27.2-46.6 15.7z" />
					</g>
					<path id="&lt;Path&gt;" class="s3" d="m432.5 453.5c0 44.8-16.4 82.9-39.2 97c-6.2 3.8-12.8 5.9-19.7 5.9q-2.6 0-5.2-0.4q-0.4 0-0.8-0.1c-3.3-0.6-6.6-1.7-9.7-3.2c-18.3-8.9-38.9-11.3-59.1-8.8q-5.6 0.7-11.4 0.7q-5.8 0-11.5-0.7c-20-2.5-40.6-0.1-58.8 8.7c-3.3 1.7-6.8 2.8-10.4 3.4q-0.1 0-0.2 0q-2.6 0.4-5.2 0.4c-7.1 0-13.9-2.2-20.2-6.2c-22.5-14.4-38.7-52.3-38.7-96.7c0-44.5 16.2-82.4 38.8-96.8c6.3-3.9 13-6.1 20.1-6.1q2.7 0 5.3 0.4q5.4 0.8 10.5 3.4c18.2 8.8 38.8 11.2 58.8 8.7q5.7-0.7 11.5-0.7q5.8 0 11.4 0.7c20.2 2.5 40.8 0.1 59.1-8.8q5-2.5 10.5-3.3q2.6-0.4 5.2-0.4c7.1 0 13.9 2.2 20.1 6.1c22.6 14.4 38.8 52.3 38.8 96.8z" />
					<path id="&lt;Path&gt;" class="s4" d="m176 167.2q-23.3-101.5 16.6-166.3q12.5 99.8 66.5 133.8q-28.7 52.4-83.1 32.5z" />
					<g id="&lt;Group&gt;">
						<path id="&lt;Path&gt;" class="s5" d="m357.5 270.2c0 38.2-31 69.2-69.2 69.2c-38.2 0-69.2-31-69.2-69.2c0-38.2 31-69.2 69.2-69.2c38.2 0 69.2 31 69.2 69.2z" />
						<path id="&lt;Path&gt;" class="s1" d="m353.2 258.8c0 35.8-29.1 64.9-64.9 64.9c-35.9 0-64.9-29.1-64.9-64.9c0-35.8 29-64.9 64.9-64.9c35.8 0 64.9 29.1 64.9 64.9z" />
						<path id="&lt;Path&gt;" class="s6" d="m346.1 258.8c0 31.9-25.9 57.8-57.8 57.8c-32 0-57.8-25.9-57.8-57.8c0-31.9 25.8-57.8 57.8-57.8c31.9 0 57.8 25.9 57.8 57.8z" />
						<path id="&lt;Path&gt;" class="s7" d="m325.1 264.8c0 20.3-16.5 36.8-36.8 36.8c-20.4 0-36.8-16.5-36.8-36.8c0-20.4 16.4-36.8 36.8-36.8c20.3 0 36.8 16.4 36.8 36.8z" />
						<path id="&lt;Path&gt;" class="s8" d="m305.2 264.8c0 9.3-7.6 16.9-16.9 16.9c-9.4 0-16.9-7.6-16.9-16.9c0-9.4 7.5-16.9 16.9-16.9c9.3 0 16.9 7.5 16.9 16.9z" />
						<path id="&lt;Path&gt;" class="s6" d="m299.2 241.8c1.2 4.1-4.2 9.2-11.9 11.5c-7.8 2.3-15.1 1-16.3-3.1c-1.2-4 4.1-9.1 11.9-11.5c7.8-2.3 15.1-0.9 16.3 3.1z" />
						<path id="&lt;Path&gt;" class="s6" d="m307.1 282.8c0 4-3.3 7.2-7.3 7.2c-4 0-7.3-3.2-7.3-7.2c0-4 3.3-7.3 7.3-7.3c4 0 7.3 3.3 7.3 7.3z" />
					</g>
					<g id="&lt;Group&gt;">
						<path id="&lt;Path&gt;" class="s6" d="m393.7 356.7q-0.3 2.2-0.9 4.5c-3.5 14.1-12.1 24.1-19.1 22.4c-7.1-1.8-10-14.7-6.5-28.8q0.5-1.9 1.2-3.8q2.6-0.4 5.2-0.4c7.1 0 13.9 2.2 20.1 6.1z" />
						<path id="&lt;Path&gt;" class="s6" d="m201.3 383.6c-7.1 1.7-15.7-8.3-19.2-22.4q-0.6-2.3-0.9-4.5c6.3-3.9 13-6.1 20.1-6.1q2.7 0 5.3 0.4q0.6 1.9 1.1 3.8c3.5 14.1 0.6 27-6.4 28.8z" />
					</g>
					<path id="&lt;Path&gt;" class="s9" d="m333.1 517.5q0 0.5-0.1 1.1c-0.2 9.2-3.1 17.8-8 24.9c-8.7-0.9-17.5-0.7-26.2 0.4q-5.6 0.7-11.4 0.7q-5.8 0-11.5-0.7c-8.9-1.1-18-1.3-26.9-0.3c-4.8-7-7.8-15.4-8.1-24.5q0-0.8 0-1.6c0-25.5 20.6-46.1 46.1-46.1c25.4 0 46.1 20.6 46.1 46.1z" />
					<g id="&lt;Group&gt;">
						<path id="&lt;Path&gt;" class="s6" d="m207.4 553.5q-0.3 1.2-0.7 2.5q-0.1 0-0.2 0q-2.6 0.4-5.2 0.4c-7.1 0-13.9-2.2-20.2-6.2q0.3-1.5 0.7-3.1c3.5-14.1 12.1-24.2 19.2-22.4c7 1.8 9.9 14.6 6.4 28.8z" />
						<path id="&lt;Path&gt;" class="s6" d="m393.3 550.5c-6.2 3.8-12.8 5.9-19.7 5.9q-2.6 0-5.2-0.4q-0.4 0-0.8-0.1q-0.3-1.2-0.6-2.4c-3.6-14.2-0.7-27 6.4-28.8c7-1.8 15.6 8.3 19.1 22.4q0.5 1.7 0.8 3.4z" />
					</g>
					<path id="&lt;Path&gt;" class="s10" d="m368.4 556c-3.6-0.5-7.1-1.7-10.5-3.3c-10.4-5.1-21.5-8-32.9-9.2c-8.7-0.9-17.5-0.7-26.2 0.4q-5.6 0.7-11.4 0.7q-5.8 0-11.5-0.7c-8.9-1.1-18-1.3-26.9-0.3c-11 1.2-21.8 4.1-31.9 9c-3.4 1.7-7 2.9-10.6 3.4c5.4-15.3 17.8-28.3 34.4-36.9c13.3-6.9 29.3-10.9 46.6-10.9c16.8 0 32.4 3.8 45.5 10.4c17.2 8.6 30 21.8 35.4 37.4z" />
				</g>
				<g id="&lt;Group&gt;">
					<path id="&lt;Path&gt;" class="s11" d="m230.1 577.6c0 3.8-3 6.8-6.8 6.8c-3.8 0-6.8-3-6.8-6.8c0-3.7 3-6.8 6.8-6.8c3.8 0 6.8 3.1 6.8 6.8z" />
					<path id="&lt;Path&gt;" class="s11" d="m247.7 561c0 4.5-3.7 8.2-8.2 8.2c-4.6 0-8.2-3.7-8.2-8.2c0-4.6 3.6-8.2 8.2-8.2c4.5 0 8.2 3.6 8.2 8.2z" />
					<path id="&lt;Path&gt;" class="s11" d="m240.6 574.8c0 1.6-1.2 2.8-2.8 2.8c-1.6 0-2.8-1.2-2.8-2.8c0-1.6 1.2-2.8 2.8-2.8c1.6 0 2.8 1.2 2.8 2.8z" />
					<path id="&lt;Path&gt;" class="s11" d="m265.7 581.4c0 6.3-5.1 11.4-11.5 11.4c-6.3 0-11.4-5.1-11.4-11.4c0-6.3 5.1-11.5 11.4-11.5c6.4 0 11.5 5.2 11.5 11.5z" />
					<path id="&lt;Path&gt;" class="s11" d="m273.4 582.5c0 1.5-1.2 2.6-2.6 2.6c-1.5 0-2.6-1.1-2.6-2.6c0-1.4 1.1-2.6 2.6-2.6c1.4 0 2.6 1.2 2.6 2.6z" />
					<path id="&lt;Path&gt;" class="s11" d="m281.3 572c0 2.5-2 4.5-4.5 4.5c-2.5 0-4.5-2-4.5-4.5c0-2.5 2-4.6 4.5-4.6c2.5 0 4.5 2.1 4.5 4.6z" />
					<path id="&lt;Path&gt;" class="s11" d="m307.1 587.1c0 8-6.6 14.6-14.7 14.6c-8 0-14.6-6.6-14.6-14.6c0-8.1 6.6-14.7 14.6-14.7c8.1 0 14.7 6.6 14.7 14.7z" />
				</g>
				<g id="&lt;Group&gt;">
					<path id="&lt;Path&gt;" class="s12" d="m381.8 179.5c-1.6 3.4-5.6 4.9-9 3.3c-3.5-1.5-5-5.5-3.4-9c1.5-3.4 5.6-4.9 9-3.3c3.4 1.5 4.9 5.6 3.4 9z" />
					<path id="&lt;Path&gt;" class="s12" d="m404.7 171.6c-1.9 4.1-6.8 6-10.9 4.1c-4.1-1.9-6-6.8-4.1-10.9c1.9-4.2 6.8-6 10.9-4.1c4.1 1.9 6 6.8 4.1 10.9z" />
					<path id="&lt;Path&gt;" class="s12" d="m392.5 181.3c-0.6 1.4-2.3 2-3.7 1.4c-1.4-0.7-2.1-2.4-1.4-3.8c0.6-1.4 2.3-2 3.7-1.4c1.4 0.6 2.1 2.3 1.4 3.8z" />
					<path id="&lt;Path&gt;" class="s12" d="m412.6 197.6c-2.6 5.8-9.4 8.3-15.1 5.7c-5.8-2.6-8.3-9.4-5.7-15.2c2.6-5.7 9.4-8.3 15.1-5.7c5.8 2.7 8.3 9.4 5.7 15.2z" />
					<path id="&lt;Path&gt;" class="s12" d="m419.2 201.8c-0.6 1.3-2.2 1.9-3.5 1.3c-1.3-0.6-1.9-2.1-1.3-3.4c0.6-1.3 2.2-1.9 3.5-1.3c1.3 0.6 1.9 2.1 1.3 3.4z" />
					<path id="&lt;Path&gt;" class="s12" d="m430.7 195.5c-1 2.3-3.7 3.3-6 2.3c-2.2-1.1-3.2-3.8-2.2-6c1-2.3 3.7-3.3 6-2.3c2.3 1 3.3 3.7 2.2 6z" />
					<path id="&lt;Path&gt;" class="s12" d="m447.9 219.9c-3.3 7.3-12 10.6-19.3 7.2c-7.4-3.3-10.6-12-7.3-19.3c3.3-7.4 12-10.6 19.4-7.3c7.3 3.4 10.6 12 7.2 19.4z" />
				</g>
			</g>
		</g>
	</g>
</svg>