<?xml version="1.0" standalone="no"?>
<!DOCTYPE svg PUBLIC "-//W3C//DTD SVG 20010904//EN"
 "http://www.w3.org/TR/2001/REC-SVG-20010904/DTD/svg10.dtd">
<svg version="1.0" xmlns="http://www.w3.org/2000/svg"
 width="706.000000pt" height="706.000000pt" viewBox="0 0 706.000000 706.000000"
 preserveAspectRatio="xMidYMid meet">
<metadata>
Created by potrace 1.14, written by Peter Selinger 2001-2017
</metadata>
<g transform="translate(0.000000,706.000000) scale(0.100000,-0.100000)"
fill="#000000" stroke="none">
<path d="M2530 6987 c-109 -195 -182 -436 -206 -682 -13 -130 -7 -435 10 -545
2 -14 7 -47 10 -75 4 -27 9 -62 11 -76 4 -22 -2 -29 -38 -49 -23 -13 -46 -28
-52 -32 -5 -5 -33 -25 -61 -46 -56 -41 -117 -97 -175 -157 -21 -23 -55 -47
-76 -54 -21 -7 -45 -19 -53 -25 -8 -7 -32 -21 -52 -31 -21 -11 -38 -23 -38
-27 0 -3 -9 -9 -20 -13 -39 -12 -260 -249 -260 -278 0 -13 65 -29 95 -24 43 7
44 -3 5 -40 -16 -15 -30 -34 -30 -40 0 -7 -4 -13 -8 -13 -14 0 -95 -139 -108
-185 -19 -63 -25 -104 -29 -180 -10 -167 -22 -227 -55 -263 l-21 -22 43 0 c25
0 57 8 76 20 40 24 41 24 36 3 -2 -10 -6 -61 -8 -113 -2 -52 -5 -95 -6 -95 -1
0 -3 -11 -4 -25 -3 -25 -16 -106 -20 -125 -12 -50 -21 -80 -42 -139 -13 -38
-24 -73 -24 -76 0 -17 52 -6 75 16 29 26 40 17 25 -21 -16 -42 -21 -115 -25
-340 -4 -203 -7 -256 -20 -320 -8 -39 -8 -39 -47 -26 -92 31 -130 83 -134 188
-3 62 20 169 65 308 26 81 26 216 0 287 l-19 52 28 30 c15 17 29 33 33 36 12
11 49 78 49 89 0 6 -9 9 -21 8 -22 -4 -109 -91 -109 -111 0 -6 -11 3 -25 19
-45 53 -46 59 -21 96 12 19 27 51 33 72 10 34 9 37 -8 37 -16 0 -48 -36 -84
-94 -9 -15 -15 -15 -66 6 -54 21 -56 24 -54 55 4 38 -12 103 -25 103 -10 0
-30 -64 -30 -97 0 -23 -14 -36 -40 -38 -8 -1 -29 -5 -47 -9 -26 -6 -32 -4 -37
12 -4 10 -19 33 -35 51 -26 29 -30 30 -35 14 -7 -22 -2 -54 14 -83 10 -19 7
-27 -31 -65 l-43 -43 -29 24 c-100 84 -129 48 -38 -45 l29 -30 -29 -58 c-64
-129 -102 -391 -76 -523 29 -141 65 -219 147 -315 30 -35 58 -64 63 -64 4 -1
24 -13 46 -29 21 -15 58 -36 82 -46 24 -10 51 -22 60 -26 43 -22 163 -42 249
-42 71 0 144 11 211 32 34 11 64 19 65 17 6 -5 17 -140 17 -197 0 -75 -10
-149 -32 -240 -25 -101 -31 -135 -32 -201 -2 -61 27 -162 44 -156 10 3 49 73
62 112 8 22 9 20 56 -90 11 -27 25 -58 30 -67 5 -10 9 -26 9 -36 0 -10 4 -22
9 -27 5 -6 23 -53 41 -105 17 -52 43 -118 56 -147 34 -73 142 -178 145 -141 1
7 3 33 4 57 2 24 6 45 8 48 3 2 29 -18 58 -45 30 -27 70 -63 89 -78 19 -16 45
-38 56 -50 12 -11 44 -38 70 -60 27 -21 54 -43 60 -49 6 -5 26 -21 44 -35 19
-14 45 -34 59 -45 14 -12 38 -29 53 -38 26 -16 28 -16 38 3 6 10 13 39 16 64
l7 45 53 -36 c35 -23 54 -43 55 -57 1 -12 3 -48 4 -81 7 -144 19 -272 40 -415
2 -14 7 -47 11 -75 3 -27 8 -59 11 -70 8 -39 24 -131 30 -168 l6 -39 -54 27
c-111 57 -250 94 -332 88 -101 -7 -176 -74 -192 -172 -4 -29 40 -101 63 -101
6 0 12 -4 14 -8 11 -26 194 -80 338 -98 247 -31 306 -25 349 34 19 28 22 93 7
198 -17 118 -22 172 -31 284 -3 36 -7 85 -9 110 -11 105 -18 362 -10 358 35
-19 148 -70 192 -86 l54 -21 14 34 c7 18 16 52 20 75 6 39 9 41 33 35 83 -21
177 -89 210 -152 l17 -34 27 31 c15 16 25 30 22 30 -3 0 2 11 11 25 l17 26 29
-51 c15 -27 34 -50 41 -50 7 0 21 16 32 36 30 56 129 125 200 140 25 5 31 2
31 -13 1 -29 11 -76 23 -105 10 -27 11 -27 51 -13 22 8 72 30 112 49 40 19 74
33 76 31 11 -11 0 -260 -23 -500 -12 -121 -22 -215 -32 -280 -23 -160 20 -219
152 -210 99 7 188 15 215 20 14 3 41 7 60 9 126 16 287 80 323 128 39 53 23
137 -36 190 -58 51 -140 64 -247 40 -71 -16 -201 -64 -234 -88 -31 -21 -37
-17 -30 19 3 17 7 43 10 57 2 14 13 77 24 140 23 135 31 198 46 355 8 91 12
148 13 212 1 52 1 52 58 91 32 21 63 41 68 44 6 4 11 -9 12 -29 1 -20 5 -43 9
-52 7 -15 10 -23 13 -36 4 -18 256 175 372 285 56 53 136 119 144 120 6 0 11
-19 13 -42 5 -70 13 -74 64 -28 59 51 88 102 128 220 35 104 94 256 130 334
l22 49 27 -63 c14 -35 31 -65 37 -67 18 -6 45 68 48 131 2 52 -16 195 -28 214
-2 4 -7 26 -10 48 -4 23 -10 54 -15 70 -15 52 -3 335 15 353 2 2 14 0 27 -6
71 -33 101 -43 159 -53 93 -17 257 -14 289 6 3 2 21 6 40 9 50 9 187 78 240
122 59 49 109 113 147 189 32 64 36 75 56 184 28 155 -4 381 -74 523 l-29 58
38 38 c91 91 43 117 -54 29 -18 -18 -20 -18 -42 6 -12 13 -33 32 -45 40 -19
14 -21 19 -11 36 7 10 16 37 19 60 9 56 -16 54 -53 -5 -30 -47 -24 -45 -108
-30 -11 2 -22 4 -25 4 -3 1 -7 13 -8 29 -5 56 -19 102 -32 102 -13 0 -27 -51
-25 -97 0 -24 -4 -43 -10 -43 -6 0 -27 -9 -48 -20 -20 -11 -40 -20 -45 -20 -4
0 -22 22 -40 50 -18 27 -41 54 -52 60 -18 9 -20 8 -20 -17 0 -15 13 -51 29
-80 l29 -52 -31 -40 -30 -40 -20 27 c-41 55 -81 92 -100 92 -32 0 -6 -58 58
-129 l34 -37 -19 -54 c-28 -86 -20 -229 20 -345 38 -113 44 -140 44 -240 0
-94 -21 -139 -81 -175 -40 -24 -127 -38 -136 -23 -16 26 -28 215 -27 403 1 36
0 82 -2 103 -2 20 1 37 6 37 4 0 4 6 -2 13 -6 6 -13 32 -16 57 -3 25 -8 63
-12 85 l-7 40 32 -28 c30 -25 60 -34 73 -21 3 3 -3 28 -14 57 -31 81 -61 207
-73 307 -9 70 -14 213 -9 222 3 5 17 -1 31 -12 17 -13 41 -20 70 -20 l44 0
-21 28 c-29 38 -39 87 -45 212 -6 116 -7 120 -29 202 -24 90 -91 200 -173 284
-30 30 -29 36 3 24 35 -14 76 -12 97 4 16 12 17 18 6 38 -6 13 -15 25 -18 28
-4 3 -26 30 -51 60 -58 71 -111 121 -180 167 -30 21 -57 40 -60 43 -20 20
-160 81 -255 111 -33 10 -71 29 -85 41 -161 147 -554 330 -822 383 -16 3 -39
7 -53 10 -57 11 -82 16 -120 21 -22 2 -49 7 -60 9 -82 17 -402 24 -578 13
l-89 -6 -50 47 c-61 56 -170 200 -224 296 -93 164 -193 449 -228 650 -18 103
-26 156 -32 200 -3 28 -7 51 -8 52 -1 1 -17 -26 -36 -60z"/>
</g>
</svg>
